G04 #@! TF.GenerationSoftware,KiCad,Pcbnew,(5.0.1)-4*
G04 #@! TF.CreationDate,2019-08-26T10:27:06+03:00*
G04 #@! TF.ProjectId,CP2102-breakout,4350323130322D627265616B6F75742E,rev?*
G04 #@! TF.SameCoordinates,Original*
G04 #@! TF.FileFunction,Other,Fab,Bot*
%FSLAX46Y46*%
G04 Gerber Fmt 4.6, Leading zero omitted, Abs format (unit mm)*
G04 Created by KiCad (PCBNEW (5.0.1)-4) date 26/08/2019 10:27:06*
%MOMM*%
%LPD*%
G01*
G04 APERTURE LIST*
%ADD10C,0.100000*%
%ADD11C,0.150000*%
%ADD12C,0.108000*%
G04 APERTURE END LIST*
D10*
G04 #@! TO.C,J12*
X39650000Y-49040000D02*
X39650000Y-64540000D01*
X39650000Y-64540000D02*
X51750000Y-64540000D01*
X51750000Y-64540000D02*
X51750000Y-48040000D01*
X51750000Y-48040000D02*
X40650000Y-48040000D01*
X40650000Y-48040000D02*
X39650000Y-49040000D01*
G04 #@! TO.C,J4*
X36830000Y-12065000D02*
X36830000Y-13970000D01*
X36830000Y-13970000D02*
X41910000Y-13970000D01*
X41910000Y-13970000D02*
X41910000Y-11430000D01*
X41910000Y-11430000D02*
X37465000Y-11430000D01*
X37465000Y-11430000D02*
X36830000Y-12065000D01*
G04 #@! TO.C,J3*
X52070000Y-13335000D02*
X52070000Y-11430000D01*
X52070000Y-11430000D02*
X41910000Y-11430000D01*
X41910000Y-11430000D02*
X41910000Y-13970000D01*
X41910000Y-13970000D02*
X51435000Y-13970000D01*
X51435000Y-13970000D02*
X52070000Y-13335000D01*
G04 #@! TO.C,J19*
X37465000Y-15240000D02*
X36830000Y-15875000D01*
X52070000Y-15240000D02*
X37465000Y-15240000D01*
X52070000Y-17780000D02*
X52070000Y-15240000D01*
X36830000Y-17780000D02*
X52070000Y-17780000D01*
X36830000Y-15875000D02*
X36830000Y-17780000D01*
G04 #@! TO.C,R13*
X51600000Y-21780000D02*
X49590000Y-21780000D01*
X43980000Y-21780000D02*
X45990000Y-21780000D01*
X49590000Y-22580000D02*
X45990000Y-22580000D01*
X49590000Y-20980000D02*
X49590000Y-22580000D01*
X45990000Y-20980000D02*
X49590000Y-20980000D01*
X45990000Y-22580000D02*
X45990000Y-20980000D01*
G04 #@! TO.C,R12*
X51600000Y-24320000D02*
X49590000Y-24320000D01*
X43980000Y-24320000D02*
X45990000Y-24320000D01*
X49590000Y-25120000D02*
X45990000Y-25120000D01*
X49590000Y-23520000D02*
X49590000Y-25120000D01*
X45990000Y-23520000D02*
X49590000Y-23520000D01*
X45990000Y-25120000D02*
X45990000Y-23520000D01*
G04 #@! TD*
G04 #@! TO.C,J12*
D11*
X54172380Y-52323571D02*
X54981904Y-52323571D01*
X55077142Y-52371190D01*
X55124761Y-52418809D01*
X55172380Y-52514047D01*
X55172380Y-52704523D01*
X55124761Y-52799761D01*
X55077142Y-52847380D01*
X54981904Y-52895000D01*
X54172380Y-52895000D01*
X55124761Y-53323571D02*
X55172380Y-53466428D01*
X55172380Y-53704523D01*
X55124761Y-53799761D01*
X55077142Y-53847380D01*
X54981904Y-53895000D01*
X54886666Y-53895000D01*
X54791428Y-53847380D01*
X54743809Y-53799761D01*
X54696190Y-53704523D01*
X54648571Y-53514047D01*
X54600952Y-53418809D01*
X54553333Y-53371190D01*
X54458095Y-53323571D01*
X54362857Y-53323571D01*
X54267619Y-53371190D01*
X54220000Y-53418809D01*
X54172380Y-53514047D01*
X54172380Y-53752142D01*
X54220000Y-53895000D01*
X54648571Y-54656904D02*
X54696190Y-54799761D01*
X54743809Y-54847380D01*
X54839047Y-54895000D01*
X54981904Y-54895000D01*
X55077142Y-54847380D01*
X55124761Y-54799761D01*
X55172380Y-54704523D01*
X55172380Y-54323571D01*
X54172380Y-54323571D01*
X54172380Y-54656904D01*
X54220000Y-54752142D01*
X54267619Y-54799761D01*
X54362857Y-54847380D01*
X54458095Y-54847380D01*
X54553333Y-54799761D01*
X54600952Y-54752142D01*
X54648571Y-54656904D01*
X54648571Y-54323571D01*
X55267619Y-55085476D02*
X55267619Y-55847380D01*
X54886666Y-56037857D02*
X54886666Y-56514047D01*
X55172380Y-55942619D02*
X54172380Y-56275952D01*
X55172380Y-56609285D01*
X45152380Y-55480476D02*
X45866666Y-55480476D01*
X46009523Y-55432857D01*
X46104761Y-55337619D01*
X46152380Y-55194761D01*
X46152380Y-55099523D01*
X46152380Y-56480476D02*
X46152380Y-55909047D01*
X46152380Y-56194761D02*
X45152380Y-56194761D01*
X45295238Y-56099523D01*
X45390476Y-56004285D01*
X45438095Y-55909047D01*
X45247619Y-56861428D02*
X45200000Y-56909047D01*
X45152380Y-57004285D01*
X45152380Y-57242380D01*
X45200000Y-57337619D01*
X45247619Y-57385238D01*
X45342857Y-57432857D01*
X45438095Y-57432857D01*
X45580952Y-57385238D01*
X46152380Y-56813809D01*
X46152380Y-57432857D01*
G04 #@! TO.C,J4*
X43327142Y-5914285D02*
X43374761Y-5866666D01*
X43422380Y-5723809D01*
X43422380Y-5628571D01*
X43374761Y-5485714D01*
X43279523Y-5390476D01*
X43184285Y-5342857D01*
X42993809Y-5295238D01*
X42850952Y-5295238D01*
X42660476Y-5342857D01*
X42565238Y-5390476D01*
X42470000Y-5485714D01*
X42422380Y-5628571D01*
X42422380Y-5723809D01*
X42470000Y-5866666D01*
X42517619Y-5914285D01*
X43422380Y-6485714D02*
X43374761Y-6390476D01*
X43327142Y-6342857D01*
X43231904Y-6295238D01*
X42946190Y-6295238D01*
X42850952Y-6342857D01*
X42803333Y-6390476D01*
X42755714Y-6485714D01*
X42755714Y-6628571D01*
X42803333Y-6723809D01*
X42850952Y-6771428D01*
X42946190Y-6819047D01*
X43231904Y-6819047D01*
X43327142Y-6771428D01*
X43374761Y-6723809D01*
X43422380Y-6628571D01*
X43422380Y-6485714D01*
X42755714Y-7247619D02*
X43422380Y-7247619D01*
X42850952Y-7247619D02*
X42803333Y-7295238D01*
X42755714Y-7390476D01*
X42755714Y-7533333D01*
X42803333Y-7628571D01*
X42898571Y-7676190D01*
X43422380Y-7676190D01*
X42755714Y-8152380D02*
X43422380Y-8152380D01*
X42850952Y-8152380D02*
X42803333Y-8200000D01*
X42755714Y-8295238D01*
X42755714Y-8438095D01*
X42803333Y-8533333D01*
X42898571Y-8580952D01*
X43422380Y-8580952D01*
X43517619Y-8819047D02*
X43517619Y-9580952D01*
X42422380Y-10009523D02*
X42422380Y-10104761D01*
X42470000Y-10200000D01*
X42517619Y-10247619D01*
X42612857Y-10295238D01*
X42803333Y-10342857D01*
X43041428Y-10342857D01*
X43231904Y-10295238D01*
X43327142Y-10247619D01*
X43374761Y-10200000D01*
X43422380Y-10104761D01*
X43422380Y-10009523D01*
X43374761Y-9914285D01*
X43327142Y-9866666D01*
X43231904Y-9819047D01*
X43041428Y-9771428D01*
X42803333Y-9771428D01*
X42612857Y-9819047D01*
X42517619Y-9866666D01*
X42470000Y-9914285D01*
X42422380Y-10009523D01*
X43422380Y-11295238D02*
X43422380Y-10723809D01*
X43422380Y-11009523D02*
X42422380Y-11009523D01*
X42565238Y-10914285D01*
X42660476Y-10819047D01*
X42708095Y-10723809D01*
X43422380Y-11628571D02*
X42755714Y-12152380D01*
X42755714Y-11628571D02*
X43422380Y-12152380D01*
X42422380Y-12723809D02*
X42422380Y-12819047D01*
X42470000Y-12914285D01*
X42517619Y-12961904D01*
X42612857Y-13009523D01*
X42803333Y-13057142D01*
X43041428Y-13057142D01*
X43231904Y-13009523D01*
X43327142Y-12961904D01*
X43374761Y-12914285D01*
X43422380Y-12819047D01*
X43422380Y-12723809D01*
X43374761Y-12628571D01*
X43327142Y-12580952D01*
X43231904Y-12533333D01*
X43041428Y-12485714D01*
X42803333Y-12485714D01*
X42612857Y-12533333D01*
X42517619Y-12580952D01*
X42470000Y-12628571D01*
X42422380Y-12723809D01*
X42517619Y-13438095D02*
X42470000Y-13485714D01*
X42422380Y-13580952D01*
X42422380Y-13819047D01*
X42470000Y-13914285D01*
X42517619Y-13961904D01*
X42612857Y-14009523D01*
X42708095Y-14009523D01*
X42850952Y-13961904D01*
X43422380Y-13390476D01*
X43422380Y-14009523D01*
X43517619Y-14200000D02*
X43517619Y-14961904D01*
X42898571Y-15533333D02*
X42898571Y-15200000D01*
X43422380Y-15200000D02*
X42422380Y-15200000D01*
X42422380Y-15676190D01*
X43374761Y-16438095D02*
X43422380Y-16342857D01*
X43422380Y-16152380D01*
X43374761Y-16057142D01*
X43279523Y-16009523D01*
X42898571Y-16009523D01*
X42803333Y-16057142D01*
X42755714Y-16152380D01*
X42755714Y-16342857D01*
X42803333Y-16438095D01*
X42898571Y-16485714D01*
X42993809Y-16485714D01*
X43089047Y-16009523D01*
X43422380Y-16914285D02*
X42755714Y-16914285D01*
X42850952Y-16914285D02*
X42803333Y-16961904D01*
X42755714Y-17057142D01*
X42755714Y-17200000D01*
X42803333Y-17295238D01*
X42898571Y-17342857D01*
X43422380Y-17342857D01*
X42898571Y-17342857D02*
X42803333Y-17390476D01*
X42755714Y-17485714D01*
X42755714Y-17628571D01*
X42803333Y-17723809D01*
X42898571Y-17771428D01*
X43422380Y-17771428D01*
X43422380Y-18676190D02*
X42898571Y-18676190D01*
X42803333Y-18628571D01*
X42755714Y-18533333D01*
X42755714Y-18342857D01*
X42803333Y-18247619D01*
X43374761Y-18676190D02*
X43422380Y-18580952D01*
X43422380Y-18342857D01*
X43374761Y-18247619D01*
X43279523Y-18200000D01*
X43184285Y-18200000D01*
X43089047Y-18247619D01*
X43041428Y-18342857D01*
X43041428Y-18580952D01*
X42993809Y-18676190D01*
X43422380Y-19295238D02*
X43374761Y-19200000D01*
X43279523Y-19152380D01*
X42422380Y-19152380D01*
X43374761Y-20057142D02*
X43422380Y-19961904D01*
X43422380Y-19771428D01*
X43374761Y-19676190D01*
X43279523Y-19628571D01*
X42898571Y-19628571D01*
X42803333Y-19676190D01*
X42755714Y-19771428D01*
X42755714Y-19961904D01*
X42803333Y-20057142D01*
X42898571Y-20104761D01*
X42993809Y-20104761D01*
X43089047Y-19628571D01*
X39703333Y-12152380D02*
X39703333Y-12866666D01*
X39750952Y-13009523D01*
X39846190Y-13104761D01*
X39989047Y-13152380D01*
X40084285Y-13152380D01*
X38798571Y-12485714D02*
X38798571Y-13152380D01*
X39036666Y-12104761D02*
X39274761Y-12819047D01*
X38655714Y-12819047D01*
G04 #@! TO.C,J3*
X41207142Y-5914285D02*
X41254761Y-5866666D01*
X41302380Y-5723809D01*
X41302380Y-5628571D01*
X41254761Y-5485714D01*
X41159523Y-5390476D01*
X41064285Y-5342857D01*
X40873809Y-5295238D01*
X40730952Y-5295238D01*
X40540476Y-5342857D01*
X40445238Y-5390476D01*
X40350000Y-5485714D01*
X40302380Y-5628571D01*
X40302380Y-5723809D01*
X40350000Y-5866666D01*
X40397619Y-5914285D01*
X41302380Y-6485714D02*
X41254761Y-6390476D01*
X41207142Y-6342857D01*
X41111904Y-6295238D01*
X40826190Y-6295238D01*
X40730952Y-6342857D01*
X40683333Y-6390476D01*
X40635714Y-6485714D01*
X40635714Y-6628571D01*
X40683333Y-6723809D01*
X40730952Y-6771428D01*
X40826190Y-6819047D01*
X41111904Y-6819047D01*
X41207142Y-6771428D01*
X41254761Y-6723809D01*
X41302380Y-6628571D01*
X41302380Y-6485714D01*
X40635714Y-7247619D02*
X41302380Y-7247619D01*
X40730952Y-7247619D02*
X40683333Y-7295238D01*
X40635714Y-7390476D01*
X40635714Y-7533333D01*
X40683333Y-7628571D01*
X40778571Y-7676190D01*
X41302380Y-7676190D01*
X40635714Y-8152380D02*
X41302380Y-8152380D01*
X40730952Y-8152380D02*
X40683333Y-8200000D01*
X40635714Y-8295238D01*
X40635714Y-8438095D01*
X40683333Y-8533333D01*
X40778571Y-8580952D01*
X41302380Y-8580952D01*
X41397619Y-8819047D02*
X41397619Y-9580952D01*
X40302380Y-10009523D02*
X40302380Y-10104761D01*
X40350000Y-10200000D01*
X40397619Y-10247619D01*
X40492857Y-10295238D01*
X40683333Y-10342857D01*
X40921428Y-10342857D01*
X41111904Y-10295238D01*
X41207142Y-10247619D01*
X41254761Y-10200000D01*
X41302380Y-10104761D01*
X41302380Y-10009523D01*
X41254761Y-9914285D01*
X41207142Y-9866666D01*
X41111904Y-9819047D01*
X40921428Y-9771428D01*
X40683333Y-9771428D01*
X40492857Y-9819047D01*
X40397619Y-9866666D01*
X40350000Y-9914285D01*
X40302380Y-10009523D01*
X41302380Y-11295238D02*
X41302380Y-10723809D01*
X41302380Y-11009523D02*
X40302380Y-11009523D01*
X40445238Y-10914285D01*
X40540476Y-10819047D01*
X40588095Y-10723809D01*
X41302380Y-11628571D02*
X40635714Y-12152380D01*
X40635714Y-11628571D02*
X41302380Y-12152380D01*
X40302380Y-12723809D02*
X40302380Y-12819047D01*
X40350000Y-12914285D01*
X40397619Y-12961904D01*
X40492857Y-13009523D01*
X40683333Y-13057142D01*
X40921428Y-13057142D01*
X41111904Y-13009523D01*
X41207142Y-12961904D01*
X41254761Y-12914285D01*
X41302380Y-12819047D01*
X41302380Y-12723809D01*
X41254761Y-12628571D01*
X41207142Y-12580952D01*
X41111904Y-12533333D01*
X40921428Y-12485714D01*
X40683333Y-12485714D01*
X40492857Y-12533333D01*
X40397619Y-12580952D01*
X40350000Y-12628571D01*
X40302380Y-12723809D01*
X40635714Y-13914285D02*
X41302380Y-13914285D01*
X40254761Y-13676190D02*
X40969047Y-13438095D01*
X40969047Y-14057142D01*
X41397619Y-14200000D02*
X41397619Y-14961904D01*
X40778571Y-15533333D02*
X40778571Y-15200000D01*
X41302380Y-15200000D02*
X40302380Y-15200000D01*
X40302380Y-15676190D01*
X41254761Y-16438095D02*
X41302380Y-16342857D01*
X41302380Y-16152380D01*
X41254761Y-16057142D01*
X41159523Y-16009523D01*
X40778571Y-16009523D01*
X40683333Y-16057142D01*
X40635714Y-16152380D01*
X40635714Y-16342857D01*
X40683333Y-16438095D01*
X40778571Y-16485714D01*
X40873809Y-16485714D01*
X40969047Y-16009523D01*
X41302380Y-16914285D02*
X40635714Y-16914285D01*
X40730952Y-16914285D02*
X40683333Y-16961904D01*
X40635714Y-17057142D01*
X40635714Y-17200000D01*
X40683333Y-17295238D01*
X40778571Y-17342857D01*
X41302380Y-17342857D01*
X40778571Y-17342857D02*
X40683333Y-17390476D01*
X40635714Y-17485714D01*
X40635714Y-17628571D01*
X40683333Y-17723809D01*
X40778571Y-17771428D01*
X41302380Y-17771428D01*
X41302380Y-18676190D02*
X40778571Y-18676190D01*
X40683333Y-18628571D01*
X40635714Y-18533333D01*
X40635714Y-18342857D01*
X40683333Y-18247619D01*
X41254761Y-18676190D02*
X41302380Y-18580952D01*
X41302380Y-18342857D01*
X41254761Y-18247619D01*
X41159523Y-18200000D01*
X41064285Y-18200000D01*
X40969047Y-18247619D01*
X40921428Y-18342857D01*
X40921428Y-18580952D01*
X40873809Y-18676190D01*
X41302380Y-19295238D02*
X41254761Y-19200000D01*
X41159523Y-19152380D01*
X40302380Y-19152380D01*
X41254761Y-20057142D02*
X41302380Y-19961904D01*
X41302380Y-19771428D01*
X41254761Y-19676190D01*
X41159523Y-19628571D01*
X40778571Y-19628571D01*
X40683333Y-19676190D01*
X40635714Y-19771428D01*
X40635714Y-19961904D01*
X40683333Y-20057142D01*
X40778571Y-20104761D01*
X40873809Y-20104761D01*
X40969047Y-19628571D01*
X47323333Y-12152380D02*
X47323333Y-12866666D01*
X47370952Y-13009523D01*
X47466190Y-13104761D01*
X47609047Y-13152380D01*
X47704285Y-13152380D01*
X46942380Y-12152380D02*
X46323333Y-12152380D01*
X46656666Y-12533333D01*
X46513809Y-12533333D01*
X46418571Y-12580952D01*
X46370952Y-12628571D01*
X46323333Y-12723809D01*
X46323333Y-12961904D01*
X46370952Y-13057142D01*
X46418571Y-13104761D01*
X46513809Y-13152380D01*
X46799523Y-13152380D01*
X46894761Y-13104761D01*
X46942380Y-13057142D01*
G04 #@! TO.C,J19*
X47495714Y-14378571D02*
X47829047Y-14378571D01*
X47829047Y-14902380D02*
X47829047Y-13902380D01*
X47352857Y-13902380D01*
X47114761Y-13902380D02*
X46543333Y-13902380D01*
X46829047Y-14902380D02*
X46829047Y-13902380D01*
X46210000Y-14902380D02*
X46210000Y-13902380D01*
X45971904Y-13902380D01*
X45829047Y-13950000D01*
X45733809Y-14045238D01*
X45686190Y-14140476D01*
X45638571Y-14330952D01*
X45638571Y-14473809D01*
X45686190Y-14664285D01*
X45733809Y-14759523D01*
X45829047Y-14854761D01*
X45971904Y-14902380D01*
X46210000Y-14902380D01*
X45210000Y-14902380D02*
X45210000Y-13902380D01*
X44971904Y-14997619D02*
X44210000Y-14997619D01*
X44019523Y-14616666D02*
X43543333Y-14616666D01*
X44114761Y-14902380D02*
X43781428Y-13902380D01*
X43448095Y-14902380D01*
X43114761Y-13902380D02*
X43114761Y-14711904D01*
X43067142Y-14807142D01*
X43019523Y-14854761D01*
X42924285Y-14902380D01*
X42733809Y-14902380D01*
X42638571Y-14854761D01*
X42590952Y-14807142D01*
X42543333Y-14711904D01*
X42543333Y-13902380D01*
X42162380Y-13902380D02*
X41495714Y-14902380D01*
X41495714Y-13902380D02*
X42162380Y-14902380D01*
X45259523Y-15962380D02*
X45259523Y-16676666D01*
X45307142Y-16819523D01*
X45402380Y-16914761D01*
X45545238Y-16962380D01*
X45640476Y-16962380D01*
X44259523Y-16962380D02*
X44830952Y-16962380D01*
X44545238Y-16962380D02*
X44545238Y-15962380D01*
X44640476Y-16105238D01*
X44735714Y-16200476D01*
X44830952Y-16248095D01*
X43783333Y-16962380D02*
X43592857Y-16962380D01*
X43497619Y-16914761D01*
X43450000Y-16867142D01*
X43354761Y-16724285D01*
X43307142Y-16533809D01*
X43307142Y-16152857D01*
X43354761Y-16057619D01*
X43402380Y-16010000D01*
X43497619Y-15962380D01*
X43688095Y-15962380D01*
X43783333Y-16010000D01*
X43830952Y-16057619D01*
X43878571Y-16152857D01*
X43878571Y-16390952D01*
X43830952Y-16486190D01*
X43783333Y-16533809D01*
X43688095Y-16581428D01*
X43497619Y-16581428D01*
X43402380Y-16533809D01*
X43354761Y-16486190D01*
X43307142Y-16390952D01*
G04 #@! TO.C,R13*
X42400000Y-21785714D02*
X42400000Y-22452380D01*
X42638095Y-21404761D02*
X42876190Y-22119047D01*
X42257142Y-22119047D01*
X41971428Y-21452380D02*
X41304761Y-21452380D01*
X41733333Y-22452380D01*
X40923809Y-22357142D02*
X40876190Y-22404761D01*
X40923809Y-22452380D01*
X40971428Y-22404761D01*
X40923809Y-22357142D01*
X40923809Y-22452380D01*
X39971428Y-21452380D02*
X40447619Y-21452380D01*
X40495238Y-21928571D01*
X40447619Y-21880952D01*
X40352380Y-21833333D01*
X40114285Y-21833333D01*
X40019047Y-21880952D01*
X39971428Y-21928571D01*
X39923809Y-22023809D01*
X39923809Y-22261904D01*
X39971428Y-22357142D01*
X40019047Y-22404761D01*
X40114285Y-22452380D01*
X40352380Y-22452380D01*
X40447619Y-22404761D01*
X40495238Y-22357142D01*
X39495238Y-22452380D02*
X39495238Y-21452380D01*
X38923809Y-22452380D02*
X39352380Y-21880952D01*
X38923809Y-21452380D02*
X39495238Y-22023809D01*
D12*
X48252857Y-22105714D02*
X48492857Y-21762857D01*
X48664285Y-22105714D02*
X48664285Y-21385714D01*
X48390000Y-21385714D01*
X48321428Y-21420000D01*
X48287142Y-21454285D01*
X48252857Y-21522857D01*
X48252857Y-21625714D01*
X48287142Y-21694285D01*
X48321428Y-21728571D01*
X48390000Y-21762857D01*
X48664285Y-21762857D01*
X47567142Y-22105714D02*
X47978571Y-22105714D01*
X47772857Y-22105714D02*
X47772857Y-21385714D01*
X47841428Y-21488571D01*
X47910000Y-21557142D01*
X47978571Y-21591428D01*
X47327142Y-21385714D02*
X46881428Y-21385714D01*
X47121428Y-21660000D01*
X47018571Y-21660000D01*
X46950000Y-21694285D01*
X46915714Y-21728571D01*
X46881428Y-21797142D01*
X46881428Y-21968571D01*
X46915714Y-22037142D01*
X46950000Y-22071428D01*
X47018571Y-22105714D01*
X47224285Y-22105714D01*
X47292857Y-22071428D01*
X47327142Y-22037142D01*
G04 #@! TO.C,R12*
D11*
X42876190Y-23047619D02*
X42828571Y-23000000D01*
X42733333Y-22952380D01*
X42495238Y-22952380D01*
X42400000Y-23000000D01*
X42352380Y-23047619D01*
X42304761Y-23142857D01*
X42304761Y-23238095D01*
X42352380Y-23380952D01*
X42923809Y-23952380D01*
X42304761Y-23952380D01*
X41923809Y-23047619D02*
X41876190Y-23000000D01*
X41780952Y-22952380D01*
X41542857Y-22952380D01*
X41447619Y-23000000D01*
X41400000Y-23047619D01*
X41352380Y-23142857D01*
X41352380Y-23238095D01*
X41400000Y-23380952D01*
X41971428Y-23952380D01*
X41352380Y-23952380D01*
X40923809Y-23857142D02*
X40876190Y-23904761D01*
X40923809Y-23952380D01*
X40971428Y-23904761D01*
X40923809Y-23857142D01*
X40923809Y-23952380D01*
X39923809Y-23952380D02*
X40495238Y-23952380D01*
X40209523Y-23952380D02*
X40209523Y-22952380D01*
X40304761Y-23095238D01*
X40400000Y-23190476D01*
X40495238Y-23238095D01*
X39495238Y-23952380D02*
X39495238Y-22952380D01*
X38923809Y-23952380D02*
X39352380Y-23380952D01*
X38923809Y-22952380D02*
X39495238Y-23523809D01*
D12*
X48252857Y-24645714D02*
X48492857Y-24302857D01*
X48664285Y-24645714D02*
X48664285Y-23925714D01*
X48390000Y-23925714D01*
X48321428Y-23960000D01*
X48287142Y-23994285D01*
X48252857Y-24062857D01*
X48252857Y-24165714D01*
X48287142Y-24234285D01*
X48321428Y-24268571D01*
X48390000Y-24302857D01*
X48664285Y-24302857D01*
X47567142Y-24645714D02*
X47978571Y-24645714D01*
X47772857Y-24645714D02*
X47772857Y-23925714D01*
X47841428Y-24028571D01*
X47910000Y-24097142D01*
X47978571Y-24131428D01*
X47292857Y-23994285D02*
X47258571Y-23960000D01*
X47190000Y-23925714D01*
X47018571Y-23925714D01*
X46950000Y-23960000D01*
X46915714Y-23994285D01*
X46881428Y-24062857D01*
X46881428Y-24131428D01*
X46915714Y-24234285D01*
X47327142Y-24645714D01*
X46881428Y-24645714D01*
G04 #@! TD*
M02*
