M48
;DRILL file {KiCad (5.0.1)-4} date 26/08/2019 10:27:18
;FORMAT={-:-/ absolute / metric / decimal}
FMAT,2
METRIC,TZ
T1C0.300
T2C0.700
T3C0.920
T4C1.000
T5C2.330
%
G90
G05
M71
T1
X37.857Y-23.761
X39.5Y-32.362
X40.048Y-31.832
X40.603Y-36.755
X40.679Y-47.483
X41.286Y-46.951
X42.282Y-30.879
X42.434Y-21.535
X43.035Y-32.545
X43.35Y-29.171
X43.512Y-42.829
X43.801Y-32.537
X43.932Y-37.032
X44.096Y-43.242
X44.436Y-31.315
X44.93Y-39.959
X45.182Y-30.635
X45.72Y-18.397
X46.491Y-31.352
X46.527Y-37.88
X46.64Y-39.147
X46.958Y-38.455
X47.087Y-30.49
X47.284Y-39.704
X47.804Y-31.01
X47.98Y-38.262
X48.667Y-36.66
X48.959Y-29.544
X49.463Y-29.034
X50.118Y-29.46
X50.81Y-39.5
X51.654Y-49.197
T2
X43.98Y-24.32
X51.6Y-24.32
X43.98Y-21.78
X51.6Y-21.78
T3
X44.45Y-49.53
X44.45Y-51.53
X46.95Y-49.53
X46.95Y-51.53
T4
X38.1Y-25.4
X38.1Y-27.94
X38.1Y-30.48
X38.1Y-33.02
X38.1Y-35.56
X38.1Y-38.1
X38.1Y-40.64
X38.1Y-43.18
X38.1Y-45.72
X53.34Y-27.94
X53.34Y-30.48
X53.34Y-33.02
X53.34Y-35.56
X53.34Y-38.1
X53.34Y-40.64
X53.34Y-43.18
X53.34Y-45.72
X43.18Y-12.7
X45.72Y-12.7
X48.26Y-12.7
X50.8Y-12.7
X38.1Y-16.51
X40.64Y-16.51
X43.18Y-16.51
X45.72Y-16.51
X48.26Y-16.51
X50.8Y-16.51
X38.1Y-12.7
X40.64Y-12.7
T5
X39.68Y-54.24
X51.72Y-54.24
T0
M30
