G04 #@! TF.GenerationSoftware,KiCad,Pcbnew,(5.0.1)-4*
G04 #@! TF.CreationDate,2019-08-26T10:27:06+03:00*
G04 #@! TF.ProjectId,CP2102-breakout,4350323130322D627265616B6F75742E,rev?*
G04 #@! TF.SameCoordinates,Original*
G04 #@! TF.FileFunction,Soldermask,Top*
G04 #@! TF.FilePolarity,Negative*
%FSLAX46Y46*%
G04 Gerber Fmt 4.6, Leading zero omitted, Abs format (unit mm)*
G04 Created by KiCad (PCBNEW (5.0.1)-4) date 26/08/2019 10:27:06*
%MOMM*%
%LPD*%
G01*
G04 APERTURE LIST*
%ADD10C,0.150000*%
%ADD11C,0.100000*%
G04 APERTURE END LIST*
D10*
G36*
X47200000Y-44787500D02*
X49850000Y-44500000D01*
X49850000Y-42300000D01*
X47200000Y-42612500D01*
X47200000Y-44787500D01*
G37*
X47200000Y-44787500D02*
X49850000Y-44500000D01*
X49850000Y-42300000D01*
X47200000Y-42612500D01*
X47200000Y-44787500D01*
D11*
G36*
X45666000Y-56746000D02*
X44164000Y-56746000D01*
X44164000Y-55644000D01*
X45666000Y-55644000D01*
X45666000Y-56746000D01*
X45666000Y-56746000D01*
G37*
G36*
X43466000Y-56746000D02*
X41964000Y-56746000D01*
X41964000Y-55644000D01*
X43466000Y-55644000D01*
X43466000Y-56746000D01*
X43466000Y-56746000D01*
G37*
G36*
X40205331Y-52508211D02*
X40533092Y-52643974D01*
X40828073Y-52841074D01*
X41078926Y-53091927D01*
X41276026Y-53386908D01*
X41411789Y-53714669D01*
X41481000Y-54062616D01*
X41481000Y-54417384D01*
X41411789Y-54765331D01*
X41276026Y-55093092D01*
X41078926Y-55388073D01*
X40828073Y-55638926D01*
X40533092Y-55836026D01*
X40205331Y-55971789D01*
X39857384Y-56041000D01*
X39502616Y-56041000D01*
X39154669Y-55971789D01*
X38826908Y-55836026D01*
X38531927Y-55638926D01*
X38281074Y-55388073D01*
X38083974Y-55093092D01*
X37948211Y-54765331D01*
X37879000Y-54417384D01*
X37879000Y-54062616D01*
X37948211Y-53714669D01*
X38083974Y-53386908D01*
X38281074Y-53091927D01*
X38531927Y-52841074D01*
X38826908Y-52643974D01*
X39154669Y-52508211D01*
X39502616Y-52439000D01*
X39857384Y-52439000D01*
X40205331Y-52508211D01*
X40205331Y-52508211D01*
G37*
G36*
X52245331Y-52508211D02*
X52573092Y-52643974D01*
X52868073Y-52841074D01*
X53118926Y-53091927D01*
X53316026Y-53386908D01*
X53451789Y-53714669D01*
X53521000Y-54062616D01*
X53521000Y-54417384D01*
X53451789Y-54765331D01*
X53316026Y-55093092D01*
X53118926Y-55388073D01*
X52868073Y-55638926D01*
X52573092Y-55836026D01*
X52245331Y-55971789D01*
X51897384Y-56041000D01*
X51542616Y-56041000D01*
X51194669Y-55971789D01*
X50866908Y-55836026D01*
X50571927Y-55638926D01*
X50321074Y-55388073D01*
X50123974Y-55093092D01*
X49988211Y-54765331D01*
X49919000Y-54417384D01*
X49919000Y-54062616D01*
X49988211Y-53714669D01*
X50123974Y-53386908D01*
X50321074Y-53091927D01*
X50571927Y-52841074D01*
X50866908Y-52643974D01*
X51194669Y-52508211D01*
X51542616Y-52439000D01*
X51897384Y-52439000D01*
X52245331Y-52508211D01*
X52245331Y-52508211D01*
G37*
G36*
X43466000Y-55126000D02*
X41964000Y-55126000D01*
X41964000Y-53824000D01*
X43466000Y-53824000D01*
X43466000Y-55126000D01*
X43466000Y-55126000D01*
G37*
G36*
X45666000Y-54846000D02*
X44164000Y-54846000D01*
X44164000Y-53744000D01*
X45666000Y-53744000D01*
X45666000Y-54846000D01*
X45666000Y-54846000D01*
G37*
G36*
X45351000Y-50431000D02*
X44779622Y-50431000D01*
X44755236Y-50433402D01*
X44731787Y-50440515D01*
X44710176Y-50452066D01*
X44691234Y-50467612D01*
X44675688Y-50486554D01*
X44664137Y-50508165D01*
X44657024Y-50531614D01*
X44654622Y-50556000D01*
X44657024Y-50580386D01*
X44664137Y-50603835D01*
X44675688Y-50625446D01*
X44691234Y-50644388D01*
X44710176Y-50659934D01*
X44731777Y-50671480D01*
X44876784Y-50731544D01*
X45024354Y-50830147D01*
X45149853Y-50955646D01*
X45248456Y-51103216D01*
X45316376Y-51267188D01*
X45351000Y-51441259D01*
X45351000Y-51618741D01*
X45316376Y-51792812D01*
X45248456Y-51956784D01*
X45149853Y-52104354D01*
X45024354Y-52229853D01*
X44876784Y-52328456D01*
X44712812Y-52396376D01*
X44538741Y-52431000D01*
X44361259Y-52431000D01*
X44187188Y-52396376D01*
X44023216Y-52328456D01*
X43875646Y-52229853D01*
X43750147Y-52104354D01*
X43651544Y-51956784D01*
X43583624Y-51792812D01*
X43549000Y-51618741D01*
X43549000Y-51441259D01*
X43583624Y-51267188D01*
X43651544Y-51103216D01*
X43750147Y-50955646D01*
X43875646Y-50830147D01*
X44023216Y-50731544D01*
X44168223Y-50671480D01*
X44189824Y-50659934D01*
X44208766Y-50644388D01*
X44224312Y-50625446D01*
X44235863Y-50603835D01*
X44242976Y-50580386D01*
X44245378Y-50556000D01*
X44242976Y-50531614D01*
X44235863Y-50508165D01*
X44224312Y-50486554D01*
X44208766Y-50467612D01*
X44189824Y-50452066D01*
X44168213Y-50440515D01*
X44144764Y-50433402D01*
X44120378Y-50431000D01*
X43549000Y-50431000D01*
X43549000Y-48629000D01*
X45351000Y-48629000D01*
X45351000Y-50431000D01*
X45351000Y-50431000D01*
G37*
G36*
X47212812Y-48663624D02*
X47376784Y-48731544D01*
X47524354Y-48830147D01*
X47649853Y-48955646D01*
X47748456Y-49103216D01*
X47816376Y-49267188D01*
X47851000Y-49441259D01*
X47851000Y-49618741D01*
X47816376Y-49792812D01*
X47748456Y-49956784D01*
X47649853Y-50104354D01*
X47524354Y-50229853D01*
X47376784Y-50328456D01*
X47212812Y-50396376D01*
X47157367Y-50407404D01*
X47133926Y-50414515D01*
X47112315Y-50426067D01*
X47093373Y-50441612D01*
X47077828Y-50460554D01*
X47066277Y-50482165D01*
X47059164Y-50505614D01*
X47056762Y-50530000D01*
X47059164Y-50554387D01*
X47066277Y-50577836D01*
X47077829Y-50599447D01*
X47093374Y-50618389D01*
X47112316Y-50633934D01*
X47133927Y-50645485D01*
X47157367Y-50652596D01*
X47212812Y-50663624D01*
X47376784Y-50731544D01*
X47524354Y-50830147D01*
X47649853Y-50955646D01*
X47748456Y-51103216D01*
X47816376Y-51267188D01*
X47851000Y-51441259D01*
X47851000Y-51618741D01*
X47816376Y-51792812D01*
X47748456Y-51956784D01*
X47649853Y-52104354D01*
X47524354Y-52229853D01*
X47376784Y-52328456D01*
X47212812Y-52396376D01*
X47038741Y-52431000D01*
X46861259Y-52431000D01*
X46687188Y-52396376D01*
X46523216Y-52328456D01*
X46375646Y-52229853D01*
X46250147Y-52104354D01*
X46151544Y-51956784D01*
X46083624Y-51792812D01*
X46049000Y-51618741D01*
X46049000Y-51441259D01*
X46083624Y-51267188D01*
X46151544Y-51103216D01*
X46250147Y-50955646D01*
X46375646Y-50830147D01*
X46523216Y-50731544D01*
X46687188Y-50663624D01*
X46742633Y-50652596D01*
X46766074Y-50645485D01*
X46787685Y-50633933D01*
X46806627Y-50618388D01*
X46822172Y-50599446D01*
X46833723Y-50577835D01*
X46840836Y-50554386D01*
X46843238Y-50530000D01*
X46840836Y-50505613D01*
X46833723Y-50482164D01*
X46822171Y-50460553D01*
X46806626Y-50441611D01*
X46787684Y-50426066D01*
X46766073Y-50414515D01*
X46742633Y-50407404D01*
X46687188Y-50396376D01*
X46523216Y-50328456D01*
X46375646Y-50229853D01*
X46250147Y-50104354D01*
X46151544Y-49956784D01*
X46083624Y-49792812D01*
X46049000Y-49618741D01*
X46049000Y-49441259D01*
X46083624Y-49267188D01*
X46151544Y-49103216D01*
X46250147Y-48955646D01*
X46375646Y-48830147D01*
X46523216Y-48731544D01*
X46687188Y-48663624D01*
X46861259Y-48629000D01*
X47038741Y-48629000D01*
X47212812Y-48663624D01*
X47212812Y-48663624D01*
G37*
G36*
X50786000Y-51491000D02*
X49464000Y-51491000D01*
X49464000Y-48839000D01*
X50786000Y-48839000D01*
X50786000Y-51491000D01*
X50786000Y-51491000D01*
G37*
G36*
X53406000Y-51491000D02*
X52084000Y-51491000D01*
X52084000Y-50739000D01*
X53406000Y-50739000D01*
X53406000Y-51491000D01*
X53406000Y-51491000D01*
G37*
G36*
X38079591Y-50253085D02*
X38113569Y-50263393D01*
X38144887Y-50280133D01*
X38172339Y-50302661D01*
X38194867Y-50330113D01*
X38211607Y-50361431D01*
X38221915Y-50395409D01*
X38226000Y-50436890D01*
X38226000Y-51038110D01*
X38221915Y-51079591D01*
X38211607Y-51113569D01*
X38194867Y-51144887D01*
X38172339Y-51172339D01*
X38144887Y-51194867D01*
X38113569Y-51211607D01*
X38079591Y-51221915D01*
X38038110Y-51226000D01*
X37361890Y-51226000D01*
X37320409Y-51221915D01*
X37286431Y-51211607D01*
X37255113Y-51194867D01*
X37227661Y-51172339D01*
X37205133Y-51144887D01*
X37188393Y-51113569D01*
X37178085Y-51079591D01*
X37174000Y-51038110D01*
X37174000Y-50436890D01*
X37178085Y-50395409D01*
X37188393Y-50361431D01*
X37205133Y-50330113D01*
X37227661Y-50302661D01*
X37255113Y-50280133D01*
X37286431Y-50263393D01*
X37320409Y-50253085D01*
X37361890Y-50249000D01*
X38038110Y-50249000D01*
X38079591Y-50253085D01*
X38079591Y-50253085D01*
G37*
G36*
X40166000Y-51051000D02*
X38844000Y-51051000D01*
X38844000Y-48399000D01*
X40166000Y-48399000D01*
X40166000Y-51051000D01*
X40166000Y-51051000D01*
G37*
G36*
X42786000Y-51051000D02*
X41464000Y-51051000D01*
X41464000Y-50299000D01*
X42786000Y-50299000D01*
X42786000Y-51051000D01*
X42786000Y-51051000D01*
G37*
G36*
X38079591Y-48678085D02*
X38113569Y-48688393D01*
X38144887Y-48705133D01*
X38172339Y-48727661D01*
X38194867Y-48755113D01*
X38211607Y-48786431D01*
X38221915Y-48820409D01*
X38226000Y-48861890D01*
X38226000Y-49463110D01*
X38221915Y-49504591D01*
X38211607Y-49538569D01*
X38194867Y-49569887D01*
X38172339Y-49597339D01*
X38144887Y-49619867D01*
X38113569Y-49636607D01*
X38079591Y-49646915D01*
X38038110Y-49651000D01*
X37361890Y-49651000D01*
X37320409Y-49646915D01*
X37286431Y-49636607D01*
X37255113Y-49619867D01*
X37227661Y-49597339D01*
X37205133Y-49569887D01*
X37188393Y-49538569D01*
X37178085Y-49504591D01*
X37174000Y-49463110D01*
X37174000Y-48861890D01*
X37178085Y-48820409D01*
X37188393Y-48786431D01*
X37205133Y-48755113D01*
X37227661Y-48727661D01*
X37255113Y-48705133D01*
X37286431Y-48688393D01*
X37320409Y-48678085D01*
X37361890Y-48674000D01*
X38038110Y-48674000D01*
X38079591Y-48678085D01*
X38079591Y-48678085D01*
G37*
G36*
X53406000Y-49591000D02*
X52084000Y-49591000D01*
X52084000Y-48839000D01*
X53406000Y-48839000D01*
X53406000Y-49591000D01*
X53406000Y-49591000D01*
G37*
G36*
X42786000Y-49151000D02*
X41464000Y-49151000D01*
X41464000Y-48399000D01*
X42786000Y-48399000D01*
X42786000Y-49151000D01*
X42786000Y-49151000D01*
G37*
G36*
X43101000Y-47001000D02*
X42099000Y-47001000D01*
X42099000Y-46099000D01*
X43101000Y-46099000D01*
X43101000Y-47001000D01*
X43101000Y-47001000D01*
G37*
G36*
X39001000Y-46621000D02*
X37199000Y-46621000D01*
X37199000Y-44819000D01*
X39001000Y-44819000D01*
X39001000Y-46621000D01*
X39001000Y-46621000D01*
G37*
G36*
X53450442Y-44825518D02*
X53516627Y-44832037D01*
X53629853Y-44866384D01*
X53686467Y-44883557D01*
X53825087Y-44957652D01*
X53842991Y-44967222D01*
X53878729Y-44996552D01*
X53980186Y-45079814D01*
X54063448Y-45181271D01*
X54092778Y-45217009D01*
X54092779Y-45217011D01*
X54176443Y-45373533D01*
X54176443Y-45373534D01*
X54227963Y-45543373D01*
X54245359Y-45720000D01*
X54227963Y-45896627D01*
X54193616Y-46009853D01*
X54176443Y-46066467D01*
X54159053Y-46099000D01*
X54092778Y-46222991D01*
X54063448Y-46258729D01*
X53980186Y-46360186D01*
X53878729Y-46443448D01*
X53842991Y-46472778D01*
X53842989Y-46472779D01*
X53686467Y-46556443D01*
X53629853Y-46573616D01*
X53516627Y-46607963D01*
X53450442Y-46614482D01*
X53384260Y-46621000D01*
X53295740Y-46621000D01*
X53229558Y-46614482D01*
X53163373Y-46607963D01*
X53050147Y-46573616D01*
X52993533Y-46556443D01*
X52837011Y-46472779D01*
X52837009Y-46472778D01*
X52801271Y-46443448D01*
X52699814Y-46360186D01*
X52616552Y-46258729D01*
X52587222Y-46222991D01*
X52520947Y-46099000D01*
X52503557Y-46066467D01*
X52486384Y-46009853D01*
X52452037Y-45896627D01*
X52434641Y-45720000D01*
X52452037Y-45543373D01*
X52503557Y-45373534D01*
X52503557Y-45373533D01*
X52587221Y-45217011D01*
X52587222Y-45217009D01*
X52616552Y-45181271D01*
X52699814Y-45079814D01*
X52801271Y-44996552D01*
X52837009Y-44967222D01*
X52854913Y-44957652D01*
X52993533Y-44883557D01*
X53050147Y-44866384D01*
X53163373Y-44832037D01*
X53229558Y-44825518D01*
X53295740Y-44819000D01*
X53384260Y-44819000D01*
X53450442Y-44825518D01*
X53450442Y-44825518D01*
G37*
G36*
X41101000Y-46051000D02*
X40099000Y-46051000D01*
X40099000Y-45149000D01*
X41101000Y-45149000D01*
X41101000Y-46051000D01*
X41101000Y-46051000D01*
G37*
G36*
X43101000Y-45101000D02*
X42099000Y-45101000D01*
X42099000Y-44199000D01*
X43101000Y-44199000D01*
X43101000Y-45101000D01*
X43101000Y-45101000D01*
G37*
G36*
X38210442Y-42285518D02*
X38276627Y-42292037D01*
X38389853Y-42326384D01*
X38446467Y-42343557D01*
X38585087Y-42417652D01*
X38602991Y-42427222D01*
X38638729Y-42456552D01*
X38740186Y-42539814D01*
X38814308Y-42630133D01*
X38852778Y-42677009D01*
X38852779Y-42677011D01*
X38936443Y-42833533D01*
X38953616Y-42890147D01*
X38987963Y-43003373D01*
X39005359Y-43180000D01*
X38987963Y-43356627D01*
X38959314Y-43451069D01*
X38936443Y-43526467D01*
X38862348Y-43665087D01*
X38852778Y-43682991D01*
X38823448Y-43718729D01*
X38740186Y-43820186D01*
X38638729Y-43903448D01*
X38602991Y-43932778D01*
X38602989Y-43932779D01*
X38446467Y-44016443D01*
X38389853Y-44033616D01*
X38276627Y-44067963D01*
X38210443Y-44074481D01*
X38144260Y-44081000D01*
X38055740Y-44081000D01*
X37989557Y-44074481D01*
X37923373Y-44067963D01*
X37810147Y-44033616D01*
X37753533Y-44016443D01*
X37597011Y-43932779D01*
X37597009Y-43932778D01*
X37561271Y-43903448D01*
X37459814Y-43820186D01*
X37376552Y-43718729D01*
X37347222Y-43682991D01*
X37337652Y-43665087D01*
X37263557Y-43526467D01*
X37240686Y-43451069D01*
X37212037Y-43356627D01*
X37194641Y-43180000D01*
X37212037Y-43003373D01*
X37246384Y-42890147D01*
X37263557Y-42833533D01*
X37347221Y-42677011D01*
X37347222Y-42677009D01*
X37385692Y-42630133D01*
X37459814Y-42539814D01*
X37561271Y-42456552D01*
X37597009Y-42427222D01*
X37614913Y-42417652D01*
X37753533Y-42343557D01*
X37810147Y-42326384D01*
X37923373Y-42292037D01*
X37989558Y-42285518D01*
X38055740Y-42279000D01*
X38144260Y-42279000D01*
X38210442Y-42285518D01*
X38210442Y-42285518D01*
G37*
G36*
X53450442Y-42285518D02*
X53516627Y-42292037D01*
X53629853Y-42326384D01*
X53686467Y-42343557D01*
X53825087Y-42417652D01*
X53842991Y-42427222D01*
X53878729Y-42456552D01*
X53980186Y-42539814D01*
X54054308Y-42630133D01*
X54092778Y-42677009D01*
X54092779Y-42677011D01*
X54176443Y-42833533D01*
X54193616Y-42890147D01*
X54227963Y-43003373D01*
X54245359Y-43180000D01*
X54227963Y-43356627D01*
X54199314Y-43451069D01*
X54176443Y-43526467D01*
X54102348Y-43665087D01*
X54092778Y-43682991D01*
X54063448Y-43718729D01*
X53980186Y-43820186D01*
X53878729Y-43903448D01*
X53842991Y-43932778D01*
X53842989Y-43932779D01*
X53686467Y-44016443D01*
X53629853Y-44033616D01*
X53516627Y-44067963D01*
X53450443Y-44074481D01*
X53384260Y-44081000D01*
X53295740Y-44081000D01*
X53229557Y-44074481D01*
X53163373Y-44067963D01*
X53050147Y-44033616D01*
X52993533Y-44016443D01*
X52837011Y-43932779D01*
X52837009Y-43932778D01*
X52801271Y-43903448D01*
X52699814Y-43820186D01*
X52616552Y-43718729D01*
X52587222Y-43682991D01*
X52577652Y-43665087D01*
X52503557Y-43526467D01*
X52480686Y-43451069D01*
X52452037Y-43356627D01*
X52434641Y-43180000D01*
X52452037Y-43003373D01*
X52486384Y-42890147D01*
X52503557Y-42833533D01*
X52587221Y-42677011D01*
X52587222Y-42677009D01*
X52625692Y-42630133D01*
X52699814Y-42539814D01*
X52801271Y-42456552D01*
X52837009Y-42427222D01*
X52854913Y-42417652D01*
X52993533Y-42343557D01*
X53050147Y-42326384D01*
X53163373Y-42292037D01*
X53229558Y-42285518D01*
X53295740Y-42279000D01*
X53384260Y-42279000D01*
X53450442Y-42285518D01*
X53450442Y-42285518D01*
G37*
G36*
X42979591Y-42603085D02*
X43013569Y-42613393D01*
X43044887Y-42630133D01*
X43072339Y-42652661D01*
X43094867Y-42680113D01*
X43111607Y-42711431D01*
X43121915Y-42745409D01*
X43126000Y-42786890D01*
X43126000Y-43388110D01*
X43121915Y-43429591D01*
X43111607Y-43463569D01*
X43094867Y-43494887D01*
X43072339Y-43522339D01*
X43044887Y-43544867D01*
X43013569Y-43561607D01*
X42979591Y-43571915D01*
X42938110Y-43576000D01*
X42261890Y-43576000D01*
X42220409Y-43571915D01*
X42186431Y-43561607D01*
X42155113Y-43544867D01*
X42127661Y-43522339D01*
X42105133Y-43494887D01*
X42088393Y-43463569D01*
X42078085Y-43429591D01*
X42074000Y-43388110D01*
X42074000Y-42786890D01*
X42078085Y-42745409D01*
X42088393Y-42711431D01*
X42105133Y-42680113D01*
X42127661Y-42652661D01*
X42155113Y-42630133D01*
X42186431Y-42613393D01*
X42220409Y-42603085D01*
X42261890Y-42599000D01*
X42938110Y-42599000D01*
X42979591Y-42603085D01*
X42979591Y-42603085D01*
G37*
G36*
X41079591Y-42590585D02*
X41113569Y-42600893D01*
X41144887Y-42617633D01*
X41172339Y-42640161D01*
X41194867Y-42667613D01*
X41211607Y-42698931D01*
X41221915Y-42732909D01*
X41226000Y-42774390D01*
X41226000Y-43375610D01*
X41221915Y-43417091D01*
X41211607Y-43451069D01*
X41194867Y-43482387D01*
X41172339Y-43509839D01*
X41144887Y-43532367D01*
X41113569Y-43549107D01*
X41079591Y-43559415D01*
X41038110Y-43563500D01*
X40361890Y-43563500D01*
X40320409Y-43559415D01*
X40286431Y-43549107D01*
X40255113Y-43532367D01*
X40227661Y-43509839D01*
X40205133Y-43482387D01*
X40188393Y-43451069D01*
X40178085Y-43417091D01*
X40174000Y-43375610D01*
X40174000Y-42774390D01*
X40178085Y-42732909D01*
X40188393Y-42698931D01*
X40205133Y-42667613D01*
X40227661Y-42640161D01*
X40255113Y-42617633D01*
X40286431Y-42600893D01*
X40320409Y-42590585D01*
X40361890Y-42586500D01*
X41038110Y-42586500D01*
X41079591Y-42590585D01*
X41079591Y-42590585D01*
G37*
G36*
X42979591Y-41028085D02*
X43013569Y-41038393D01*
X43044887Y-41055133D01*
X43072339Y-41077661D01*
X43094867Y-41105113D01*
X43111607Y-41136431D01*
X43121915Y-41170409D01*
X43126000Y-41211890D01*
X43126000Y-41813110D01*
X43121915Y-41854591D01*
X43111607Y-41888569D01*
X43094867Y-41919887D01*
X43072339Y-41947339D01*
X43044887Y-41969867D01*
X43013569Y-41986607D01*
X42979591Y-41996915D01*
X42938110Y-42001000D01*
X42261890Y-42001000D01*
X42220409Y-41996915D01*
X42186431Y-41986607D01*
X42155113Y-41969867D01*
X42127661Y-41947339D01*
X42105133Y-41919887D01*
X42088393Y-41888569D01*
X42078085Y-41854591D01*
X42074000Y-41813110D01*
X42074000Y-41211890D01*
X42078085Y-41170409D01*
X42088393Y-41136431D01*
X42105133Y-41105113D01*
X42127661Y-41077661D01*
X42155113Y-41055133D01*
X42186431Y-41038393D01*
X42220409Y-41028085D01*
X42261890Y-41024000D01*
X42938110Y-41024000D01*
X42979591Y-41028085D01*
X42979591Y-41028085D01*
G37*
G36*
X41079591Y-41015585D02*
X41113569Y-41025893D01*
X41144887Y-41042633D01*
X41172339Y-41065161D01*
X41194867Y-41092613D01*
X41211607Y-41123931D01*
X41221915Y-41157909D01*
X41226000Y-41199390D01*
X41226000Y-41800610D01*
X41221915Y-41842091D01*
X41211607Y-41876069D01*
X41194867Y-41907387D01*
X41172339Y-41934839D01*
X41144887Y-41957367D01*
X41113569Y-41974107D01*
X41079591Y-41984415D01*
X41038110Y-41988500D01*
X40361890Y-41988500D01*
X40320409Y-41984415D01*
X40286431Y-41974107D01*
X40255113Y-41957367D01*
X40227661Y-41934839D01*
X40205133Y-41907387D01*
X40188393Y-41876069D01*
X40178085Y-41842091D01*
X40174000Y-41800610D01*
X40174000Y-41199390D01*
X40178085Y-41157909D01*
X40188393Y-41123931D01*
X40205133Y-41092613D01*
X40227661Y-41065161D01*
X40255113Y-41042633D01*
X40286431Y-41025893D01*
X40320409Y-41015585D01*
X40361890Y-41011500D01*
X41038110Y-41011500D01*
X41079591Y-41015585D01*
X41079591Y-41015585D01*
G37*
G36*
X38210442Y-39745518D02*
X38276627Y-39752037D01*
X38389853Y-39786384D01*
X38446467Y-39803557D01*
X38585087Y-39877652D01*
X38602991Y-39887222D01*
X38638729Y-39916552D01*
X38740186Y-39999814D01*
X38823448Y-40101271D01*
X38852778Y-40137009D01*
X38852779Y-40137011D01*
X38936443Y-40293533D01*
X38936443Y-40293534D01*
X38987963Y-40463373D01*
X39005359Y-40640000D01*
X38987963Y-40816627D01*
X38953616Y-40929853D01*
X38936443Y-40986467D01*
X38894378Y-41065164D01*
X38852778Y-41142991D01*
X38840535Y-41157909D01*
X38740186Y-41280186D01*
X38638729Y-41363448D01*
X38602991Y-41392778D01*
X38602989Y-41392779D01*
X38446467Y-41476443D01*
X38389853Y-41493616D01*
X38276627Y-41527963D01*
X38210442Y-41534482D01*
X38144260Y-41541000D01*
X38055740Y-41541000D01*
X37989558Y-41534482D01*
X37923373Y-41527963D01*
X37810147Y-41493616D01*
X37753533Y-41476443D01*
X37597011Y-41392779D01*
X37597009Y-41392778D01*
X37561271Y-41363448D01*
X37459814Y-41280186D01*
X37359465Y-41157909D01*
X37347222Y-41142991D01*
X37305622Y-41065164D01*
X37263557Y-40986467D01*
X37246384Y-40929853D01*
X37212037Y-40816627D01*
X37194641Y-40640000D01*
X37212037Y-40463373D01*
X37263557Y-40293534D01*
X37263557Y-40293533D01*
X37347221Y-40137011D01*
X37347222Y-40137009D01*
X37376552Y-40101271D01*
X37459814Y-39999814D01*
X37561271Y-39916552D01*
X37597009Y-39887222D01*
X37614913Y-39877652D01*
X37753533Y-39803557D01*
X37810147Y-39786384D01*
X37923373Y-39752037D01*
X37989558Y-39745518D01*
X38055740Y-39739000D01*
X38144260Y-39739000D01*
X38210442Y-39745518D01*
X38210442Y-39745518D01*
G37*
G36*
X53450442Y-39745518D02*
X53516627Y-39752037D01*
X53629853Y-39786384D01*
X53686467Y-39803557D01*
X53825087Y-39877652D01*
X53842991Y-39887222D01*
X53878729Y-39916552D01*
X53980186Y-39999814D01*
X54063448Y-40101271D01*
X54092778Y-40137009D01*
X54092779Y-40137011D01*
X54176443Y-40293533D01*
X54176443Y-40293534D01*
X54227963Y-40463373D01*
X54245359Y-40640000D01*
X54227963Y-40816627D01*
X54193616Y-40929853D01*
X54176443Y-40986467D01*
X54134378Y-41065164D01*
X54092778Y-41142991D01*
X54080535Y-41157909D01*
X53980186Y-41280186D01*
X53878729Y-41363448D01*
X53842991Y-41392778D01*
X53842989Y-41392779D01*
X53686467Y-41476443D01*
X53629853Y-41493616D01*
X53516627Y-41527963D01*
X53450442Y-41534482D01*
X53384260Y-41541000D01*
X53295740Y-41541000D01*
X53229558Y-41534482D01*
X53163373Y-41527963D01*
X53050147Y-41493616D01*
X52993533Y-41476443D01*
X52837011Y-41392779D01*
X52837009Y-41392778D01*
X52801271Y-41363448D01*
X52699814Y-41280186D01*
X52599465Y-41157909D01*
X52587222Y-41142991D01*
X52545622Y-41065164D01*
X52503557Y-40986467D01*
X52486384Y-40929853D01*
X52452037Y-40816627D01*
X52434641Y-40640000D01*
X52452037Y-40463373D01*
X52503557Y-40293534D01*
X52503557Y-40293533D01*
X52587221Y-40137011D01*
X52587222Y-40137009D01*
X52616552Y-40101271D01*
X52699814Y-39999814D01*
X52801271Y-39916552D01*
X52837009Y-39887222D01*
X52854913Y-39877652D01*
X52993533Y-39803557D01*
X53050147Y-39786384D01*
X53163373Y-39752037D01*
X53229558Y-39745518D01*
X53295740Y-39739000D01*
X53384260Y-39739000D01*
X53450442Y-39745518D01*
X53450442Y-39745518D01*
G37*
G36*
X43101000Y-40401000D02*
X42099000Y-40401000D01*
X42099000Y-39499000D01*
X43101000Y-39499000D01*
X43101000Y-40401000D01*
X43101000Y-40401000D01*
G37*
G36*
X41101000Y-39451000D02*
X40099000Y-39451000D01*
X40099000Y-38549000D01*
X41101000Y-38549000D01*
X41101000Y-39451000D01*
X41101000Y-39451000D01*
G37*
G36*
X53450442Y-37205518D02*
X53516627Y-37212037D01*
X53629853Y-37246384D01*
X53686467Y-37263557D01*
X53825087Y-37337652D01*
X53842991Y-37347222D01*
X53878729Y-37376552D01*
X53980186Y-37459814D01*
X54063448Y-37561271D01*
X54092778Y-37597009D01*
X54092779Y-37597011D01*
X54176443Y-37753533D01*
X54176443Y-37753534D01*
X54227963Y-37923373D01*
X54245359Y-38100000D01*
X54227963Y-38276627D01*
X54193616Y-38389853D01*
X54176443Y-38446467D01*
X54147294Y-38501000D01*
X54092778Y-38602991D01*
X54063448Y-38638729D01*
X53980186Y-38740186D01*
X53878729Y-38823448D01*
X53842991Y-38852778D01*
X53842989Y-38852779D01*
X53686467Y-38936443D01*
X53629853Y-38953616D01*
X53516627Y-38987963D01*
X53450443Y-38994481D01*
X53384260Y-39001000D01*
X53295740Y-39001000D01*
X53229557Y-38994481D01*
X53163373Y-38987963D01*
X53050147Y-38953616D01*
X52993533Y-38936443D01*
X52837011Y-38852779D01*
X52837009Y-38852778D01*
X52801271Y-38823448D01*
X52699814Y-38740186D01*
X52616552Y-38638729D01*
X52587222Y-38602991D01*
X52532706Y-38501000D01*
X52503557Y-38446467D01*
X52486384Y-38389853D01*
X52452037Y-38276627D01*
X52434641Y-38100000D01*
X52452037Y-37923373D01*
X52503557Y-37753534D01*
X52503557Y-37753533D01*
X52587221Y-37597011D01*
X52587222Y-37597009D01*
X52616552Y-37561271D01*
X52699814Y-37459814D01*
X52801271Y-37376552D01*
X52837009Y-37347222D01*
X52854913Y-37337652D01*
X52993533Y-37263557D01*
X53050147Y-37246384D01*
X53163373Y-37212037D01*
X53229558Y-37205518D01*
X53295740Y-37199000D01*
X53384260Y-37199000D01*
X53450442Y-37205518D01*
X53450442Y-37205518D01*
G37*
G36*
X38210442Y-37205518D02*
X38276627Y-37212037D01*
X38389853Y-37246384D01*
X38446467Y-37263557D01*
X38585087Y-37337652D01*
X38602991Y-37347222D01*
X38638729Y-37376552D01*
X38740186Y-37459814D01*
X38823448Y-37561271D01*
X38852778Y-37597009D01*
X38852779Y-37597011D01*
X38936443Y-37753533D01*
X38936443Y-37753534D01*
X38987963Y-37923373D01*
X39005359Y-38100000D01*
X38987963Y-38276627D01*
X38953616Y-38389853D01*
X38936443Y-38446467D01*
X38907294Y-38501000D01*
X38852778Y-38602991D01*
X38823448Y-38638729D01*
X38740186Y-38740186D01*
X38638729Y-38823448D01*
X38602991Y-38852778D01*
X38602989Y-38852779D01*
X38446467Y-38936443D01*
X38389853Y-38953616D01*
X38276627Y-38987963D01*
X38210443Y-38994481D01*
X38144260Y-39001000D01*
X38055740Y-39001000D01*
X37989557Y-38994481D01*
X37923373Y-38987963D01*
X37810147Y-38953616D01*
X37753533Y-38936443D01*
X37597011Y-38852779D01*
X37597009Y-38852778D01*
X37561271Y-38823448D01*
X37459814Y-38740186D01*
X37376552Y-38638729D01*
X37347222Y-38602991D01*
X37292706Y-38501000D01*
X37263557Y-38446467D01*
X37246384Y-38389853D01*
X37212037Y-38276627D01*
X37194641Y-38100000D01*
X37212037Y-37923373D01*
X37263557Y-37753534D01*
X37263557Y-37753533D01*
X37347221Y-37597011D01*
X37347222Y-37597009D01*
X37376552Y-37561271D01*
X37459814Y-37459814D01*
X37561271Y-37376552D01*
X37597009Y-37347222D01*
X37614913Y-37337652D01*
X37753533Y-37263557D01*
X37810147Y-37246384D01*
X37923373Y-37212037D01*
X37989558Y-37205518D01*
X38055740Y-37199000D01*
X38144260Y-37199000D01*
X38210442Y-37205518D01*
X38210442Y-37205518D01*
G37*
G36*
X43101000Y-38501000D02*
X42099000Y-38501000D01*
X42099000Y-37599000D01*
X43101000Y-37599000D01*
X43101000Y-38501000D01*
X43101000Y-38501000D01*
G37*
G36*
X44655357Y-36600083D02*
X44660028Y-36601500D01*
X44664330Y-36603800D01*
X44670705Y-36609031D01*
X44691080Y-36622644D01*
X44713719Y-36632020D01*
X44737753Y-36636800D01*
X44762257Y-36636799D01*
X44786291Y-36632017D01*
X44808929Y-36622639D01*
X44829295Y-36609031D01*
X44835670Y-36603800D01*
X44839972Y-36601500D01*
X44844643Y-36600083D01*
X44855641Y-36599000D01*
X45144359Y-36599000D01*
X45155357Y-36600083D01*
X45160028Y-36601500D01*
X45164330Y-36603800D01*
X45170705Y-36609031D01*
X45191080Y-36622644D01*
X45213719Y-36632020D01*
X45237753Y-36636800D01*
X45262257Y-36636799D01*
X45286291Y-36632017D01*
X45308929Y-36622639D01*
X45329295Y-36609031D01*
X45335670Y-36603800D01*
X45339972Y-36601500D01*
X45344643Y-36600083D01*
X45355641Y-36599000D01*
X45644359Y-36599000D01*
X45655357Y-36600083D01*
X45660028Y-36601500D01*
X45664330Y-36603800D01*
X45670705Y-36609031D01*
X45691080Y-36622644D01*
X45713719Y-36632020D01*
X45737753Y-36636800D01*
X45762257Y-36636799D01*
X45786291Y-36632017D01*
X45808929Y-36622639D01*
X45829295Y-36609031D01*
X45835670Y-36603800D01*
X45839972Y-36601500D01*
X45844643Y-36600083D01*
X45855641Y-36599000D01*
X46144359Y-36599000D01*
X46155357Y-36600083D01*
X46160028Y-36601500D01*
X46164330Y-36603800D01*
X46170705Y-36609031D01*
X46191080Y-36622644D01*
X46213719Y-36632020D01*
X46237753Y-36636800D01*
X46262257Y-36636799D01*
X46286291Y-36632017D01*
X46308929Y-36622639D01*
X46329295Y-36609031D01*
X46335670Y-36603800D01*
X46339972Y-36601500D01*
X46344643Y-36600083D01*
X46355641Y-36599000D01*
X46644359Y-36599000D01*
X46655357Y-36600083D01*
X46660028Y-36601500D01*
X46664330Y-36603800D01*
X46670705Y-36609031D01*
X46691080Y-36622644D01*
X46713719Y-36632020D01*
X46737753Y-36636800D01*
X46762257Y-36636799D01*
X46786291Y-36632017D01*
X46808929Y-36622639D01*
X46829295Y-36609031D01*
X46835670Y-36603800D01*
X46839972Y-36601500D01*
X46844643Y-36600083D01*
X46855641Y-36599000D01*
X47144359Y-36599000D01*
X47155357Y-36600083D01*
X47160028Y-36601500D01*
X47164330Y-36603800D01*
X47170705Y-36609031D01*
X47191080Y-36622644D01*
X47213719Y-36632020D01*
X47237753Y-36636800D01*
X47262257Y-36636799D01*
X47286291Y-36632017D01*
X47308929Y-36622639D01*
X47329295Y-36609031D01*
X47335670Y-36603800D01*
X47339972Y-36601500D01*
X47344643Y-36600083D01*
X47355641Y-36599000D01*
X47644359Y-36599000D01*
X47655357Y-36600083D01*
X47660028Y-36601500D01*
X47664330Y-36603800D01*
X47668104Y-36606896D01*
X47671200Y-36610670D01*
X47673500Y-36614972D01*
X47674917Y-36619643D01*
X47676000Y-36630641D01*
X47676000Y-37469359D01*
X47674917Y-37480357D01*
X47673500Y-37485028D01*
X47671200Y-37489330D01*
X47668104Y-37493104D01*
X47664330Y-37496200D01*
X47660028Y-37498500D01*
X47655357Y-37499917D01*
X47644359Y-37501000D01*
X47355641Y-37501000D01*
X47344643Y-37499917D01*
X47339972Y-37498500D01*
X47335670Y-37496200D01*
X47329295Y-37490969D01*
X47308920Y-37477356D01*
X47286281Y-37467980D01*
X47262247Y-37463200D01*
X47237743Y-37463201D01*
X47213709Y-37467983D01*
X47191071Y-37477361D01*
X47170705Y-37490969D01*
X47164330Y-37496200D01*
X47160028Y-37498500D01*
X47155357Y-37499917D01*
X47144359Y-37501000D01*
X46855641Y-37501000D01*
X46844643Y-37499917D01*
X46839972Y-37498500D01*
X46835670Y-37496200D01*
X46829295Y-37490969D01*
X46808920Y-37477356D01*
X46786281Y-37467980D01*
X46762247Y-37463200D01*
X46737743Y-37463201D01*
X46713709Y-37467983D01*
X46691071Y-37477361D01*
X46670705Y-37490969D01*
X46664330Y-37496200D01*
X46660028Y-37498500D01*
X46655357Y-37499917D01*
X46644359Y-37501000D01*
X46355641Y-37501000D01*
X46344643Y-37499917D01*
X46339972Y-37498500D01*
X46335670Y-37496200D01*
X46329295Y-37490969D01*
X46308920Y-37477356D01*
X46286281Y-37467980D01*
X46262247Y-37463200D01*
X46237743Y-37463201D01*
X46213709Y-37467983D01*
X46191071Y-37477361D01*
X46170705Y-37490969D01*
X46164330Y-37496200D01*
X46160028Y-37498500D01*
X46155357Y-37499917D01*
X46144359Y-37501000D01*
X45855641Y-37501000D01*
X45844643Y-37499917D01*
X45839972Y-37498500D01*
X45835670Y-37496200D01*
X45829295Y-37490969D01*
X45808920Y-37477356D01*
X45786281Y-37467980D01*
X45762247Y-37463200D01*
X45737743Y-37463201D01*
X45713709Y-37467983D01*
X45691071Y-37477361D01*
X45670705Y-37490969D01*
X45664330Y-37496200D01*
X45660028Y-37498500D01*
X45655357Y-37499917D01*
X45644359Y-37501000D01*
X45355641Y-37501000D01*
X45344643Y-37499917D01*
X45339972Y-37498500D01*
X45335670Y-37496200D01*
X45329295Y-37490969D01*
X45308920Y-37477356D01*
X45286281Y-37467980D01*
X45262247Y-37463200D01*
X45237743Y-37463201D01*
X45213709Y-37467983D01*
X45191071Y-37477361D01*
X45170705Y-37490969D01*
X45164330Y-37496200D01*
X45160028Y-37498500D01*
X45155357Y-37499917D01*
X45144359Y-37501000D01*
X44855641Y-37501000D01*
X44844643Y-37499917D01*
X44839972Y-37498500D01*
X44835670Y-37496200D01*
X44829295Y-37490969D01*
X44808920Y-37477356D01*
X44786281Y-37467980D01*
X44762247Y-37463200D01*
X44737743Y-37463201D01*
X44713709Y-37467983D01*
X44691071Y-37477361D01*
X44670705Y-37490969D01*
X44664330Y-37496200D01*
X44660028Y-37498500D01*
X44655357Y-37499917D01*
X44644359Y-37501000D01*
X44355641Y-37501000D01*
X44344643Y-37499917D01*
X44339972Y-37498500D01*
X44335670Y-37496200D01*
X44331896Y-37493104D01*
X44328800Y-37489330D01*
X44326500Y-37485028D01*
X44325083Y-37480357D01*
X44324000Y-37469359D01*
X44324000Y-36630641D01*
X44325083Y-36619643D01*
X44326500Y-36614972D01*
X44328800Y-36610670D01*
X44331896Y-36606896D01*
X44335670Y-36603800D01*
X44339972Y-36601500D01*
X44344643Y-36600083D01*
X44355641Y-36599000D01*
X44644359Y-36599000D01*
X44655357Y-36600083D01*
X44655357Y-36600083D01*
G37*
G36*
X53450443Y-34665519D02*
X53516627Y-34672037D01*
X53625845Y-34705168D01*
X53686467Y-34723557D01*
X53774673Y-34770705D01*
X53842991Y-34807222D01*
X53878729Y-34836552D01*
X53980186Y-34919814D01*
X54055840Y-35012000D01*
X54092778Y-35057009D01*
X54092779Y-35057011D01*
X54176443Y-35213533D01*
X54185794Y-35244359D01*
X54227963Y-35383373D01*
X54245359Y-35560000D01*
X54227963Y-35736627D01*
X54211445Y-35791080D01*
X54176443Y-35906467D01*
X54102348Y-36045087D01*
X54092778Y-36062991D01*
X54072253Y-36088000D01*
X53980186Y-36200186D01*
X53887805Y-36276000D01*
X53842991Y-36312778D01*
X53842989Y-36312779D01*
X53686467Y-36396443D01*
X53629853Y-36413616D01*
X53516627Y-36447963D01*
X53450442Y-36454482D01*
X53384260Y-36461000D01*
X53295740Y-36461000D01*
X53229558Y-36454482D01*
X53163373Y-36447963D01*
X53050147Y-36413616D01*
X52993533Y-36396443D01*
X52837011Y-36312779D01*
X52837009Y-36312778D01*
X52792195Y-36276000D01*
X52699814Y-36200186D01*
X52607747Y-36088000D01*
X52587222Y-36062991D01*
X52577652Y-36045087D01*
X52503557Y-35906467D01*
X52468555Y-35791080D01*
X52452037Y-35736627D01*
X52434641Y-35560000D01*
X52452037Y-35383373D01*
X52494206Y-35244359D01*
X52503557Y-35213533D01*
X52587221Y-35057011D01*
X52587222Y-35057009D01*
X52624160Y-35012000D01*
X52699814Y-34919814D01*
X52801271Y-34836552D01*
X52837009Y-34807222D01*
X52905327Y-34770705D01*
X52993533Y-34723557D01*
X53054155Y-34705168D01*
X53163373Y-34672037D01*
X53229557Y-34665519D01*
X53295740Y-34659000D01*
X53384260Y-34659000D01*
X53450443Y-34665519D01*
X53450443Y-34665519D01*
G37*
G36*
X38210443Y-34665519D02*
X38276627Y-34672037D01*
X38385845Y-34705168D01*
X38446467Y-34723557D01*
X38534673Y-34770705D01*
X38602991Y-34807222D01*
X38638729Y-34836552D01*
X38740186Y-34919814D01*
X38815840Y-35012000D01*
X38852778Y-35057009D01*
X38852779Y-35057011D01*
X38936443Y-35213533D01*
X38945794Y-35244359D01*
X38987963Y-35383373D01*
X39005359Y-35560000D01*
X38987963Y-35736627D01*
X38971445Y-35791080D01*
X38936443Y-35906467D01*
X38862348Y-36045087D01*
X38852778Y-36062991D01*
X38832253Y-36088000D01*
X38740186Y-36200186D01*
X38647805Y-36276000D01*
X38602991Y-36312778D01*
X38602989Y-36312779D01*
X38446467Y-36396443D01*
X38389853Y-36413616D01*
X38276627Y-36447963D01*
X38210442Y-36454482D01*
X38144260Y-36461000D01*
X38055740Y-36461000D01*
X37989558Y-36454482D01*
X37923373Y-36447963D01*
X37810147Y-36413616D01*
X37753533Y-36396443D01*
X37597011Y-36312779D01*
X37597009Y-36312778D01*
X37552195Y-36276000D01*
X37459814Y-36200186D01*
X37367747Y-36088000D01*
X37347222Y-36062991D01*
X37337652Y-36045087D01*
X37263557Y-35906467D01*
X37228555Y-35791080D01*
X37212037Y-35736627D01*
X37194641Y-35560000D01*
X37212037Y-35383373D01*
X37254206Y-35244359D01*
X37263557Y-35213533D01*
X37347221Y-35057011D01*
X37347222Y-35057009D01*
X37384160Y-35012000D01*
X37459814Y-34919814D01*
X37561271Y-34836552D01*
X37597009Y-34807222D01*
X37665327Y-34770705D01*
X37753533Y-34723557D01*
X37814155Y-34705168D01*
X37923373Y-34672037D01*
X37989557Y-34665519D01*
X38055740Y-34659000D01*
X38144260Y-34659000D01*
X38210443Y-34665519D01*
X38210443Y-34665519D01*
G37*
G36*
X41064499Y-35203445D02*
X41101993Y-35214819D01*
X41136557Y-35233294D01*
X41166847Y-35258153D01*
X41191706Y-35288443D01*
X41210181Y-35323007D01*
X41221555Y-35360501D01*
X41226000Y-35405638D01*
X41226000Y-36144362D01*
X41221555Y-36189499D01*
X41210181Y-36226993D01*
X41191706Y-36261557D01*
X41166847Y-36291847D01*
X41136557Y-36316706D01*
X41101993Y-36335181D01*
X41064499Y-36346555D01*
X41019362Y-36351000D01*
X40380638Y-36351000D01*
X40335501Y-36346555D01*
X40298007Y-36335181D01*
X40263443Y-36316706D01*
X40233153Y-36291847D01*
X40208294Y-36261557D01*
X40189819Y-36226993D01*
X40178445Y-36189499D01*
X40174000Y-36144362D01*
X40174000Y-35405638D01*
X40178445Y-35360501D01*
X40189819Y-35323007D01*
X40208294Y-35288443D01*
X40233153Y-35258153D01*
X40263443Y-35233294D01*
X40298007Y-35214819D01*
X40335501Y-35203445D01*
X40380638Y-35199000D01*
X41019362Y-35199000D01*
X41064499Y-35203445D01*
X41064499Y-35203445D01*
G37*
G36*
X47604123Y-32877499D02*
X47632387Y-32886073D01*
X47658437Y-32899997D01*
X47681267Y-32918733D01*
X47700003Y-32941563D01*
X47713927Y-32967613D01*
X47722501Y-32995877D01*
X47726000Y-33031407D01*
X47726000Y-36168593D01*
X47722501Y-36204123D01*
X47713927Y-36232387D01*
X47700003Y-36258437D01*
X47681267Y-36281267D01*
X47658437Y-36300003D01*
X47632387Y-36313927D01*
X47604123Y-36322501D01*
X47568593Y-36326000D01*
X44431407Y-36326000D01*
X44395877Y-36322501D01*
X44367613Y-36313927D01*
X44341563Y-36300003D01*
X44318733Y-36281267D01*
X44299997Y-36258437D01*
X44286073Y-36232387D01*
X44277499Y-36204123D01*
X44274000Y-36168593D01*
X44274000Y-33031407D01*
X44277499Y-32995877D01*
X44286073Y-32967613D01*
X44299997Y-32941563D01*
X44318733Y-32918733D01*
X44341563Y-32899997D01*
X44367613Y-32886073D01*
X44395877Y-32877499D01*
X44431407Y-32874000D01*
X47568593Y-32874000D01*
X47604123Y-32877499D01*
X47604123Y-32877499D01*
G37*
G36*
X43980357Y-32925083D02*
X43985028Y-32926500D01*
X43989330Y-32928800D01*
X43993104Y-32931896D01*
X43996200Y-32935670D01*
X43998500Y-32939972D01*
X43999917Y-32944643D01*
X44001000Y-32955641D01*
X44001000Y-33244359D01*
X43999917Y-33255357D01*
X43998500Y-33260028D01*
X43996200Y-33264330D01*
X43990969Y-33270705D01*
X43977356Y-33291080D01*
X43967980Y-33313719D01*
X43963200Y-33337753D01*
X43963201Y-33362257D01*
X43967983Y-33386291D01*
X43977361Y-33408929D01*
X43990969Y-33429295D01*
X43996200Y-33435670D01*
X43998500Y-33439972D01*
X43999917Y-33444643D01*
X44001000Y-33455641D01*
X44001000Y-33744359D01*
X43999917Y-33755357D01*
X43998500Y-33760028D01*
X43996200Y-33764330D01*
X43990969Y-33770705D01*
X43977356Y-33791080D01*
X43967980Y-33813719D01*
X43963200Y-33837753D01*
X43963201Y-33862257D01*
X43967983Y-33886291D01*
X43977361Y-33908929D01*
X43990969Y-33929295D01*
X43996200Y-33935670D01*
X43998500Y-33939972D01*
X43999917Y-33944643D01*
X44001000Y-33955641D01*
X44001000Y-34244359D01*
X43999917Y-34255357D01*
X43998500Y-34260028D01*
X43996200Y-34264330D01*
X43990969Y-34270705D01*
X43977356Y-34291080D01*
X43967980Y-34313719D01*
X43963200Y-34337753D01*
X43963201Y-34362257D01*
X43967983Y-34386291D01*
X43977361Y-34408929D01*
X43990969Y-34429295D01*
X43996200Y-34435670D01*
X43998500Y-34439972D01*
X43999917Y-34444643D01*
X44001000Y-34455641D01*
X44001000Y-34744359D01*
X43999917Y-34755357D01*
X43998500Y-34760028D01*
X43996200Y-34764330D01*
X43990969Y-34770705D01*
X43977356Y-34791080D01*
X43967980Y-34813719D01*
X43963200Y-34837753D01*
X43963201Y-34862257D01*
X43967983Y-34886291D01*
X43977361Y-34908929D01*
X43990969Y-34929295D01*
X43996200Y-34935670D01*
X43998500Y-34939972D01*
X43999917Y-34944643D01*
X44001000Y-34955641D01*
X44001000Y-35244359D01*
X43999917Y-35255357D01*
X43998500Y-35260028D01*
X43996200Y-35264330D01*
X43990969Y-35270705D01*
X43977356Y-35291080D01*
X43967980Y-35313719D01*
X43963200Y-35337753D01*
X43963201Y-35362257D01*
X43967983Y-35386291D01*
X43977361Y-35408929D01*
X43990969Y-35429295D01*
X43996200Y-35435670D01*
X43998500Y-35439972D01*
X43999917Y-35444643D01*
X44001000Y-35455641D01*
X44001000Y-35744359D01*
X43999917Y-35755357D01*
X43998500Y-35760028D01*
X43996200Y-35764330D01*
X43990969Y-35770705D01*
X43977356Y-35791080D01*
X43967980Y-35813719D01*
X43963200Y-35837753D01*
X43963201Y-35862257D01*
X43967983Y-35886291D01*
X43977361Y-35908929D01*
X43990969Y-35929295D01*
X43996200Y-35935670D01*
X43998500Y-35939972D01*
X43999917Y-35944643D01*
X44001000Y-35955641D01*
X44001000Y-36244359D01*
X43999917Y-36255357D01*
X43998500Y-36260028D01*
X43996200Y-36264330D01*
X43993104Y-36268104D01*
X43989330Y-36271200D01*
X43985028Y-36273500D01*
X43980357Y-36274917D01*
X43969359Y-36276000D01*
X43130641Y-36276000D01*
X43119643Y-36274917D01*
X43114972Y-36273500D01*
X43110670Y-36271200D01*
X43106896Y-36268104D01*
X43103800Y-36264330D01*
X43101500Y-36260028D01*
X43100083Y-36255357D01*
X43099000Y-36244359D01*
X43099000Y-35955641D01*
X43100083Y-35944643D01*
X43101500Y-35939972D01*
X43103800Y-35935670D01*
X43109031Y-35929295D01*
X43122644Y-35908920D01*
X43132020Y-35886281D01*
X43136800Y-35862247D01*
X43136799Y-35837743D01*
X43132017Y-35813709D01*
X43122639Y-35791071D01*
X43109031Y-35770705D01*
X43103800Y-35764330D01*
X43101500Y-35760028D01*
X43100083Y-35755357D01*
X43099000Y-35744359D01*
X43099000Y-35455641D01*
X43100083Y-35444643D01*
X43101500Y-35439972D01*
X43103800Y-35435670D01*
X43109031Y-35429295D01*
X43122644Y-35408920D01*
X43132020Y-35386281D01*
X43136800Y-35362247D01*
X43136799Y-35337743D01*
X43132017Y-35313709D01*
X43122639Y-35291071D01*
X43109031Y-35270705D01*
X43103800Y-35264330D01*
X43101500Y-35260028D01*
X43100083Y-35255357D01*
X43099000Y-35244359D01*
X43099000Y-34955641D01*
X43100083Y-34944643D01*
X43101500Y-34939972D01*
X43103800Y-34935670D01*
X43109031Y-34929295D01*
X43122644Y-34908920D01*
X43132020Y-34886281D01*
X43136800Y-34862247D01*
X43136799Y-34837743D01*
X43132017Y-34813709D01*
X43122639Y-34791071D01*
X43109031Y-34770705D01*
X43103800Y-34764330D01*
X43101500Y-34760028D01*
X43100083Y-34755357D01*
X43099000Y-34744359D01*
X43099000Y-34455641D01*
X43100083Y-34444643D01*
X43101500Y-34439972D01*
X43103800Y-34435670D01*
X43109031Y-34429295D01*
X43122644Y-34408920D01*
X43132020Y-34386281D01*
X43136800Y-34362247D01*
X43136799Y-34337743D01*
X43132017Y-34313709D01*
X43122639Y-34291071D01*
X43109031Y-34270705D01*
X43103800Y-34264330D01*
X43101500Y-34260028D01*
X43100083Y-34255357D01*
X43099000Y-34244359D01*
X43099000Y-33955641D01*
X43100083Y-33944643D01*
X43101500Y-33939972D01*
X43103800Y-33935670D01*
X43109031Y-33929295D01*
X43122644Y-33908920D01*
X43132020Y-33886281D01*
X43136800Y-33862247D01*
X43136799Y-33837743D01*
X43132017Y-33813709D01*
X43122639Y-33791071D01*
X43109031Y-33770705D01*
X43103800Y-33764330D01*
X43101500Y-33760028D01*
X43100083Y-33755357D01*
X43099000Y-33744359D01*
X43099000Y-33455641D01*
X43100083Y-33444643D01*
X43101500Y-33439972D01*
X43103800Y-33435670D01*
X43109031Y-33429295D01*
X43122644Y-33408920D01*
X43132020Y-33386281D01*
X43136800Y-33362247D01*
X43136799Y-33337743D01*
X43132017Y-33313709D01*
X43122639Y-33291071D01*
X43109031Y-33270705D01*
X43103800Y-33264330D01*
X43101500Y-33260028D01*
X43100083Y-33255357D01*
X43099000Y-33244359D01*
X43099000Y-32955641D01*
X43100083Y-32944643D01*
X43101500Y-32939972D01*
X43103800Y-32935670D01*
X43106896Y-32931896D01*
X43110670Y-32928800D01*
X43114972Y-32926500D01*
X43119643Y-32925083D01*
X43130641Y-32924000D01*
X43969359Y-32924000D01*
X43980357Y-32925083D01*
X43980357Y-32925083D01*
G37*
G36*
X48880357Y-32925083D02*
X48885028Y-32926500D01*
X48889330Y-32928800D01*
X48893104Y-32931896D01*
X48896200Y-32935670D01*
X48898500Y-32939972D01*
X48899917Y-32944643D01*
X48901000Y-32955641D01*
X48901000Y-33244359D01*
X48899917Y-33255357D01*
X48898500Y-33260028D01*
X48896200Y-33264330D01*
X48890969Y-33270705D01*
X48877356Y-33291080D01*
X48867980Y-33313719D01*
X48863200Y-33337753D01*
X48863201Y-33362257D01*
X48867983Y-33386291D01*
X48877361Y-33408929D01*
X48890969Y-33429295D01*
X48896200Y-33435670D01*
X48898500Y-33439972D01*
X48899917Y-33444643D01*
X48901000Y-33455641D01*
X48901000Y-33744359D01*
X48899917Y-33755357D01*
X48898500Y-33760028D01*
X48896200Y-33764330D01*
X48890969Y-33770705D01*
X48877356Y-33791080D01*
X48867980Y-33813719D01*
X48863200Y-33837753D01*
X48863201Y-33862257D01*
X48867983Y-33886291D01*
X48877361Y-33908929D01*
X48890969Y-33929295D01*
X48896200Y-33935670D01*
X48898500Y-33939972D01*
X48899917Y-33944643D01*
X48901000Y-33955641D01*
X48901000Y-34244359D01*
X48899917Y-34255357D01*
X48898500Y-34260028D01*
X48896200Y-34264330D01*
X48890969Y-34270705D01*
X48877356Y-34291080D01*
X48867980Y-34313719D01*
X48863200Y-34337753D01*
X48863201Y-34362257D01*
X48867983Y-34386291D01*
X48877361Y-34408929D01*
X48890969Y-34429295D01*
X48896200Y-34435670D01*
X48898500Y-34439972D01*
X48899917Y-34444643D01*
X48901000Y-34455641D01*
X48901000Y-34744359D01*
X48899917Y-34755357D01*
X48898500Y-34760028D01*
X48896200Y-34764330D01*
X48890969Y-34770705D01*
X48877356Y-34791080D01*
X48867980Y-34813719D01*
X48863200Y-34837753D01*
X48863201Y-34862257D01*
X48867983Y-34886291D01*
X48877361Y-34908929D01*
X48890969Y-34929295D01*
X48896200Y-34935670D01*
X48898500Y-34939972D01*
X48899917Y-34944643D01*
X48901000Y-34955641D01*
X48901000Y-35244359D01*
X48899917Y-35255357D01*
X48898500Y-35260028D01*
X48896200Y-35264330D01*
X48890969Y-35270705D01*
X48877356Y-35291080D01*
X48867980Y-35313719D01*
X48863200Y-35337753D01*
X48863201Y-35362257D01*
X48867983Y-35386291D01*
X48877361Y-35408929D01*
X48890969Y-35429295D01*
X48896200Y-35435670D01*
X48898500Y-35439972D01*
X48899917Y-35444643D01*
X48901000Y-35455641D01*
X48901000Y-35744359D01*
X48899917Y-35755357D01*
X48898500Y-35760028D01*
X48896200Y-35764330D01*
X48890969Y-35770705D01*
X48877356Y-35791080D01*
X48867980Y-35813719D01*
X48863200Y-35837753D01*
X48863201Y-35862257D01*
X48867983Y-35886291D01*
X48877361Y-35908929D01*
X48890969Y-35929295D01*
X48896200Y-35935670D01*
X48898500Y-35939972D01*
X48899917Y-35944643D01*
X48901000Y-35955641D01*
X48901000Y-36244359D01*
X48899917Y-36255357D01*
X48898500Y-36260028D01*
X48896200Y-36264330D01*
X48893104Y-36268104D01*
X48889330Y-36271200D01*
X48885028Y-36273500D01*
X48880357Y-36274917D01*
X48869359Y-36276000D01*
X48030641Y-36276000D01*
X48019643Y-36274917D01*
X48014972Y-36273500D01*
X48010670Y-36271200D01*
X48006896Y-36268104D01*
X48003800Y-36264330D01*
X48001500Y-36260028D01*
X48000083Y-36255357D01*
X47999000Y-36244359D01*
X47999000Y-35955641D01*
X48000083Y-35944643D01*
X48001500Y-35939972D01*
X48003800Y-35935670D01*
X48009031Y-35929295D01*
X48022644Y-35908920D01*
X48032020Y-35886281D01*
X48036800Y-35862247D01*
X48036799Y-35837743D01*
X48032017Y-35813709D01*
X48022639Y-35791071D01*
X48009031Y-35770705D01*
X48003800Y-35764330D01*
X48001500Y-35760028D01*
X48000083Y-35755357D01*
X47999000Y-35744359D01*
X47999000Y-35455641D01*
X48000083Y-35444643D01*
X48001500Y-35439972D01*
X48003800Y-35435670D01*
X48009031Y-35429295D01*
X48022644Y-35408920D01*
X48032020Y-35386281D01*
X48036800Y-35362247D01*
X48036799Y-35337743D01*
X48032017Y-35313709D01*
X48022639Y-35291071D01*
X48009031Y-35270705D01*
X48003800Y-35264330D01*
X48001500Y-35260028D01*
X48000083Y-35255357D01*
X47999000Y-35244359D01*
X47999000Y-34955641D01*
X48000083Y-34944643D01*
X48001500Y-34939972D01*
X48003800Y-34935670D01*
X48009031Y-34929295D01*
X48022644Y-34908920D01*
X48032020Y-34886281D01*
X48036800Y-34862247D01*
X48036799Y-34837743D01*
X48032017Y-34813709D01*
X48022639Y-34791071D01*
X48009031Y-34770705D01*
X48003800Y-34764330D01*
X48001500Y-34760028D01*
X48000083Y-34755357D01*
X47999000Y-34744359D01*
X47999000Y-34455641D01*
X48000083Y-34444643D01*
X48001500Y-34439972D01*
X48003800Y-34435670D01*
X48009031Y-34429295D01*
X48022644Y-34408920D01*
X48032020Y-34386281D01*
X48036800Y-34362247D01*
X48036799Y-34337743D01*
X48032017Y-34313709D01*
X48022639Y-34291071D01*
X48009031Y-34270705D01*
X48003800Y-34264330D01*
X48001500Y-34260028D01*
X48000083Y-34255357D01*
X47999000Y-34244359D01*
X47999000Y-33955641D01*
X48000083Y-33944643D01*
X48001500Y-33939972D01*
X48003800Y-33935670D01*
X48009031Y-33929295D01*
X48022644Y-33908920D01*
X48032020Y-33886281D01*
X48036800Y-33862247D01*
X48036799Y-33837743D01*
X48032017Y-33813709D01*
X48022639Y-33791071D01*
X48009031Y-33770705D01*
X48003800Y-33764330D01*
X48001500Y-33760028D01*
X48000083Y-33755357D01*
X47999000Y-33744359D01*
X47999000Y-33455641D01*
X48000083Y-33444643D01*
X48001500Y-33439972D01*
X48003800Y-33435670D01*
X48009031Y-33429295D01*
X48022644Y-33408920D01*
X48032020Y-33386281D01*
X48036800Y-33362247D01*
X48036799Y-33337743D01*
X48032017Y-33313709D01*
X48022639Y-33291071D01*
X48009031Y-33270705D01*
X48003800Y-33264330D01*
X48001500Y-33260028D01*
X48000083Y-33255357D01*
X47999000Y-33244359D01*
X47999000Y-32955641D01*
X48000083Y-32944643D01*
X48001500Y-32939972D01*
X48003800Y-32935670D01*
X48006896Y-32931896D01*
X48010670Y-32928800D01*
X48014972Y-32926500D01*
X48019643Y-32925083D01*
X48030641Y-32924000D01*
X48869359Y-32924000D01*
X48880357Y-32925083D01*
X48880357Y-32925083D01*
G37*
G36*
X41064499Y-33453445D02*
X41101993Y-33464819D01*
X41136557Y-33483294D01*
X41166847Y-33508153D01*
X41191706Y-33538443D01*
X41210181Y-33573007D01*
X41221555Y-33610501D01*
X41226000Y-33655638D01*
X41226000Y-34394362D01*
X41221555Y-34439499D01*
X41210181Y-34476993D01*
X41191706Y-34511557D01*
X41166847Y-34541847D01*
X41136557Y-34566706D01*
X41101993Y-34585181D01*
X41064499Y-34596555D01*
X41019362Y-34601000D01*
X40380638Y-34601000D01*
X40335501Y-34596555D01*
X40298007Y-34585181D01*
X40263443Y-34566706D01*
X40233153Y-34541847D01*
X40208294Y-34511557D01*
X40189819Y-34476993D01*
X40178445Y-34439499D01*
X40174000Y-34394362D01*
X40174000Y-33655638D01*
X40178445Y-33610501D01*
X40189819Y-33573007D01*
X40208294Y-33538443D01*
X40233153Y-33508153D01*
X40263443Y-33483294D01*
X40298007Y-33464819D01*
X40335501Y-33453445D01*
X40380638Y-33449000D01*
X41019362Y-33449000D01*
X41064499Y-33453445D01*
X41064499Y-33453445D01*
G37*
G36*
X38210443Y-32125519D02*
X38276627Y-32132037D01*
X38389853Y-32166384D01*
X38446467Y-32183557D01*
X38585087Y-32257652D01*
X38602991Y-32267222D01*
X38638729Y-32296552D01*
X38740186Y-32379814D01*
X38823448Y-32481271D01*
X38852778Y-32517009D01*
X38852779Y-32517011D01*
X38936443Y-32673533D01*
X38936443Y-32673534D01*
X38987963Y-32843373D01*
X39005359Y-33020000D01*
X38987963Y-33196627D01*
X38959314Y-33291071D01*
X38936443Y-33366467D01*
X38888778Y-33455641D01*
X38852778Y-33522991D01*
X38823448Y-33558729D01*
X38740186Y-33660186D01*
X38638729Y-33743448D01*
X38602991Y-33772778D01*
X38602989Y-33772779D01*
X38446467Y-33856443D01*
X38427333Y-33862247D01*
X38276627Y-33907963D01*
X38210443Y-33914481D01*
X38144260Y-33921000D01*
X38055740Y-33921000D01*
X37989557Y-33914481D01*
X37923373Y-33907963D01*
X37772667Y-33862247D01*
X37753533Y-33856443D01*
X37597011Y-33772779D01*
X37597009Y-33772778D01*
X37561271Y-33743448D01*
X37459814Y-33660186D01*
X37376552Y-33558729D01*
X37347222Y-33522991D01*
X37311222Y-33455641D01*
X37263557Y-33366467D01*
X37240686Y-33291071D01*
X37212037Y-33196627D01*
X37194641Y-33020000D01*
X37212037Y-32843373D01*
X37263557Y-32673534D01*
X37263557Y-32673533D01*
X37347221Y-32517011D01*
X37347222Y-32517009D01*
X37376552Y-32481271D01*
X37459814Y-32379814D01*
X37561271Y-32296552D01*
X37597009Y-32267222D01*
X37614913Y-32257652D01*
X37753533Y-32183557D01*
X37810147Y-32166384D01*
X37923373Y-32132037D01*
X37989557Y-32125519D01*
X38055740Y-32119000D01*
X38144260Y-32119000D01*
X38210443Y-32125519D01*
X38210443Y-32125519D01*
G37*
G36*
X53450443Y-32125519D02*
X53516627Y-32132037D01*
X53629853Y-32166384D01*
X53686467Y-32183557D01*
X53825087Y-32257652D01*
X53842991Y-32267222D01*
X53878729Y-32296552D01*
X53980186Y-32379814D01*
X54063448Y-32481271D01*
X54092778Y-32517009D01*
X54092779Y-32517011D01*
X54176443Y-32673533D01*
X54176443Y-32673534D01*
X54227963Y-32843373D01*
X54245359Y-33020000D01*
X54227963Y-33196627D01*
X54199314Y-33291071D01*
X54176443Y-33366467D01*
X54128778Y-33455641D01*
X54092778Y-33522991D01*
X54063448Y-33558729D01*
X53980186Y-33660186D01*
X53878729Y-33743448D01*
X53842991Y-33772778D01*
X53842989Y-33772779D01*
X53686467Y-33856443D01*
X53667333Y-33862247D01*
X53516627Y-33907963D01*
X53450443Y-33914481D01*
X53384260Y-33921000D01*
X53295740Y-33921000D01*
X53229557Y-33914481D01*
X53163373Y-33907963D01*
X53012667Y-33862247D01*
X52993533Y-33856443D01*
X52837011Y-33772779D01*
X52837009Y-33772778D01*
X52801271Y-33743448D01*
X52699814Y-33660186D01*
X52616552Y-33558729D01*
X52587222Y-33522991D01*
X52551222Y-33455641D01*
X52503557Y-33366467D01*
X52480686Y-33291071D01*
X52452037Y-33196627D01*
X52434641Y-33020000D01*
X52452037Y-32843373D01*
X52503557Y-32673534D01*
X52503557Y-32673533D01*
X52587221Y-32517011D01*
X52587222Y-32517009D01*
X52616552Y-32481271D01*
X52699814Y-32379814D01*
X52801271Y-32296552D01*
X52837009Y-32267222D01*
X52854913Y-32257652D01*
X52993533Y-32183557D01*
X53050147Y-32166384D01*
X53163373Y-32132037D01*
X53229557Y-32125519D01*
X53295740Y-32119000D01*
X53384260Y-32119000D01*
X53450443Y-32125519D01*
X53450443Y-32125519D01*
G37*
G36*
X44655357Y-31700083D02*
X44660028Y-31701500D01*
X44664330Y-31703800D01*
X44670705Y-31709031D01*
X44691080Y-31722644D01*
X44713719Y-31732020D01*
X44737753Y-31736800D01*
X44762257Y-31736799D01*
X44786291Y-31732017D01*
X44808929Y-31722639D01*
X44829295Y-31709031D01*
X44835670Y-31703800D01*
X44839972Y-31701500D01*
X44844643Y-31700083D01*
X44855641Y-31699000D01*
X45144359Y-31699000D01*
X45155357Y-31700083D01*
X45160028Y-31701500D01*
X45164330Y-31703800D01*
X45170705Y-31709031D01*
X45191080Y-31722644D01*
X45213719Y-31732020D01*
X45237753Y-31736800D01*
X45262257Y-31736799D01*
X45286291Y-31732017D01*
X45308929Y-31722639D01*
X45329295Y-31709031D01*
X45335670Y-31703800D01*
X45339972Y-31701500D01*
X45344643Y-31700083D01*
X45355641Y-31699000D01*
X45644359Y-31699000D01*
X45655357Y-31700083D01*
X45660028Y-31701500D01*
X45664330Y-31703800D01*
X45670705Y-31709031D01*
X45691080Y-31722644D01*
X45713719Y-31732020D01*
X45737753Y-31736800D01*
X45762257Y-31736799D01*
X45786291Y-31732017D01*
X45808929Y-31722639D01*
X45829295Y-31709031D01*
X45835670Y-31703800D01*
X45839972Y-31701500D01*
X45844643Y-31700083D01*
X45855641Y-31699000D01*
X46144359Y-31699000D01*
X46155357Y-31700083D01*
X46160028Y-31701500D01*
X46164330Y-31703800D01*
X46170705Y-31709031D01*
X46191080Y-31722644D01*
X46213719Y-31732020D01*
X46237753Y-31736800D01*
X46262257Y-31736799D01*
X46286291Y-31732017D01*
X46308929Y-31722639D01*
X46329295Y-31709031D01*
X46335670Y-31703800D01*
X46339972Y-31701500D01*
X46344643Y-31700083D01*
X46355641Y-31699000D01*
X46644359Y-31699000D01*
X46655357Y-31700083D01*
X46660028Y-31701500D01*
X46664330Y-31703800D01*
X46670705Y-31709031D01*
X46691080Y-31722644D01*
X46713719Y-31732020D01*
X46737753Y-31736800D01*
X46762257Y-31736799D01*
X46786291Y-31732017D01*
X46808929Y-31722639D01*
X46829295Y-31709031D01*
X46835670Y-31703800D01*
X46839972Y-31701500D01*
X46844643Y-31700083D01*
X46855641Y-31699000D01*
X47144359Y-31699000D01*
X47155357Y-31700083D01*
X47160028Y-31701500D01*
X47164330Y-31703800D01*
X47170705Y-31709031D01*
X47191080Y-31722644D01*
X47213719Y-31732020D01*
X47237753Y-31736800D01*
X47262257Y-31736799D01*
X47286291Y-31732017D01*
X47308929Y-31722639D01*
X47329295Y-31709031D01*
X47335670Y-31703800D01*
X47339972Y-31701500D01*
X47344643Y-31700083D01*
X47355641Y-31699000D01*
X47644359Y-31699000D01*
X47655357Y-31700083D01*
X47660028Y-31701500D01*
X47664330Y-31703800D01*
X47668104Y-31706896D01*
X47671200Y-31710670D01*
X47673500Y-31714972D01*
X47674917Y-31719643D01*
X47676000Y-31730641D01*
X47676000Y-32569359D01*
X47674917Y-32580357D01*
X47673500Y-32585028D01*
X47671200Y-32589330D01*
X47668104Y-32593104D01*
X47664330Y-32596200D01*
X47660028Y-32598500D01*
X47655357Y-32599917D01*
X47644359Y-32601000D01*
X47355641Y-32601000D01*
X47344643Y-32599917D01*
X47339972Y-32598500D01*
X47335670Y-32596200D01*
X47329295Y-32590969D01*
X47308920Y-32577356D01*
X47286281Y-32567980D01*
X47262247Y-32563200D01*
X47237743Y-32563201D01*
X47213709Y-32567983D01*
X47191071Y-32577361D01*
X47170705Y-32590969D01*
X47164330Y-32596200D01*
X47160028Y-32598500D01*
X47155357Y-32599917D01*
X47144359Y-32601000D01*
X46855641Y-32601000D01*
X46844643Y-32599917D01*
X46839972Y-32598500D01*
X46835670Y-32596200D01*
X46829295Y-32590969D01*
X46808920Y-32577356D01*
X46786281Y-32567980D01*
X46762247Y-32563200D01*
X46737743Y-32563201D01*
X46713709Y-32567983D01*
X46691071Y-32577361D01*
X46670705Y-32590969D01*
X46664330Y-32596200D01*
X46660028Y-32598500D01*
X46655357Y-32599917D01*
X46644359Y-32601000D01*
X46355641Y-32601000D01*
X46344643Y-32599917D01*
X46339972Y-32598500D01*
X46335670Y-32596200D01*
X46329295Y-32590969D01*
X46308920Y-32577356D01*
X46286281Y-32567980D01*
X46262247Y-32563200D01*
X46237743Y-32563201D01*
X46213709Y-32567983D01*
X46191071Y-32577361D01*
X46170705Y-32590969D01*
X46164330Y-32596200D01*
X46160028Y-32598500D01*
X46155357Y-32599917D01*
X46144359Y-32601000D01*
X45855641Y-32601000D01*
X45844643Y-32599917D01*
X45839972Y-32598500D01*
X45835670Y-32596200D01*
X45829295Y-32590969D01*
X45808920Y-32577356D01*
X45786281Y-32567980D01*
X45762247Y-32563200D01*
X45737743Y-32563201D01*
X45713709Y-32567983D01*
X45691071Y-32577361D01*
X45670705Y-32590969D01*
X45664330Y-32596200D01*
X45660028Y-32598500D01*
X45655357Y-32599917D01*
X45644359Y-32601000D01*
X45355641Y-32601000D01*
X45344643Y-32599917D01*
X45339972Y-32598500D01*
X45335670Y-32596200D01*
X45329295Y-32590969D01*
X45308920Y-32577356D01*
X45286281Y-32567980D01*
X45262247Y-32563200D01*
X45237743Y-32563201D01*
X45213709Y-32567983D01*
X45191071Y-32577361D01*
X45170705Y-32590969D01*
X45164330Y-32596200D01*
X45160028Y-32598500D01*
X45155357Y-32599917D01*
X45144359Y-32601000D01*
X44855641Y-32601000D01*
X44844643Y-32599917D01*
X44839972Y-32598500D01*
X44835670Y-32596200D01*
X44829295Y-32590969D01*
X44808920Y-32577356D01*
X44786281Y-32567980D01*
X44762247Y-32563200D01*
X44737743Y-32563201D01*
X44713709Y-32567983D01*
X44691071Y-32577361D01*
X44670705Y-32590969D01*
X44664330Y-32596200D01*
X44660028Y-32598500D01*
X44655357Y-32599917D01*
X44644359Y-32601000D01*
X44355641Y-32601000D01*
X44344643Y-32599917D01*
X44339972Y-32598500D01*
X44335670Y-32596200D01*
X44331896Y-32593104D01*
X44328800Y-32589330D01*
X44326500Y-32585028D01*
X44325083Y-32580357D01*
X44324000Y-32569359D01*
X44324000Y-31730641D01*
X44325083Y-31719643D01*
X44326500Y-31714972D01*
X44328800Y-31710670D01*
X44331896Y-31706896D01*
X44335670Y-31703800D01*
X44339972Y-31701500D01*
X44344643Y-31700083D01*
X44355641Y-31699000D01*
X44644359Y-31699000D01*
X44655357Y-31700083D01*
X44655357Y-31700083D01*
G37*
G36*
X53450443Y-29585519D02*
X53516627Y-29592037D01*
X53629853Y-29626384D01*
X53686467Y-29643557D01*
X53825087Y-29717652D01*
X53842991Y-29727222D01*
X53878729Y-29756552D01*
X53980186Y-29839814D01*
X54063448Y-29941271D01*
X54092778Y-29977009D01*
X54092779Y-29977011D01*
X54176443Y-30133533D01*
X54176443Y-30133534D01*
X54227963Y-30303373D01*
X54245359Y-30480000D01*
X54227963Y-30656627D01*
X54193616Y-30769853D01*
X54176443Y-30826467D01*
X54102348Y-30965087D01*
X54092778Y-30982991D01*
X54063448Y-31018729D01*
X53980186Y-31120186D01*
X53878729Y-31203448D01*
X53842991Y-31232778D01*
X53842989Y-31232779D01*
X53686467Y-31316443D01*
X53629853Y-31333616D01*
X53516627Y-31367963D01*
X53450443Y-31374481D01*
X53384260Y-31381000D01*
X53295740Y-31381000D01*
X53229557Y-31374481D01*
X53163373Y-31367963D01*
X53050147Y-31333616D01*
X52993533Y-31316443D01*
X52837011Y-31232779D01*
X52837009Y-31232778D01*
X52801271Y-31203448D01*
X52699814Y-31120186D01*
X52616552Y-31018729D01*
X52587222Y-30982991D01*
X52577652Y-30965087D01*
X52503557Y-30826467D01*
X52486384Y-30769853D01*
X52452037Y-30656627D01*
X52434641Y-30480000D01*
X52452037Y-30303373D01*
X52503557Y-30133534D01*
X52503557Y-30133533D01*
X52587221Y-29977011D01*
X52587222Y-29977009D01*
X52616552Y-29941271D01*
X52699814Y-29839814D01*
X52801271Y-29756552D01*
X52837009Y-29727222D01*
X52854913Y-29717652D01*
X52993533Y-29643557D01*
X53050147Y-29626384D01*
X53163373Y-29592037D01*
X53229557Y-29585519D01*
X53295740Y-29579000D01*
X53384260Y-29579000D01*
X53450443Y-29585519D01*
X53450443Y-29585519D01*
G37*
G36*
X38210443Y-29585519D02*
X38276627Y-29592037D01*
X38389853Y-29626384D01*
X38446467Y-29643557D01*
X38585087Y-29717652D01*
X38602991Y-29727222D01*
X38638729Y-29756552D01*
X38740186Y-29839814D01*
X38823448Y-29941271D01*
X38852778Y-29977009D01*
X38852779Y-29977011D01*
X38936443Y-30133533D01*
X38936443Y-30133534D01*
X38987963Y-30303373D01*
X39005359Y-30480000D01*
X38987963Y-30656627D01*
X38953616Y-30769853D01*
X38936443Y-30826467D01*
X38862348Y-30965087D01*
X38852778Y-30982991D01*
X38823448Y-31018729D01*
X38740186Y-31120186D01*
X38638729Y-31203448D01*
X38602991Y-31232778D01*
X38602989Y-31232779D01*
X38446467Y-31316443D01*
X38389853Y-31333616D01*
X38276627Y-31367963D01*
X38210443Y-31374481D01*
X38144260Y-31381000D01*
X38055740Y-31381000D01*
X37989557Y-31374481D01*
X37923373Y-31367963D01*
X37810147Y-31333616D01*
X37753533Y-31316443D01*
X37597011Y-31232779D01*
X37597009Y-31232778D01*
X37561271Y-31203448D01*
X37459814Y-31120186D01*
X37376552Y-31018729D01*
X37347222Y-30982991D01*
X37337652Y-30965087D01*
X37263557Y-30826467D01*
X37246384Y-30769853D01*
X37212037Y-30656627D01*
X37194641Y-30480000D01*
X37212037Y-30303373D01*
X37263557Y-30133534D01*
X37263557Y-30133533D01*
X37347221Y-29977011D01*
X37347222Y-29977009D01*
X37376552Y-29941271D01*
X37459814Y-29839814D01*
X37561271Y-29756552D01*
X37597009Y-29727222D01*
X37614913Y-29717652D01*
X37753533Y-29643557D01*
X37810147Y-29626384D01*
X37923373Y-29592037D01*
X37989557Y-29585519D01*
X38055740Y-29579000D01*
X38144260Y-29579000D01*
X38210443Y-29585519D01*
X38210443Y-29585519D01*
G37*
G36*
X38210443Y-27045519D02*
X38276627Y-27052037D01*
X38389853Y-27086384D01*
X38446467Y-27103557D01*
X38585087Y-27177652D01*
X38602991Y-27187222D01*
X38638729Y-27216552D01*
X38740186Y-27299814D01*
X38823448Y-27401271D01*
X38852778Y-27437009D01*
X38852779Y-27437011D01*
X38936443Y-27593533D01*
X38936443Y-27593534D01*
X38987963Y-27763373D01*
X39005359Y-27940000D01*
X38987963Y-28116627D01*
X38953616Y-28229853D01*
X38936443Y-28286467D01*
X38862348Y-28425087D01*
X38852778Y-28442991D01*
X38823448Y-28478729D01*
X38740186Y-28580186D01*
X38638729Y-28663448D01*
X38602991Y-28692778D01*
X38602989Y-28692779D01*
X38446467Y-28776443D01*
X38389853Y-28793616D01*
X38276627Y-28827963D01*
X38210442Y-28834482D01*
X38144260Y-28841000D01*
X38055740Y-28841000D01*
X37989558Y-28834482D01*
X37923373Y-28827963D01*
X37810147Y-28793616D01*
X37753533Y-28776443D01*
X37597011Y-28692779D01*
X37597009Y-28692778D01*
X37561271Y-28663448D01*
X37459814Y-28580186D01*
X37376552Y-28478729D01*
X37347222Y-28442991D01*
X37337652Y-28425087D01*
X37263557Y-28286467D01*
X37246384Y-28229853D01*
X37212037Y-28116627D01*
X37194641Y-27940000D01*
X37212037Y-27763373D01*
X37263557Y-27593534D01*
X37263557Y-27593533D01*
X37347221Y-27437011D01*
X37347222Y-27437009D01*
X37376552Y-27401271D01*
X37459814Y-27299814D01*
X37561271Y-27216552D01*
X37597009Y-27187222D01*
X37614913Y-27177652D01*
X37753533Y-27103557D01*
X37810147Y-27086384D01*
X37923373Y-27052037D01*
X37989557Y-27045519D01*
X38055740Y-27039000D01*
X38144260Y-27039000D01*
X38210443Y-27045519D01*
X38210443Y-27045519D01*
G37*
G36*
X54241000Y-28841000D02*
X52439000Y-28841000D01*
X52439000Y-27039000D01*
X54241000Y-27039000D01*
X54241000Y-28841000D01*
X54241000Y-28841000D01*
G37*
G36*
X38210442Y-24505518D02*
X38276627Y-24512037D01*
X38389853Y-24546384D01*
X38446467Y-24563557D01*
X38583038Y-24636557D01*
X38602991Y-24647222D01*
X38638729Y-24676552D01*
X38740186Y-24759814D01*
X38817158Y-24853606D01*
X38852778Y-24897009D01*
X38852779Y-24897011D01*
X38936443Y-25053533D01*
X38936443Y-25053534D01*
X38987963Y-25223373D01*
X39005359Y-25400000D01*
X38987963Y-25576627D01*
X38953616Y-25689853D01*
X38936443Y-25746467D01*
X38862348Y-25885087D01*
X38852778Y-25902991D01*
X38823448Y-25938729D01*
X38740186Y-26040186D01*
X38638729Y-26123448D01*
X38602991Y-26152778D01*
X38602989Y-26152779D01*
X38446467Y-26236443D01*
X38389853Y-26253616D01*
X38276627Y-26287963D01*
X38210443Y-26294481D01*
X38144260Y-26301000D01*
X38055740Y-26301000D01*
X37989557Y-26294481D01*
X37923373Y-26287963D01*
X37810147Y-26253616D01*
X37753533Y-26236443D01*
X37597011Y-26152779D01*
X37597009Y-26152778D01*
X37561271Y-26123448D01*
X37459814Y-26040186D01*
X37376552Y-25938729D01*
X37347222Y-25902991D01*
X37337652Y-25885087D01*
X37263557Y-25746467D01*
X37246384Y-25689853D01*
X37212037Y-25576627D01*
X37194641Y-25400000D01*
X37212037Y-25223373D01*
X37263557Y-25053534D01*
X37263557Y-25053533D01*
X37347221Y-24897011D01*
X37347222Y-24897009D01*
X37382842Y-24853606D01*
X37459814Y-24759814D01*
X37561271Y-24676552D01*
X37597009Y-24647222D01*
X37616962Y-24636557D01*
X37753533Y-24563557D01*
X37810147Y-24546384D01*
X37923373Y-24512037D01*
X37989557Y-24505519D01*
X38055740Y-24499000D01*
X38144260Y-24499000D01*
X38210442Y-24505518D01*
X38210442Y-24505518D01*
G37*
G36*
X42051000Y-25251000D02*
X40749000Y-25251000D01*
X40749000Y-24249000D01*
X42051000Y-24249000D01*
X42051000Y-25251000D01*
X42051000Y-25251000D01*
G37*
G36*
X51673665Y-23572622D02*
X51747222Y-23579867D01*
X51888786Y-23622810D01*
X52019252Y-23692546D01*
X52133606Y-23786394D01*
X52227454Y-23900748D01*
X52297190Y-24031214D01*
X52340133Y-24172778D01*
X52354633Y-24320000D01*
X52340133Y-24467222D01*
X52297190Y-24608786D01*
X52227454Y-24739252D01*
X52133606Y-24853606D01*
X52019252Y-24947454D01*
X51888786Y-25017190D01*
X51747222Y-25060133D01*
X51673665Y-25067378D01*
X51636888Y-25071000D01*
X51563112Y-25071000D01*
X51526335Y-25067378D01*
X51452778Y-25060133D01*
X51311214Y-25017190D01*
X51180748Y-24947454D01*
X51066394Y-24853606D01*
X50972546Y-24739252D01*
X50902810Y-24608786D01*
X50859867Y-24467222D01*
X50845367Y-24320000D01*
X50859867Y-24172778D01*
X50902810Y-24031214D01*
X50972546Y-23900748D01*
X51066394Y-23786394D01*
X51180748Y-23692546D01*
X51311214Y-23622810D01*
X51452778Y-23579867D01*
X51526335Y-23572622D01*
X51563112Y-23569000D01*
X51636888Y-23569000D01*
X51673665Y-23572622D01*
X51673665Y-23572622D01*
G37*
G36*
X44104508Y-23579053D02*
X44199059Y-23597860D01*
X44335732Y-23654472D01*
X44457000Y-23735501D01*
X44458738Y-23736662D01*
X44563338Y-23841262D01*
X44563340Y-23841265D01*
X44645528Y-23964268D01*
X44702140Y-24100941D01*
X44731000Y-24246033D01*
X44731000Y-24393967D01*
X44702140Y-24539059D01*
X44645528Y-24675732D01*
X44564446Y-24797079D01*
X44563338Y-24798738D01*
X44458738Y-24903338D01*
X44458735Y-24903340D01*
X44335732Y-24985528D01*
X44199059Y-25042140D01*
X44112004Y-25059456D01*
X44053969Y-25071000D01*
X43906031Y-25071000D01*
X43847996Y-25059456D01*
X43760941Y-25042140D01*
X43624268Y-24985528D01*
X43501265Y-24903340D01*
X43501262Y-24903338D01*
X43396662Y-24798738D01*
X43395554Y-24797079D01*
X43314472Y-24675732D01*
X43257860Y-24539059D01*
X43229000Y-24393967D01*
X43229000Y-24246033D01*
X43257860Y-24100941D01*
X43314472Y-23964268D01*
X43396660Y-23841265D01*
X43396662Y-23841262D01*
X43501262Y-23736662D01*
X43503000Y-23735501D01*
X43624268Y-23654472D01*
X43760941Y-23597860D01*
X43855492Y-23579053D01*
X43906031Y-23569000D01*
X44053969Y-23569000D01*
X44104508Y-23579053D01*
X44104508Y-23579053D01*
G37*
G36*
X49784499Y-23578445D02*
X49821993Y-23589819D01*
X49856557Y-23608294D01*
X49886847Y-23633153D01*
X49911706Y-23663443D01*
X49930181Y-23698007D01*
X49941555Y-23735501D01*
X49946000Y-23780638D01*
X49946000Y-24519362D01*
X49941555Y-24564499D01*
X49930181Y-24601993D01*
X49911706Y-24636557D01*
X49886847Y-24666847D01*
X49856557Y-24691706D01*
X49821993Y-24710181D01*
X49784499Y-24721555D01*
X49739362Y-24726000D01*
X49100638Y-24726000D01*
X49055501Y-24721555D01*
X49018007Y-24710181D01*
X48983443Y-24691706D01*
X48953153Y-24666847D01*
X48928294Y-24636557D01*
X48909819Y-24601993D01*
X48898445Y-24564499D01*
X48894000Y-24519362D01*
X48894000Y-23780638D01*
X48898445Y-23735501D01*
X48909819Y-23698007D01*
X48928294Y-23663443D01*
X48953153Y-23633153D01*
X48983443Y-23608294D01*
X49018007Y-23589819D01*
X49055501Y-23578445D01*
X49100638Y-23574000D01*
X49739362Y-23574000D01*
X49784499Y-23578445D01*
X49784499Y-23578445D01*
G37*
G36*
X48284499Y-23578445D02*
X48321993Y-23589819D01*
X48356557Y-23608294D01*
X48386847Y-23633153D01*
X48411706Y-23663443D01*
X48430181Y-23698007D01*
X48441555Y-23735501D01*
X48446000Y-23780638D01*
X48446000Y-24519362D01*
X48441555Y-24564499D01*
X48430181Y-24601993D01*
X48411706Y-24636557D01*
X48386847Y-24666847D01*
X48356557Y-24691706D01*
X48321993Y-24710181D01*
X48284499Y-24721555D01*
X48239362Y-24726000D01*
X47600638Y-24726000D01*
X47555501Y-24721555D01*
X47518007Y-24710181D01*
X47483443Y-24691706D01*
X47453153Y-24666847D01*
X47428294Y-24636557D01*
X47409819Y-24601993D01*
X47398445Y-24564499D01*
X47394000Y-24519362D01*
X47394000Y-23780638D01*
X47398445Y-23735501D01*
X47409819Y-23698007D01*
X47428294Y-23663443D01*
X47453153Y-23633153D01*
X47483443Y-23608294D01*
X47518007Y-23589819D01*
X47555501Y-23578445D01*
X47600638Y-23574000D01*
X48239362Y-23574000D01*
X48284499Y-23578445D01*
X48284499Y-23578445D01*
G37*
G36*
X46784499Y-23578445D02*
X46821993Y-23589819D01*
X46856557Y-23608294D01*
X46886847Y-23633153D01*
X46911706Y-23663443D01*
X46930181Y-23698007D01*
X46941555Y-23735501D01*
X46946000Y-23780638D01*
X46946000Y-24519362D01*
X46941555Y-24564499D01*
X46930181Y-24601993D01*
X46911706Y-24636557D01*
X46886847Y-24666847D01*
X46856557Y-24691706D01*
X46821993Y-24710181D01*
X46784499Y-24721555D01*
X46739362Y-24726000D01*
X46100638Y-24726000D01*
X46055501Y-24721555D01*
X46018007Y-24710181D01*
X45983443Y-24691706D01*
X45953153Y-24666847D01*
X45928294Y-24636557D01*
X45909819Y-24601993D01*
X45898445Y-24564499D01*
X45894000Y-24519362D01*
X45894000Y-23780638D01*
X45898445Y-23735501D01*
X45909819Y-23698007D01*
X45928294Y-23663443D01*
X45953153Y-23633153D01*
X45983443Y-23608294D01*
X46018007Y-23589819D01*
X46055501Y-23578445D01*
X46100638Y-23574000D01*
X46739362Y-23574000D01*
X46784499Y-23578445D01*
X46784499Y-23578445D01*
G37*
G36*
X38129591Y-22403085D02*
X38163569Y-22413393D01*
X38194887Y-22430133D01*
X38222339Y-22452661D01*
X38244867Y-22480113D01*
X38261607Y-22511431D01*
X38271915Y-22545409D01*
X38276000Y-22586890D01*
X38276000Y-23188110D01*
X38271915Y-23229591D01*
X38261607Y-23263569D01*
X38244867Y-23294887D01*
X38222339Y-23322339D01*
X38194887Y-23344867D01*
X38163569Y-23361607D01*
X38129591Y-23371915D01*
X38088110Y-23376000D01*
X37411890Y-23376000D01*
X37370409Y-23371915D01*
X37336431Y-23361607D01*
X37305113Y-23344867D01*
X37277661Y-23322339D01*
X37255133Y-23294887D01*
X37238393Y-23263569D01*
X37228085Y-23229591D01*
X37224000Y-23188110D01*
X37224000Y-22586890D01*
X37228085Y-22545409D01*
X37238393Y-22511431D01*
X37255133Y-22480113D01*
X37277661Y-22452661D01*
X37305113Y-22430133D01*
X37336431Y-22413393D01*
X37370409Y-22403085D01*
X37411890Y-22399000D01*
X38088110Y-22399000D01*
X38129591Y-22403085D01*
X38129591Y-22403085D01*
G37*
G36*
X39729591Y-22353085D02*
X39763569Y-22363393D01*
X39794887Y-22380133D01*
X39822339Y-22402661D01*
X39844867Y-22430113D01*
X39861607Y-22461431D01*
X39871915Y-22495409D01*
X39876000Y-22536890D01*
X39876000Y-23138110D01*
X39871915Y-23179591D01*
X39861607Y-23213569D01*
X39844867Y-23244887D01*
X39822339Y-23272339D01*
X39794887Y-23294867D01*
X39763569Y-23311607D01*
X39729591Y-23321915D01*
X39688110Y-23326000D01*
X39011890Y-23326000D01*
X38970409Y-23321915D01*
X38936431Y-23311607D01*
X38905113Y-23294867D01*
X38877661Y-23272339D01*
X38855133Y-23244887D01*
X38838393Y-23213569D01*
X38828085Y-23179591D01*
X38824000Y-23138110D01*
X38824000Y-22536890D01*
X38828085Y-22495409D01*
X38838393Y-22461431D01*
X38855133Y-22430113D01*
X38877661Y-22402661D01*
X38905113Y-22380133D01*
X38936431Y-22363393D01*
X38970409Y-22353085D01*
X39011890Y-22349000D01*
X39688110Y-22349000D01*
X39729591Y-22353085D01*
X39729591Y-22353085D01*
G37*
G36*
X46784499Y-21828445D02*
X46821993Y-21839819D01*
X46856557Y-21858294D01*
X46886847Y-21883153D01*
X46911706Y-21913443D01*
X46930181Y-21948007D01*
X46941555Y-21985501D01*
X46946000Y-22030638D01*
X46946000Y-22769362D01*
X46941555Y-22814499D01*
X46930181Y-22851993D01*
X46911706Y-22886557D01*
X46886847Y-22916847D01*
X46856557Y-22941706D01*
X46821993Y-22960181D01*
X46784499Y-22971555D01*
X46739362Y-22976000D01*
X46100638Y-22976000D01*
X46055501Y-22971555D01*
X46018007Y-22960181D01*
X45983443Y-22941706D01*
X45953153Y-22916847D01*
X45928294Y-22886557D01*
X45909819Y-22851993D01*
X45898445Y-22814499D01*
X45894000Y-22769362D01*
X45894000Y-22030638D01*
X45898445Y-21985501D01*
X45909819Y-21948007D01*
X45928294Y-21913443D01*
X45953153Y-21883153D01*
X45983443Y-21858294D01*
X46018007Y-21839819D01*
X46055501Y-21828445D01*
X46100638Y-21824000D01*
X46739362Y-21824000D01*
X46784499Y-21828445D01*
X46784499Y-21828445D01*
G37*
G36*
X48284499Y-21828445D02*
X48321993Y-21839819D01*
X48356557Y-21858294D01*
X48386847Y-21883153D01*
X48411706Y-21913443D01*
X48430181Y-21948007D01*
X48441555Y-21985501D01*
X48446000Y-22030638D01*
X48446000Y-22769362D01*
X48441555Y-22814499D01*
X48430181Y-22851993D01*
X48411706Y-22886557D01*
X48386847Y-22916847D01*
X48356557Y-22941706D01*
X48321993Y-22960181D01*
X48284499Y-22971555D01*
X48239362Y-22976000D01*
X47600638Y-22976000D01*
X47555501Y-22971555D01*
X47518007Y-22960181D01*
X47483443Y-22941706D01*
X47453153Y-22916847D01*
X47428294Y-22886557D01*
X47409819Y-22851993D01*
X47398445Y-22814499D01*
X47394000Y-22769362D01*
X47394000Y-22030638D01*
X47398445Y-21985501D01*
X47409819Y-21948007D01*
X47428294Y-21913443D01*
X47453153Y-21883153D01*
X47483443Y-21858294D01*
X47518007Y-21839819D01*
X47555501Y-21828445D01*
X47600638Y-21824000D01*
X48239362Y-21824000D01*
X48284499Y-21828445D01*
X48284499Y-21828445D01*
G37*
G36*
X49784499Y-21828445D02*
X49821993Y-21839819D01*
X49856557Y-21858294D01*
X49886847Y-21883153D01*
X49911706Y-21913443D01*
X49930181Y-21948007D01*
X49941555Y-21985501D01*
X49946000Y-22030638D01*
X49946000Y-22769362D01*
X49941555Y-22814499D01*
X49930181Y-22851993D01*
X49911706Y-22886557D01*
X49886847Y-22916847D01*
X49856557Y-22941706D01*
X49821993Y-22960181D01*
X49784499Y-22971555D01*
X49739362Y-22976000D01*
X49100638Y-22976000D01*
X49055501Y-22971555D01*
X49018007Y-22960181D01*
X48983443Y-22941706D01*
X48953153Y-22916847D01*
X48928294Y-22886557D01*
X48909819Y-22851993D01*
X48898445Y-22814499D01*
X48894000Y-22769362D01*
X48894000Y-22030638D01*
X48898445Y-21985501D01*
X48909819Y-21948007D01*
X48928294Y-21913443D01*
X48953153Y-21883153D01*
X48983443Y-21858294D01*
X49018007Y-21839819D01*
X49055501Y-21828445D01*
X49100638Y-21824000D01*
X49739362Y-21824000D01*
X49784499Y-21828445D01*
X49784499Y-21828445D01*
G37*
G36*
X51673665Y-21032622D02*
X51747222Y-21039867D01*
X51888786Y-21082810D01*
X52019252Y-21152546D01*
X52133606Y-21246394D01*
X52227454Y-21360748D01*
X52297190Y-21491214D01*
X52340133Y-21632778D01*
X52354633Y-21780000D01*
X52340133Y-21927222D01*
X52297190Y-22068786D01*
X52227454Y-22199252D01*
X52133606Y-22313606D01*
X52019252Y-22407454D01*
X51888786Y-22477190D01*
X51747222Y-22520133D01*
X51673665Y-22527378D01*
X51636888Y-22531000D01*
X51563112Y-22531000D01*
X51526335Y-22527378D01*
X51452778Y-22520133D01*
X51311214Y-22477190D01*
X51180748Y-22407454D01*
X51066394Y-22313606D01*
X50972546Y-22199252D01*
X50902810Y-22068786D01*
X50859867Y-21927222D01*
X50845367Y-21780000D01*
X50859867Y-21632778D01*
X50902810Y-21491214D01*
X50972546Y-21360748D01*
X51066394Y-21246394D01*
X51180748Y-21152546D01*
X51311214Y-21082810D01*
X51452778Y-21039867D01*
X51526335Y-21032622D01*
X51563112Y-21029000D01*
X51636888Y-21029000D01*
X51673665Y-21032622D01*
X51673665Y-21032622D01*
G37*
G36*
X44108600Y-21039867D02*
X44199059Y-21057860D01*
X44335732Y-21114472D01*
X44392715Y-21152547D01*
X44458738Y-21196662D01*
X44563338Y-21301262D01*
X44563340Y-21301265D01*
X44645528Y-21424268D01*
X44702140Y-21560941D01*
X44710822Y-21604591D01*
X44731000Y-21706031D01*
X44731000Y-21853969D01*
X44725195Y-21883153D01*
X44702140Y-21999059D01*
X44645528Y-22135732D01*
X44564446Y-22257079D01*
X44563338Y-22258738D01*
X44458738Y-22363338D01*
X44458735Y-22363340D01*
X44335732Y-22445528D01*
X44199059Y-22502140D01*
X44112004Y-22519456D01*
X44053969Y-22531000D01*
X43906031Y-22531000D01*
X43847996Y-22519456D01*
X43760941Y-22502140D01*
X43624268Y-22445528D01*
X43501265Y-22363340D01*
X43501262Y-22363338D01*
X43396662Y-22258738D01*
X43395554Y-22257079D01*
X43314472Y-22135732D01*
X43257860Y-21999059D01*
X43234805Y-21883153D01*
X43229000Y-21853969D01*
X43229000Y-21706031D01*
X43249178Y-21604591D01*
X43257860Y-21560941D01*
X43314472Y-21424268D01*
X43396660Y-21301265D01*
X43396662Y-21301262D01*
X43501262Y-21196662D01*
X43567285Y-21152547D01*
X43624268Y-21114472D01*
X43760941Y-21057860D01*
X43851400Y-21039867D01*
X43906031Y-21029000D01*
X44053969Y-21029000D01*
X44108600Y-21039867D01*
X44108600Y-21039867D01*
G37*
G36*
X42051000Y-21951000D02*
X40749000Y-21951000D01*
X40749000Y-20949000D01*
X42051000Y-20949000D01*
X42051000Y-21951000D01*
X42051000Y-21951000D01*
G37*
G36*
X38129591Y-20828085D02*
X38163569Y-20838393D01*
X38194887Y-20855133D01*
X38222339Y-20877661D01*
X38244867Y-20905113D01*
X38261607Y-20936431D01*
X38271915Y-20970409D01*
X38276000Y-21011890D01*
X38276000Y-21613110D01*
X38271915Y-21654591D01*
X38261607Y-21688569D01*
X38244867Y-21719887D01*
X38222339Y-21747339D01*
X38194887Y-21769867D01*
X38163569Y-21786607D01*
X38129591Y-21796915D01*
X38088110Y-21801000D01*
X37411890Y-21801000D01*
X37370409Y-21796915D01*
X37336431Y-21786607D01*
X37305113Y-21769867D01*
X37277661Y-21747339D01*
X37255133Y-21719887D01*
X37238393Y-21688569D01*
X37228085Y-21654591D01*
X37224000Y-21613110D01*
X37224000Y-21011890D01*
X37228085Y-20970409D01*
X37238393Y-20936431D01*
X37255133Y-20905113D01*
X37277661Y-20877661D01*
X37305113Y-20855133D01*
X37336431Y-20838393D01*
X37370409Y-20828085D01*
X37411890Y-20824000D01*
X38088110Y-20824000D01*
X38129591Y-20828085D01*
X38129591Y-20828085D01*
G37*
G36*
X39729591Y-20778085D02*
X39763569Y-20788393D01*
X39794887Y-20805133D01*
X39822339Y-20827661D01*
X39844867Y-20855113D01*
X39861607Y-20886431D01*
X39871915Y-20920409D01*
X39876000Y-20961890D01*
X39876000Y-21563110D01*
X39871915Y-21604591D01*
X39861607Y-21638569D01*
X39844867Y-21669887D01*
X39822339Y-21697339D01*
X39794887Y-21719867D01*
X39763569Y-21736607D01*
X39729591Y-21746915D01*
X39688110Y-21751000D01*
X39011890Y-21751000D01*
X38970409Y-21746915D01*
X38936431Y-21736607D01*
X38905113Y-21719867D01*
X38877661Y-21697339D01*
X38855133Y-21669887D01*
X38838393Y-21638569D01*
X38828085Y-21604591D01*
X38824000Y-21563110D01*
X38824000Y-20961890D01*
X38828085Y-20920409D01*
X38838393Y-20886431D01*
X38855133Y-20855113D01*
X38877661Y-20827661D01*
X38905113Y-20805133D01*
X38936431Y-20788393D01*
X38970409Y-20778085D01*
X39011890Y-20774000D01*
X39688110Y-20774000D01*
X39729591Y-20778085D01*
X39729591Y-20778085D01*
G37*
G36*
X52409499Y-19178445D02*
X52446993Y-19189819D01*
X52481557Y-19208294D01*
X52511847Y-19233153D01*
X52536706Y-19263443D01*
X52555181Y-19298007D01*
X52566555Y-19335501D01*
X52571000Y-19380638D01*
X52571000Y-20019362D01*
X52566555Y-20064499D01*
X52555181Y-20101993D01*
X52536706Y-20136557D01*
X52511847Y-20166847D01*
X52481557Y-20191706D01*
X52446993Y-20210181D01*
X52409499Y-20221555D01*
X52364362Y-20226000D01*
X51625638Y-20226000D01*
X51580501Y-20221555D01*
X51543007Y-20210181D01*
X51508443Y-20191706D01*
X51478153Y-20166847D01*
X51453294Y-20136557D01*
X51434819Y-20101993D01*
X51423445Y-20064499D01*
X51419000Y-20019362D01*
X51419000Y-19380638D01*
X51423445Y-19335501D01*
X51434819Y-19298007D01*
X51453294Y-19263443D01*
X51478153Y-19233153D01*
X51508443Y-19208294D01*
X51543007Y-19189819D01*
X51580501Y-19178445D01*
X51625638Y-19174000D01*
X52364362Y-19174000D01*
X52409499Y-19178445D01*
X52409499Y-19178445D01*
G37*
G36*
X49224591Y-19178085D02*
X49258569Y-19188393D01*
X49289887Y-19205133D01*
X49317339Y-19227661D01*
X49339867Y-19255113D01*
X49356607Y-19286431D01*
X49366915Y-19320409D01*
X49371000Y-19361890D01*
X49371000Y-20038110D01*
X49366915Y-20079591D01*
X49356607Y-20113569D01*
X49339867Y-20144887D01*
X49317339Y-20172339D01*
X49289887Y-20194867D01*
X49258569Y-20211607D01*
X49224591Y-20221915D01*
X49183110Y-20226000D01*
X48581890Y-20226000D01*
X48540409Y-20221915D01*
X48506431Y-20211607D01*
X48475113Y-20194867D01*
X48447661Y-20172339D01*
X48425133Y-20144887D01*
X48408393Y-20113569D01*
X48398085Y-20079591D01*
X48394000Y-20038110D01*
X48394000Y-19361890D01*
X48398085Y-19320409D01*
X48408393Y-19286431D01*
X48425133Y-19255113D01*
X48447661Y-19227661D01*
X48475113Y-19205133D01*
X48506431Y-19188393D01*
X48540409Y-19178085D01*
X48581890Y-19174000D01*
X49183110Y-19174000D01*
X49224591Y-19178085D01*
X49224591Y-19178085D01*
G37*
G36*
X50799591Y-19178085D02*
X50833569Y-19188393D01*
X50864887Y-19205133D01*
X50892339Y-19227661D01*
X50914867Y-19255113D01*
X50931607Y-19286431D01*
X50941915Y-19320409D01*
X50946000Y-19361890D01*
X50946000Y-20038110D01*
X50941915Y-20079591D01*
X50931607Y-20113569D01*
X50914867Y-20144887D01*
X50892339Y-20172339D01*
X50864887Y-20194867D01*
X50833569Y-20211607D01*
X50799591Y-20221915D01*
X50758110Y-20226000D01*
X50156890Y-20226000D01*
X50115409Y-20221915D01*
X50081431Y-20211607D01*
X50050113Y-20194867D01*
X50022661Y-20172339D01*
X50000133Y-20144887D01*
X49983393Y-20113569D01*
X49973085Y-20079591D01*
X49969000Y-20038110D01*
X49969000Y-19361890D01*
X49973085Y-19320409D01*
X49983393Y-19286431D01*
X50000133Y-19255113D01*
X50022661Y-19227661D01*
X50050113Y-19205133D01*
X50081431Y-19188393D01*
X50115409Y-19178085D01*
X50156890Y-19174000D01*
X50758110Y-19174000D01*
X50799591Y-19178085D01*
X50799591Y-19178085D01*
G37*
G36*
X41354591Y-19178085D02*
X41388569Y-19188393D01*
X41419887Y-19205133D01*
X41447339Y-19227661D01*
X41469867Y-19255113D01*
X41486607Y-19286431D01*
X41496915Y-19320409D01*
X41501000Y-19361890D01*
X41501000Y-20038110D01*
X41496915Y-20079591D01*
X41486607Y-20113569D01*
X41469867Y-20144887D01*
X41447339Y-20172339D01*
X41419887Y-20194867D01*
X41388569Y-20211607D01*
X41354591Y-20221915D01*
X41313110Y-20226000D01*
X40711890Y-20226000D01*
X40670409Y-20221915D01*
X40636431Y-20211607D01*
X40605113Y-20194867D01*
X40577661Y-20172339D01*
X40555133Y-20144887D01*
X40538393Y-20113569D01*
X40528085Y-20079591D01*
X40524000Y-20038110D01*
X40524000Y-19361890D01*
X40528085Y-19320409D01*
X40538393Y-19286431D01*
X40555133Y-19255113D01*
X40577661Y-19227661D01*
X40605113Y-19205133D01*
X40636431Y-19188393D01*
X40670409Y-19178085D01*
X40711890Y-19174000D01*
X41313110Y-19174000D01*
X41354591Y-19178085D01*
X41354591Y-19178085D01*
G37*
G36*
X42929591Y-19178085D02*
X42963569Y-19188393D01*
X42994887Y-19205133D01*
X43022339Y-19227661D01*
X43044867Y-19255113D01*
X43061607Y-19286431D01*
X43071915Y-19320409D01*
X43076000Y-19361890D01*
X43076000Y-20038110D01*
X43071915Y-20079591D01*
X43061607Y-20113569D01*
X43044867Y-20144887D01*
X43022339Y-20172339D01*
X42994887Y-20194867D01*
X42963569Y-20211607D01*
X42929591Y-20221915D01*
X42888110Y-20226000D01*
X42286890Y-20226000D01*
X42245409Y-20221915D01*
X42211431Y-20211607D01*
X42180113Y-20194867D01*
X42152661Y-20172339D01*
X42130133Y-20144887D01*
X42113393Y-20113569D01*
X42103085Y-20079591D01*
X42099000Y-20038110D01*
X42099000Y-19361890D01*
X42103085Y-19320409D01*
X42113393Y-19286431D01*
X42130133Y-19255113D01*
X42152661Y-19227661D01*
X42180113Y-19205133D01*
X42211431Y-19188393D01*
X42245409Y-19178085D01*
X42286890Y-19174000D01*
X42888110Y-19174000D01*
X42929591Y-19178085D01*
X42929591Y-19178085D01*
G37*
G36*
X38139499Y-19178445D02*
X38176993Y-19189819D01*
X38211557Y-19208294D01*
X38241847Y-19233153D01*
X38266706Y-19263443D01*
X38285181Y-19298007D01*
X38296555Y-19335501D01*
X38301000Y-19380638D01*
X38301000Y-20019362D01*
X38296555Y-20064499D01*
X38285181Y-20101993D01*
X38266706Y-20136557D01*
X38241847Y-20166847D01*
X38211557Y-20191706D01*
X38176993Y-20210181D01*
X38139499Y-20221555D01*
X38094362Y-20226000D01*
X37355638Y-20226000D01*
X37310501Y-20221555D01*
X37273007Y-20210181D01*
X37238443Y-20191706D01*
X37208153Y-20166847D01*
X37183294Y-20136557D01*
X37164819Y-20101993D01*
X37153445Y-20064499D01*
X37149000Y-20019362D01*
X37149000Y-19380638D01*
X37153445Y-19335501D01*
X37164819Y-19298007D01*
X37183294Y-19263443D01*
X37208153Y-19233153D01*
X37238443Y-19208294D01*
X37273007Y-19189819D01*
X37310501Y-19178445D01*
X37355638Y-19174000D01*
X38094362Y-19174000D01*
X38139499Y-19178445D01*
X38139499Y-19178445D01*
G37*
G36*
X39889499Y-19178445D02*
X39926993Y-19189819D01*
X39961557Y-19208294D01*
X39991847Y-19233153D01*
X40016706Y-19263443D01*
X40035181Y-19298007D01*
X40046555Y-19335501D01*
X40051000Y-19380638D01*
X40051000Y-20019362D01*
X40046555Y-20064499D01*
X40035181Y-20101993D01*
X40016706Y-20136557D01*
X39991847Y-20166847D01*
X39961557Y-20191706D01*
X39926993Y-20210181D01*
X39889499Y-20221555D01*
X39844362Y-20226000D01*
X39105638Y-20226000D01*
X39060501Y-20221555D01*
X39023007Y-20210181D01*
X38988443Y-20191706D01*
X38958153Y-20166847D01*
X38933294Y-20136557D01*
X38914819Y-20101993D01*
X38903445Y-20064499D01*
X38899000Y-20019362D01*
X38899000Y-19380638D01*
X38903445Y-19335501D01*
X38914819Y-19298007D01*
X38933294Y-19263443D01*
X38958153Y-19233153D01*
X38988443Y-19208294D01*
X39023007Y-19189819D01*
X39060501Y-19178445D01*
X39105638Y-19174000D01*
X39844362Y-19174000D01*
X39889499Y-19178445D01*
X39889499Y-19178445D01*
G37*
G36*
X54159499Y-19178445D02*
X54196993Y-19189819D01*
X54231557Y-19208294D01*
X54261847Y-19233153D01*
X54286706Y-19263443D01*
X54305181Y-19298007D01*
X54316555Y-19335501D01*
X54321000Y-19380638D01*
X54321000Y-20019362D01*
X54316555Y-20064499D01*
X54305181Y-20101993D01*
X54286706Y-20136557D01*
X54261847Y-20166847D01*
X54231557Y-20191706D01*
X54196993Y-20210181D01*
X54159499Y-20221555D01*
X54114362Y-20226000D01*
X53375638Y-20226000D01*
X53330501Y-20221555D01*
X53293007Y-20210181D01*
X53258443Y-20191706D01*
X53228153Y-20166847D01*
X53203294Y-20136557D01*
X53184819Y-20101993D01*
X53173445Y-20064499D01*
X53169000Y-20019362D01*
X53169000Y-19380638D01*
X53173445Y-19335501D01*
X53184819Y-19298007D01*
X53203294Y-19263443D01*
X53228153Y-19233153D01*
X53258443Y-19208294D01*
X53293007Y-19189819D01*
X53330501Y-19178445D01*
X53375638Y-19174000D01*
X54114362Y-19174000D01*
X54159499Y-19178445D01*
X54159499Y-19178445D01*
G37*
G36*
X45830442Y-15615518D02*
X45896627Y-15622037D01*
X46009853Y-15656384D01*
X46066467Y-15673557D01*
X46205087Y-15747652D01*
X46222991Y-15757222D01*
X46258729Y-15786552D01*
X46360186Y-15869814D01*
X46443448Y-15971271D01*
X46472778Y-16007009D01*
X46472779Y-16007011D01*
X46556443Y-16163533D01*
X46556443Y-16163534D01*
X46607963Y-16333373D01*
X46625359Y-16510000D01*
X46607963Y-16686627D01*
X46573616Y-16799853D01*
X46556443Y-16856467D01*
X46482348Y-16995087D01*
X46472778Y-17012991D01*
X46443448Y-17048729D01*
X46360186Y-17150186D01*
X46258729Y-17233448D01*
X46222991Y-17262778D01*
X46222989Y-17262779D01*
X46066467Y-17346443D01*
X46009853Y-17363616D01*
X45896627Y-17397963D01*
X45830442Y-17404482D01*
X45764260Y-17411000D01*
X45675740Y-17411000D01*
X45609558Y-17404482D01*
X45543373Y-17397963D01*
X45430147Y-17363616D01*
X45373533Y-17346443D01*
X45217011Y-17262779D01*
X45217009Y-17262778D01*
X45181271Y-17233448D01*
X45079814Y-17150186D01*
X44996552Y-17048729D01*
X44967222Y-17012991D01*
X44957652Y-16995087D01*
X44883557Y-16856467D01*
X44866384Y-16799853D01*
X44832037Y-16686627D01*
X44814641Y-16510000D01*
X44832037Y-16333373D01*
X44883557Y-16163534D01*
X44883557Y-16163533D01*
X44967221Y-16007011D01*
X44967222Y-16007009D01*
X44996552Y-15971271D01*
X45079814Y-15869814D01*
X45181271Y-15786552D01*
X45217009Y-15757222D01*
X45234913Y-15747652D01*
X45373533Y-15673557D01*
X45430147Y-15656384D01*
X45543373Y-15622037D01*
X45609558Y-15615518D01*
X45675740Y-15609000D01*
X45764260Y-15609000D01*
X45830442Y-15615518D01*
X45830442Y-15615518D01*
G37*
G36*
X48370442Y-15615518D02*
X48436627Y-15622037D01*
X48549853Y-15656384D01*
X48606467Y-15673557D01*
X48745087Y-15747652D01*
X48762991Y-15757222D01*
X48798729Y-15786552D01*
X48900186Y-15869814D01*
X48983448Y-15971271D01*
X49012778Y-16007009D01*
X49012779Y-16007011D01*
X49096443Y-16163533D01*
X49096443Y-16163534D01*
X49147963Y-16333373D01*
X49165359Y-16510000D01*
X49147963Y-16686627D01*
X49113616Y-16799853D01*
X49096443Y-16856467D01*
X49022348Y-16995087D01*
X49012778Y-17012991D01*
X48983448Y-17048729D01*
X48900186Y-17150186D01*
X48798729Y-17233448D01*
X48762991Y-17262778D01*
X48762989Y-17262779D01*
X48606467Y-17346443D01*
X48549853Y-17363616D01*
X48436627Y-17397963D01*
X48370442Y-17404482D01*
X48304260Y-17411000D01*
X48215740Y-17411000D01*
X48149558Y-17404482D01*
X48083373Y-17397963D01*
X47970147Y-17363616D01*
X47913533Y-17346443D01*
X47757011Y-17262779D01*
X47757009Y-17262778D01*
X47721271Y-17233448D01*
X47619814Y-17150186D01*
X47536552Y-17048729D01*
X47507222Y-17012991D01*
X47497652Y-16995087D01*
X47423557Y-16856467D01*
X47406384Y-16799853D01*
X47372037Y-16686627D01*
X47354641Y-16510000D01*
X47372037Y-16333373D01*
X47423557Y-16163534D01*
X47423557Y-16163533D01*
X47507221Y-16007011D01*
X47507222Y-16007009D01*
X47536552Y-15971271D01*
X47619814Y-15869814D01*
X47721271Y-15786552D01*
X47757009Y-15757222D01*
X47774913Y-15747652D01*
X47913533Y-15673557D01*
X47970147Y-15656384D01*
X48083373Y-15622037D01*
X48149558Y-15615518D01*
X48215740Y-15609000D01*
X48304260Y-15609000D01*
X48370442Y-15615518D01*
X48370442Y-15615518D01*
G37*
G36*
X50910442Y-15615518D02*
X50976627Y-15622037D01*
X51089853Y-15656384D01*
X51146467Y-15673557D01*
X51285087Y-15747652D01*
X51302991Y-15757222D01*
X51338729Y-15786552D01*
X51440186Y-15869814D01*
X51523448Y-15971271D01*
X51552778Y-16007009D01*
X51552779Y-16007011D01*
X51636443Y-16163533D01*
X51636443Y-16163534D01*
X51687963Y-16333373D01*
X51705359Y-16510000D01*
X51687963Y-16686627D01*
X51653616Y-16799853D01*
X51636443Y-16856467D01*
X51562348Y-16995087D01*
X51552778Y-17012991D01*
X51523448Y-17048729D01*
X51440186Y-17150186D01*
X51338729Y-17233448D01*
X51302991Y-17262778D01*
X51302989Y-17262779D01*
X51146467Y-17346443D01*
X51089853Y-17363616D01*
X50976627Y-17397963D01*
X50910442Y-17404482D01*
X50844260Y-17411000D01*
X50755740Y-17411000D01*
X50689558Y-17404482D01*
X50623373Y-17397963D01*
X50510147Y-17363616D01*
X50453533Y-17346443D01*
X50297011Y-17262779D01*
X50297009Y-17262778D01*
X50261271Y-17233448D01*
X50159814Y-17150186D01*
X50076552Y-17048729D01*
X50047222Y-17012991D01*
X50037652Y-16995087D01*
X49963557Y-16856467D01*
X49946384Y-16799853D01*
X49912037Y-16686627D01*
X49894641Y-16510000D01*
X49912037Y-16333373D01*
X49963557Y-16163534D01*
X49963557Y-16163533D01*
X50047221Y-16007011D01*
X50047222Y-16007009D01*
X50076552Y-15971271D01*
X50159814Y-15869814D01*
X50261271Y-15786552D01*
X50297009Y-15757222D01*
X50314913Y-15747652D01*
X50453533Y-15673557D01*
X50510147Y-15656384D01*
X50623373Y-15622037D01*
X50689558Y-15615518D01*
X50755740Y-15609000D01*
X50844260Y-15609000D01*
X50910442Y-15615518D01*
X50910442Y-15615518D01*
G37*
G36*
X43290442Y-15615518D02*
X43356627Y-15622037D01*
X43469853Y-15656384D01*
X43526467Y-15673557D01*
X43665087Y-15747652D01*
X43682991Y-15757222D01*
X43718729Y-15786552D01*
X43820186Y-15869814D01*
X43903448Y-15971271D01*
X43932778Y-16007009D01*
X43932779Y-16007011D01*
X44016443Y-16163533D01*
X44016443Y-16163534D01*
X44067963Y-16333373D01*
X44085359Y-16510000D01*
X44067963Y-16686627D01*
X44033616Y-16799853D01*
X44016443Y-16856467D01*
X43942348Y-16995087D01*
X43932778Y-17012991D01*
X43903448Y-17048729D01*
X43820186Y-17150186D01*
X43718729Y-17233448D01*
X43682991Y-17262778D01*
X43682989Y-17262779D01*
X43526467Y-17346443D01*
X43469853Y-17363616D01*
X43356627Y-17397963D01*
X43290442Y-17404482D01*
X43224260Y-17411000D01*
X43135740Y-17411000D01*
X43069558Y-17404482D01*
X43003373Y-17397963D01*
X42890147Y-17363616D01*
X42833533Y-17346443D01*
X42677011Y-17262779D01*
X42677009Y-17262778D01*
X42641271Y-17233448D01*
X42539814Y-17150186D01*
X42456552Y-17048729D01*
X42427222Y-17012991D01*
X42417652Y-16995087D01*
X42343557Y-16856467D01*
X42326384Y-16799853D01*
X42292037Y-16686627D01*
X42274641Y-16510000D01*
X42292037Y-16333373D01*
X42343557Y-16163534D01*
X42343557Y-16163533D01*
X42427221Y-16007011D01*
X42427222Y-16007009D01*
X42456552Y-15971271D01*
X42539814Y-15869814D01*
X42641271Y-15786552D01*
X42677009Y-15757222D01*
X42694913Y-15747652D01*
X42833533Y-15673557D01*
X42890147Y-15656384D01*
X43003373Y-15622037D01*
X43069558Y-15615518D01*
X43135740Y-15609000D01*
X43224260Y-15609000D01*
X43290442Y-15615518D01*
X43290442Y-15615518D01*
G37*
G36*
X40750442Y-15615518D02*
X40816627Y-15622037D01*
X40929853Y-15656384D01*
X40986467Y-15673557D01*
X41125087Y-15747652D01*
X41142991Y-15757222D01*
X41178729Y-15786552D01*
X41280186Y-15869814D01*
X41363448Y-15971271D01*
X41392778Y-16007009D01*
X41392779Y-16007011D01*
X41476443Y-16163533D01*
X41476443Y-16163534D01*
X41527963Y-16333373D01*
X41545359Y-16510000D01*
X41527963Y-16686627D01*
X41493616Y-16799853D01*
X41476443Y-16856467D01*
X41402348Y-16995087D01*
X41392778Y-17012991D01*
X41363448Y-17048729D01*
X41280186Y-17150186D01*
X41178729Y-17233448D01*
X41142991Y-17262778D01*
X41142989Y-17262779D01*
X40986467Y-17346443D01*
X40929853Y-17363616D01*
X40816627Y-17397963D01*
X40750442Y-17404482D01*
X40684260Y-17411000D01*
X40595740Y-17411000D01*
X40529558Y-17404482D01*
X40463373Y-17397963D01*
X40350147Y-17363616D01*
X40293533Y-17346443D01*
X40137011Y-17262779D01*
X40137009Y-17262778D01*
X40101271Y-17233448D01*
X39999814Y-17150186D01*
X39916552Y-17048729D01*
X39887222Y-17012991D01*
X39877652Y-16995087D01*
X39803557Y-16856467D01*
X39786384Y-16799853D01*
X39752037Y-16686627D01*
X39734641Y-16510000D01*
X39752037Y-16333373D01*
X39803557Y-16163534D01*
X39803557Y-16163533D01*
X39887221Y-16007011D01*
X39887222Y-16007009D01*
X39916552Y-15971271D01*
X39999814Y-15869814D01*
X40101271Y-15786552D01*
X40137009Y-15757222D01*
X40154913Y-15747652D01*
X40293533Y-15673557D01*
X40350147Y-15656384D01*
X40463373Y-15622037D01*
X40529558Y-15615518D01*
X40595740Y-15609000D01*
X40684260Y-15609000D01*
X40750442Y-15615518D01*
X40750442Y-15615518D01*
G37*
G36*
X39001000Y-17411000D02*
X37199000Y-17411000D01*
X37199000Y-15609000D01*
X39001000Y-15609000D01*
X39001000Y-17411000D01*
X39001000Y-17411000D01*
G37*
G36*
X51701000Y-13601000D02*
X49899000Y-13601000D01*
X49899000Y-11799000D01*
X51701000Y-11799000D01*
X51701000Y-13601000D01*
X51701000Y-13601000D01*
G37*
G36*
X43290443Y-11805519D02*
X43356627Y-11812037D01*
X43469853Y-11846384D01*
X43526467Y-11863557D01*
X43665087Y-11937652D01*
X43682991Y-11947222D01*
X43718729Y-11976552D01*
X43820186Y-12059814D01*
X43903448Y-12161271D01*
X43932778Y-12197009D01*
X43932779Y-12197011D01*
X44016443Y-12353533D01*
X44016443Y-12353534D01*
X44067963Y-12523373D01*
X44085359Y-12700000D01*
X44067963Y-12876627D01*
X44033616Y-12989853D01*
X44016443Y-13046467D01*
X43942348Y-13185087D01*
X43932778Y-13202991D01*
X43903448Y-13238729D01*
X43820186Y-13340186D01*
X43718729Y-13423448D01*
X43682991Y-13452778D01*
X43682989Y-13452779D01*
X43526467Y-13536443D01*
X43469853Y-13553616D01*
X43356627Y-13587963D01*
X43290443Y-13594481D01*
X43224260Y-13601000D01*
X43135740Y-13601000D01*
X43069557Y-13594481D01*
X43003373Y-13587963D01*
X42890147Y-13553616D01*
X42833533Y-13536443D01*
X42677011Y-13452779D01*
X42677009Y-13452778D01*
X42641271Y-13423448D01*
X42539814Y-13340186D01*
X42456552Y-13238729D01*
X42427222Y-13202991D01*
X42417652Y-13185087D01*
X42343557Y-13046467D01*
X42326384Y-12989853D01*
X42292037Y-12876627D01*
X42274641Y-12700000D01*
X42292037Y-12523373D01*
X42343557Y-12353534D01*
X42343557Y-12353533D01*
X42427221Y-12197011D01*
X42427222Y-12197009D01*
X42456552Y-12161271D01*
X42539814Y-12059814D01*
X42641271Y-11976552D01*
X42677009Y-11947222D01*
X42694913Y-11937652D01*
X42833533Y-11863557D01*
X42890147Y-11846384D01*
X43003373Y-11812037D01*
X43069557Y-11805519D01*
X43135740Y-11799000D01*
X43224260Y-11799000D01*
X43290443Y-11805519D01*
X43290443Y-11805519D01*
G37*
G36*
X45830443Y-11805519D02*
X45896627Y-11812037D01*
X46009853Y-11846384D01*
X46066467Y-11863557D01*
X46205087Y-11937652D01*
X46222991Y-11947222D01*
X46258729Y-11976552D01*
X46360186Y-12059814D01*
X46443448Y-12161271D01*
X46472778Y-12197009D01*
X46472779Y-12197011D01*
X46556443Y-12353533D01*
X46556443Y-12353534D01*
X46607963Y-12523373D01*
X46625359Y-12700000D01*
X46607963Y-12876627D01*
X46573616Y-12989853D01*
X46556443Y-13046467D01*
X46482348Y-13185087D01*
X46472778Y-13202991D01*
X46443448Y-13238729D01*
X46360186Y-13340186D01*
X46258729Y-13423448D01*
X46222991Y-13452778D01*
X46222989Y-13452779D01*
X46066467Y-13536443D01*
X46009853Y-13553616D01*
X45896627Y-13587963D01*
X45830443Y-13594481D01*
X45764260Y-13601000D01*
X45675740Y-13601000D01*
X45609557Y-13594481D01*
X45543373Y-13587963D01*
X45430147Y-13553616D01*
X45373533Y-13536443D01*
X45217011Y-13452779D01*
X45217009Y-13452778D01*
X45181271Y-13423448D01*
X45079814Y-13340186D01*
X44996552Y-13238729D01*
X44967222Y-13202991D01*
X44957652Y-13185087D01*
X44883557Y-13046467D01*
X44866384Y-12989853D01*
X44832037Y-12876627D01*
X44814641Y-12700000D01*
X44832037Y-12523373D01*
X44883557Y-12353534D01*
X44883557Y-12353533D01*
X44967221Y-12197011D01*
X44967222Y-12197009D01*
X44996552Y-12161271D01*
X45079814Y-12059814D01*
X45181271Y-11976552D01*
X45217009Y-11947222D01*
X45234913Y-11937652D01*
X45373533Y-11863557D01*
X45430147Y-11846384D01*
X45543373Y-11812037D01*
X45609557Y-11805519D01*
X45675740Y-11799000D01*
X45764260Y-11799000D01*
X45830443Y-11805519D01*
X45830443Y-11805519D01*
G37*
G36*
X48370443Y-11805519D02*
X48436627Y-11812037D01*
X48549853Y-11846384D01*
X48606467Y-11863557D01*
X48745087Y-11937652D01*
X48762991Y-11947222D01*
X48798729Y-11976552D01*
X48900186Y-12059814D01*
X48983448Y-12161271D01*
X49012778Y-12197009D01*
X49012779Y-12197011D01*
X49096443Y-12353533D01*
X49096443Y-12353534D01*
X49147963Y-12523373D01*
X49165359Y-12700000D01*
X49147963Y-12876627D01*
X49113616Y-12989853D01*
X49096443Y-13046467D01*
X49022348Y-13185087D01*
X49012778Y-13202991D01*
X48983448Y-13238729D01*
X48900186Y-13340186D01*
X48798729Y-13423448D01*
X48762991Y-13452778D01*
X48762989Y-13452779D01*
X48606467Y-13536443D01*
X48549853Y-13553616D01*
X48436627Y-13587963D01*
X48370443Y-13594481D01*
X48304260Y-13601000D01*
X48215740Y-13601000D01*
X48149557Y-13594481D01*
X48083373Y-13587963D01*
X47970147Y-13553616D01*
X47913533Y-13536443D01*
X47757011Y-13452779D01*
X47757009Y-13452778D01*
X47721271Y-13423448D01*
X47619814Y-13340186D01*
X47536552Y-13238729D01*
X47507222Y-13202991D01*
X47497652Y-13185087D01*
X47423557Y-13046467D01*
X47406384Y-12989853D01*
X47372037Y-12876627D01*
X47354641Y-12700000D01*
X47372037Y-12523373D01*
X47423557Y-12353534D01*
X47423557Y-12353533D01*
X47507221Y-12197011D01*
X47507222Y-12197009D01*
X47536552Y-12161271D01*
X47619814Y-12059814D01*
X47721271Y-11976552D01*
X47757009Y-11947222D01*
X47774913Y-11937652D01*
X47913533Y-11863557D01*
X47970147Y-11846384D01*
X48083373Y-11812037D01*
X48149557Y-11805519D01*
X48215740Y-11799000D01*
X48304260Y-11799000D01*
X48370443Y-11805519D01*
X48370443Y-11805519D01*
G37*
G36*
X40750443Y-11805519D02*
X40816627Y-11812037D01*
X40929853Y-11846384D01*
X40986467Y-11863557D01*
X41125087Y-11937652D01*
X41142991Y-11947222D01*
X41178729Y-11976552D01*
X41280186Y-12059814D01*
X41363448Y-12161271D01*
X41392778Y-12197009D01*
X41392779Y-12197011D01*
X41476443Y-12353533D01*
X41476443Y-12353534D01*
X41527963Y-12523373D01*
X41545359Y-12700000D01*
X41527963Y-12876627D01*
X41493616Y-12989853D01*
X41476443Y-13046467D01*
X41402348Y-13185087D01*
X41392778Y-13202991D01*
X41363448Y-13238729D01*
X41280186Y-13340186D01*
X41178729Y-13423448D01*
X41142991Y-13452778D01*
X41142989Y-13452779D01*
X40986467Y-13536443D01*
X40929853Y-13553616D01*
X40816627Y-13587963D01*
X40750443Y-13594481D01*
X40684260Y-13601000D01*
X40595740Y-13601000D01*
X40529557Y-13594481D01*
X40463373Y-13587963D01*
X40350147Y-13553616D01*
X40293533Y-13536443D01*
X40137011Y-13452779D01*
X40137009Y-13452778D01*
X40101271Y-13423448D01*
X39999814Y-13340186D01*
X39916552Y-13238729D01*
X39887222Y-13202991D01*
X39877652Y-13185087D01*
X39803557Y-13046467D01*
X39786384Y-12989853D01*
X39752037Y-12876627D01*
X39734641Y-12700000D01*
X39752037Y-12523373D01*
X39803557Y-12353534D01*
X39803557Y-12353533D01*
X39887221Y-12197011D01*
X39887222Y-12197009D01*
X39916552Y-12161271D01*
X39999814Y-12059814D01*
X40101271Y-11976552D01*
X40137009Y-11947222D01*
X40154913Y-11937652D01*
X40293533Y-11863557D01*
X40350147Y-11846384D01*
X40463373Y-11812037D01*
X40529557Y-11805519D01*
X40595740Y-11799000D01*
X40684260Y-11799000D01*
X40750443Y-11805519D01*
X40750443Y-11805519D01*
G37*
G36*
X39001000Y-13601000D02*
X37199000Y-13601000D01*
X37199000Y-11799000D01*
X39001000Y-11799000D01*
X39001000Y-13601000D01*
X39001000Y-13601000D01*
G37*
M02*
