G04 #@! TF.GenerationSoftware,KiCad,Pcbnew,(5.0.1)-4*
G04 #@! TF.CreationDate,2019-08-26T10:27:06+03:00*
G04 #@! TF.ProjectId,CP2102-breakout,4350323130322D627265616B6F75742E,rev?*
G04 #@! TF.SameCoordinates,Original*
G04 #@! TF.FileFunction,Legend,Top*
G04 #@! TF.FilePolarity,Positive*
%FSLAX46Y46*%
G04 Gerber Fmt 4.6, Leading zero omitted, Abs format (unit mm)*
G04 Created by KiCad (PCBNEW (5.0.1)-4) date 26/08/2019 10:27:06*
%MOMM*%
%LPD*%
G01*
G04 APERTURE LIST*
%ADD10C,0.120000*%
%ADD11C,0.150000*%
G04 APERTURE END LIST*
D10*
G04 #@! TO.C,J2*
X39430000Y-24070000D02*
X36770000Y-24070000D01*
X39430000Y-44450000D02*
X39430000Y-24070000D01*
X36770000Y-44450000D02*
X36770000Y-24070000D01*
X39430000Y-44450000D02*
X36770000Y-44450000D01*
X39430000Y-45720000D02*
X39430000Y-47050000D01*
X39430000Y-47050000D02*
X38100000Y-47050000D01*
G04 #@! TO.C,J1*
X52010000Y-26610000D02*
X53340000Y-26610000D01*
X52010000Y-27940000D02*
X52010000Y-26610000D01*
X52010000Y-29210000D02*
X54670000Y-29210000D01*
X54670000Y-29210000D02*
X54670000Y-47050000D01*
X52010000Y-29210000D02*
X52010000Y-47050000D01*
X52010000Y-47050000D02*
X54670000Y-47050000D01*
G04 #@! TO.C,D1*
X54530000Y-18965000D02*
X52070000Y-18965000D01*
X54530000Y-20435000D02*
X54530000Y-18965000D01*
X52070000Y-20435000D02*
X54530000Y-20435000D01*
G04 #@! TO.C,D2*
X39400000Y-18965000D02*
X36940000Y-18965000D01*
X36940000Y-18965000D02*
X36940000Y-20435000D01*
X36940000Y-20435000D02*
X39400000Y-20435000D01*
G04 #@! TO.C,D3*
X42615000Y-56795000D02*
X45015000Y-56795000D01*
X45015000Y-53695000D02*
X42065000Y-53695000D01*
G04 #@! TO.C,U5*
X52315000Y-48655000D02*
X49885000Y-48655000D01*
X50555000Y-51725000D02*
X52315000Y-51725000D01*
G04 #@! TO.C,U4*
X41695000Y-48215000D02*
X39265000Y-48215000D01*
X39935000Y-51285000D02*
X41695000Y-51285000D01*
G04 #@! TO.C,U3*
X43390000Y-36485000D02*
X43390000Y-37210000D01*
X48610000Y-31990000D02*
X47885000Y-31990000D01*
X48610000Y-32715000D02*
X48610000Y-31990000D01*
X48610000Y-37210000D02*
X47885000Y-37210000D01*
X48610000Y-36485000D02*
X48610000Y-37210000D01*
X43390000Y-31990000D02*
X44115000Y-31990000D01*
X43390000Y-32715000D02*
X43390000Y-31990000D01*
G04 #@! TO.C,D4*
X42400000Y-20850000D02*
X42400000Y-24750000D01*
X40400000Y-20850000D02*
X40400000Y-24750000D01*
X42400000Y-20850000D02*
X40400000Y-20850000D01*
G04 #@! TO.C,Q1*
X40840000Y-44020000D02*
X40840000Y-44950000D01*
X40840000Y-47180000D02*
X40840000Y-46250000D01*
X40840000Y-47180000D02*
X43000000Y-47180000D01*
X40840000Y-44020000D02*
X42300000Y-44020000D01*
G04 #@! TO.C,Q2*
X40840000Y-37420000D02*
X42300000Y-37420000D01*
X40840000Y-40580000D02*
X43000000Y-40580000D01*
X40840000Y-40580000D02*
X40840000Y-39650000D01*
X40840000Y-37420000D02*
X40840000Y-38350000D01*
G04 #@! TO.C,C2*
X40190000Y-34728733D02*
X40190000Y-35071267D01*
X41210000Y-34728733D02*
X41210000Y-35071267D01*
G04 #@! TO.C,C3*
X47410000Y-23103733D02*
X47410000Y-23446267D01*
X48430000Y-23103733D02*
X48430000Y-23446267D01*
G04 #@! TO.C,C4*
X49930000Y-23103733D02*
X49930000Y-23446267D01*
X48910000Y-23103733D02*
X48910000Y-23446267D01*
G04 #@! TO.C,C5*
X45910000Y-23446267D02*
X45910000Y-23103733D01*
X46930000Y-23446267D02*
X46930000Y-23103733D01*
G04 #@! TO.C,R1*
X49832779Y-19190000D02*
X49507221Y-19190000D01*
X49832779Y-20210000D02*
X49507221Y-20210000D01*
G04 #@! TO.C,R2*
X41637221Y-19190000D02*
X41962779Y-19190000D01*
X41637221Y-20210000D02*
X41962779Y-20210000D01*
G04 #@! TO.C,R7*
X38210000Y-50112779D02*
X38210000Y-49787221D01*
X37190000Y-50112779D02*
X37190000Y-49787221D01*
G04 #@! TO.C,R8*
X37240000Y-21937221D02*
X37240000Y-22262779D01*
X38260000Y-21937221D02*
X38260000Y-22262779D01*
G04 #@! TO.C,R9*
X40190000Y-42450279D02*
X40190000Y-42124721D01*
X41210000Y-42450279D02*
X41210000Y-42124721D01*
G04 #@! TO.C,R10*
X43110000Y-42137221D02*
X43110000Y-42462779D01*
X42090000Y-42137221D02*
X42090000Y-42462779D01*
G04 #@! TO.C,R11*
X39860000Y-21887221D02*
X39860000Y-22212779D01*
X38840000Y-21887221D02*
X38840000Y-22212779D01*
G04 #@! TO.C,J1*
D11*
X52556666Y-25933333D02*
X53056666Y-25933333D01*
X53156666Y-25966666D01*
X53223333Y-26033333D01*
X53256666Y-26133333D01*
X53256666Y-26200000D01*
X53256666Y-25233333D02*
X53256666Y-25633333D01*
X53256666Y-25433333D02*
X52556666Y-25433333D01*
X52656666Y-25500000D01*
X52723333Y-25566666D01*
X52756666Y-25633333D01*
G04 #@! TO.C,D1*
X54302380Y-18688095D02*
X53302380Y-18688095D01*
X53302380Y-18450000D01*
X53350000Y-18307142D01*
X53445238Y-18211904D01*
X53540476Y-18164285D01*
X53730952Y-18116666D01*
X53873809Y-18116666D01*
X54064285Y-18164285D01*
X54159523Y-18211904D01*
X54254761Y-18307142D01*
X54302380Y-18450000D01*
X54302380Y-18688095D01*
X54302380Y-17164285D02*
X54302380Y-17735714D01*
X54302380Y-17450000D02*
X53302380Y-17450000D01*
X53445238Y-17545238D01*
X53540476Y-17640476D01*
X53588095Y-17735714D01*
G04 #@! TO.C,D2*
X37157142Y-18721428D02*
X37157142Y-18121428D01*
X37300000Y-18121428D01*
X37385714Y-18150000D01*
X37442857Y-18207142D01*
X37471428Y-18264285D01*
X37500000Y-18378571D01*
X37500000Y-18464285D01*
X37471428Y-18578571D01*
X37442857Y-18635714D01*
X37385714Y-18692857D01*
X37300000Y-18721428D01*
X37157142Y-18721428D01*
X37728571Y-18178571D02*
X37757142Y-18150000D01*
X37814285Y-18121428D01*
X37957142Y-18121428D01*
X38014285Y-18150000D01*
X38042857Y-18178571D01*
X38071428Y-18235714D01*
X38071428Y-18292857D01*
X38042857Y-18378571D01*
X37700000Y-18721428D01*
X38071428Y-18721428D01*
G04 #@! TO.C,D3*
X44686428Y-53537857D02*
X44086428Y-53537857D01*
X44086428Y-53395000D01*
X44115000Y-53309285D01*
X44172142Y-53252142D01*
X44229285Y-53223571D01*
X44343571Y-53195000D01*
X44429285Y-53195000D01*
X44543571Y-53223571D01*
X44600714Y-53252142D01*
X44657857Y-53309285D01*
X44686428Y-53395000D01*
X44686428Y-53537857D01*
X44086428Y-52995000D02*
X44086428Y-52623571D01*
X44315000Y-52823571D01*
X44315000Y-52737857D01*
X44343571Y-52680714D01*
X44372142Y-52652142D01*
X44429285Y-52623571D01*
X44572142Y-52623571D01*
X44629285Y-52652142D01*
X44657857Y-52680714D01*
X44686428Y-52737857D01*
X44686428Y-52909285D01*
X44657857Y-52966428D01*
X44629285Y-52995000D01*
G04 #@! TO.C,U5*
X48588095Y-52052380D02*
X48588095Y-52861904D01*
X48635714Y-52957142D01*
X48683333Y-53004761D01*
X48778571Y-53052380D01*
X48969047Y-53052380D01*
X49064285Y-53004761D01*
X49111904Y-52957142D01*
X49159523Y-52861904D01*
X49159523Y-52052380D01*
X50111904Y-52052380D02*
X49635714Y-52052380D01*
X49588095Y-52528571D01*
X49635714Y-52480952D01*
X49730952Y-52433333D01*
X49969047Y-52433333D01*
X50064285Y-52480952D01*
X50111904Y-52528571D01*
X50159523Y-52623809D01*
X50159523Y-52861904D01*
X50111904Y-52957142D01*
X50064285Y-53004761D01*
X49969047Y-53052380D01*
X49730952Y-53052380D01*
X49635714Y-53004761D01*
X49588095Y-52957142D01*
G04 #@! TO.C,U4*
X40988095Y-51652380D02*
X40988095Y-52461904D01*
X41035714Y-52557142D01*
X41083333Y-52604761D01*
X41178571Y-52652380D01*
X41369047Y-52652380D01*
X41464285Y-52604761D01*
X41511904Y-52557142D01*
X41559523Y-52461904D01*
X41559523Y-51652380D01*
X42464285Y-51985714D02*
X42464285Y-52652380D01*
X42226190Y-51604761D02*
X41988095Y-52319047D01*
X42607142Y-52319047D01*
G04 #@! TO.C,U3*
X42538095Y-30902380D02*
X42538095Y-31711904D01*
X42585714Y-31807142D01*
X42633333Y-31854761D01*
X42728571Y-31902380D01*
X42919047Y-31902380D01*
X43014285Y-31854761D01*
X43061904Y-31807142D01*
X43109523Y-31711904D01*
X43109523Y-30902380D01*
X43490476Y-30902380D02*
X44109523Y-30902380D01*
X43776190Y-31283333D01*
X43919047Y-31283333D01*
X44014285Y-31330952D01*
X44061904Y-31378571D01*
X44109523Y-31473809D01*
X44109523Y-31711904D01*
X44061904Y-31807142D01*
X44014285Y-31854761D01*
X43919047Y-31902380D01*
X43633333Y-31902380D01*
X43538095Y-31854761D01*
X43490476Y-31807142D01*
G04 #@! TO.C,D4*
X43852380Y-23838095D02*
X42852380Y-23838095D01*
X42852380Y-23600000D01*
X42900000Y-23457142D01*
X42995238Y-23361904D01*
X43090476Y-23314285D01*
X43280952Y-23266666D01*
X43423809Y-23266666D01*
X43614285Y-23314285D01*
X43709523Y-23361904D01*
X43804761Y-23457142D01*
X43852380Y-23600000D01*
X43852380Y-23838095D01*
X43185714Y-22409523D02*
X43852380Y-22409523D01*
X42804761Y-22647619D02*
X43519047Y-22885714D01*
X43519047Y-22266666D01*
G04 #@! TO.C,Q1*
X44104761Y-45897619D02*
X44009523Y-45850000D01*
X43914285Y-45754761D01*
X43771428Y-45611904D01*
X43676190Y-45564285D01*
X43580952Y-45564285D01*
X43628571Y-45802380D02*
X43533333Y-45754761D01*
X43438095Y-45659523D01*
X43390476Y-45469047D01*
X43390476Y-45135714D01*
X43438095Y-44945238D01*
X43533333Y-44850000D01*
X43628571Y-44802380D01*
X43819047Y-44802380D01*
X43914285Y-44850000D01*
X44009523Y-44945238D01*
X44057142Y-45135714D01*
X44057142Y-45469047D01*
X44009523Y-45659523D01*
X43914285Y-45754761D01*
X43819047Y-45802380D01*
X43628571Y-45802380D01*
X45009523Y-45802380D02*
X44438095Y-45802380D01*
X44723809Y-45802380D02*
X44723809Y-44802380D01*
X44628571Y-44945238D01*
X44533333Y-45040476D01*
X44438095Y-45088095D01*
G04 #@! TO.C,Q2*
X43933333Y-39633333D02*
X43866666Y-39600000D01*
X43800000Y-39533333D01*
X43700000Y-39433333D01*
X43633333Y-39400000D01*
X43566666Y-39400000D01*
X43600000Y-39566666D02*
X43533333Y-39533333D01*
X43466666Y-39466666D01*
X43433333Y-39333333D01*
X43433333Y-39100000D01*
X43466666Y-38966666D01*
X43533333Y-38900000D01*
X43600000Y-38866666D01*
X43733333Y-38866666D01*
X43800000Y-38900000D01*
X43866666Y-38966666D01*
X43900000Y-39100000D01*
X43900000Y-39333333D01*
X43866666Y-39466666D01*
X43800000Y-39533333D01*
X43733333Y-39566666D01*
X43600000Y-39566666D01*
X44166666Y-38933333D02*
X44200000Y-38900000D01*
X44266666Y-38866666D01*
X44433333Y-38866666D01*
X44500000Y-38900000D01*
X44533333Y-38933333D01*
X44566666Y-39000000D01*
X44566666Y-39066666D01*
X44533333Y-39166666D01*
X44133333Y-39566666D01*
X44566666Y-39566666D01*
G04 #@! TO.C,C2*
X41257142Y-32566666D02*
X41304761Y-32614285D01*
X41352380Y-32757142D01*
X41352380Y-32852380D01*
X41304761Y-32995238D01*
X41209523Y-33090476D01*
X41114285Y-33138095D01*
X40923809Y-33185714D01*
X40780952Y-33185714D01*
X40590476Y-33138095D01*
X40495238Y-33090476D01*
X40400000Y-32995238D01*
X40352380Y-32852380D01*
X40352380Y-32757142D01*
X40400000Y-32614285D01*
X40447619Y-32566666D01*
X40447619Y-32185714D02*
X40400000Y-32138095D01*
X40352380Y-32042857D01*
X40352380Y-31804761D01*
X40400000Y-31709523D01*
X40447619Y-31661904D01*
X40542857Y-31614285D01*
X40638095Y-31614285D01*
X40780952Y-31661904D01*
X41352380Y-32233333D01*
X41352380Y-31614285D01*
G04 #@! TO.C,C3*
X47800000Y-21514285D02*
X47771428Y-21542857D01*
X47685714Y-21571428D01*
X47628571Y-21571428D01*
X47542857Y-21542857D01*
X47485714Y-21485714D01*
X47457142Y-21428571D01*
X47428571Y-21314285D01*
X47428571Y-21228571D01*
X47457142Y-21114285D01*
X47485714Y-21057142D01*
X47542857Y-21000000D01*
X47628571Y-20971428D01*
X47685714Y-20971428D01*
X47771428Y-21000000D01*
X47800000Y-21028571D01*
X48000000Y-20971428D02*
X48371428Y-20971428D01*
X48171428Y-21200000D01*
X48257142Y-21200000D01*
X48314285Y-21228571D01*
X48342857Y-21257142D01*
X48371428Y-21314285D01*
X48371428Y-21457142D01*
X48342857Y-21514285D01*
X48314285Y-21542857D01*
X48257142Y-21571428D01*
X48085714Y-21571428D01*
X48028571Y-21542857D01*
X48000000Y-21514285D01*
G04 #@! TO.C,C4*
X49200000Y-21514285D02*
X49171428Y-21542857D01*
X49085714Y-21571428D01*
X49028571Y-21571428D01*
X48942857Y-21542857D01*
X48885714Y-21485714D01*
X48857142Y-21428571D01*
X48828571Y-21314285D01*
X48828571Y-21228571D01*
X48857142Y-21114285D01*
X48885714Y-21057142D01*
X48942857Y-21000000D01*
X49028571Y-20971428D01*
X49085714Y-20971428D01*
X49171428Y-21000000D01*
X49200000Y-21028571D01*
X49714285Y-21171428D02*
X49714285Y-21571428D01*
X49571428Y-20942857D02*
X49428571Y-21371428D01*
X49800000Y-21371428D01*
G04 #@! TO.C,C5*
X46300000Y-21514285D02*
X46271428Y-21542857D01*
X46185714Y-21571428D01*
X46128571Y-21571428D01*
X46042857Y-21542857D01*
X45985714Y-21485714D01*
X45957142Y-21428571D01*
X45928571Y-21314285D01*
X45928571Y-21228571D01*
X45957142Y-21114285D01*
X45985714Y-21057142D01*
X46042857Y-21000000D01*
X46128571Y-20971428D01*
X46185714Y-20971428D01*
X46271428Y-21000000D01*
X46300000Y-21028571D01*
X46842857Y-20971428D02*
X46557142Y-20971428D01*
X46528571Y-21257142D01*
X46557142Y-21228571D01*
X46614285Y-21200000D01*
X46757142Y-21200000D01*
X46814285Y-21228571D01*
X46842857Y-21257142D01*
X46871428Y-21314285D01*
X46871428Y-21457142D01*
X46842857Y-21514285D01*
X46814285Y-21542857D01*
X46757142Y-21571428D01*
X46614285Y-21571428D01*
X46557142Y-21542857D01*
X46528571Y-21514285D01*
G04 #@! TO.C,R1*
X47922380Y-19866666D02*
X47446190Y-20200000D01*
X47922380Y-20438095D02*
X46922380Y-20438095D01*
X46922380Y-20057142D01*
X46970000Y-19961904D01*
X47017619Y-19914285D01*
X47112857Y-19866666D01*
X47255714Y-19866666D01*
X47350952Y-19914285D01*
X47398571Y-19961904D01*
X47446190Y-20057142D01*
X47446190Y-20438095D01*
X47922380Y-18914285D02*
X47922380Y-19485714D01*
X47922380Y-19200000D02*
X46922380Y-19200000D01*
X47065238Y-19295238D01*
X47160476Y-19390476D01*
X47208095Y-19485714D01*
G04 #@! TO.C,R2*
X41952380Y-21766666D02*
X41476190Y-22100000D01*
X41952380Y-22338095D02*
X40952380Y-22338095D01*
X40952380Y-21957142D01*
X41000000Y-21861904D01*
X41047619Y-21814285D01*
X41142857Y-21766666D01*
X41285714Y-21766666D01*
X41380952Y-21814285D01*
X41428571Y-21861904D01*
X41476190Y-21957142D01*
X41476190Y-22338095D01*
X41047619Y-21385714D02*
X41000000Y-21338095D01*
X40952380Y-21242857D01*
X40952380Y-21004761D01*
X41000000Y-20909523D01*
X41047619Y-20861904D01*
X41142857Y-20814285D01*
X41238095Y-20814285D01*
X41380952Y-20861904D01*
X41952380Y-21433333D01*
X41952380Y-20814285D01*
G04 #@! TO.C,R7*
X38271428Y-52050000D02*
X37985714Y-52250000D01*
X38271428Y-52392857D02*
X37671428Y-52392857D01*
X37671428Y-52164285D01*
X37700000Y-52107142D01*
X37728571Y-52078571D01*
X37785714Y-52050000D01*
X37871428Y-52050000D01*
X37928571Y-52078571D01*
X37957142Y-52107142D01*
X37985714Y-52164285D01*
X37985714Y-52392857D01*
X37671428Y-51850000D02*
X37671428Y-51450000D01*
X38271428Y-51707142D01*
G04 #@! TO.C,R8*
X37571428Y-24100000D02*
X37285714Y-24300000D01*
X37571428Y-24442857D02*
X36971428Y-24442857D01*
X36971428Y-24214285D01*
X37000000Y-24157142D01*
X37028571Y-24128571D01*
X37085714Y-24100000D01*
X37171428Y-24100000D01*
X37228571Y-24128571D01*
X37257142Y-24157142D01*
X37285714Y-24214285D01*
X37285714Y-24442857D01*
X37228571Y-23757142D02*
X37200000Y-23814285D01*
X37171428Y-23842857D01*
X37114285Y-23871428D01*
X37085714Y-23871428D01*
X37028571Y-23842857D01*
X37000000Y-23814285D01*
X36971428Y-23757142D01*
X36971428Y-23642857D01*
X37000000Y-23585714D01*
X37028571Y-23557142D01*
X37085714Y-23528571D01*
X37114285Y-23528571D01*
X37171428Y-23557142D01*
X37200000Y-23585714D01*
X37228571Y-23642857D01*
X37228571Y-23757142D01*
X37257142Y-23814285D01*
X37285714Y-23842857D01*
X37342857Y-23871428D01*
X37457142Y-23871428D01*
X37514285Y-23842857D01*
X37542857Y-23814285D01*
X37571428Y-23757142D01*
X37571428Y-23642857D01*
X37542857Y-23585714D01*
X37514285Y-23557142D01*
X37457142Y-23528571D01*
X37342857Y-23528571D01*
X37285714Y-23557142D01*
X37257142Y-23585714D01*
X37228571Y-23642857D01*
G04 #@! TO.C,R9*
X40221428Y-44500000D02*
X39935714Y-44700000D01*
X40221428Y-44842857D02*
X39621428Y-44842857D01*
X39621428Y-44614285D01*
X39650000Y-44557142D01*
X39678571Y-44528571D01*
X39735714Y-44500000D01*
X39821428Y-44500000D01*
X39878571Y-44528571D01*
X39907142Y-44557142D01*
X39935714Y-44614285D01*
X39935714Y-44842857D01*
X40221428Y-44214285D02*
X40221428Y-44100000D01*
X40192857Y-44042857D01*
X40164285Y-44014285D01*
X40078571Y-43957142D01*
X39964285Y-43928571D01*
X39735714Y-43928571D01*
X39678571Y-43957142D01*
X39650000Y-43985714D01*
X39621428Y-44042857D01*
X39621428Y-44157142D01*
X39650000Y-44214285D01*
X39678571Y-44242857D01*
X39735714Y-44271428D01*
X39878571Y-44271428D01*
X39935714Y-44242857D01*
X39964285Y-44214285D01*
X39992857Y-44157142D01*
X39992857Y-44042857D01*
X39964285Y-43985714D01*
X39935714Y-43957142D01*
X39878571Y-43928571D01*
G04 #@! TO.C,R10*
X44166666Y-42300000D02*
X43833333Y-42533333D01*
X44166666Y-42700000D02*
X43466666Y-42700000D01*
X43466666Y-42433333D01*
X43500000Y-42366666D01*
X43533333Y-42333333D01*
X43600000Y-42300000D01*
X43700000Y-42300000D01*
X43766666Y-42333333D01*
X43800000Y-42366666D01*
X43833333Y-42433333D01*
X43833333Y-42700000D01*
X44166666Y-41633333D02*
X44166666Y-42033333D01*
X44166666Y-41833333D02*
X43466666Y-41833333D01*
X43566666Y-41900000D01*
X43633333Y-41966666D01*
X43666666Y-42033333D01*
X43466666Y-41200000D02*
X43466666Y-41133333D01*
X43500000Y-41066666D01*
X43533333Y-41033333D01*
X43600000Y-41000000D01*
X43733333Y-40966666D01*
X43900000Y-40966666D01*
X44033333Y-41000000D01*
X44100000Y-41033333D01*
X44133333Y-41066666D01*
X44166666Y-41133333D01*
X44166666Y-41200000D01*
X44133333Y-41266666D01*
X44100000Y-41300000D01*
X44033333Y-41333333D01*
X43900000Y-41366666D01*
X43733333Y-41366666D01*
X43600000Y-41333333D01*
X43533333Y-41300000D01*
X43500000Y-41266666D01*
X43466666Y-41200000D01*
G04 #@! TO.C,R11*
X41382380Y-22375357D02*
X40906190Y-22708690D01*
X41382380Y-22946785D02*
X40382380Y-22946785D01*
X40382380Y-22565833D01*
X40430000Y-22470595D01*
X40477619Y-22422976D01*
X40572857Y-22375357D01*
X40715714Y-22375357D01*
X40810952Y-22422976D01*
X40858571Y-22470595D01*
X40906190Y-22565833D01*
X40906190Y-22946785D01*
X41382380Y-21422976D02*
X41382380Y-21994404D01*
X41382380Y-21708690D02*
X40382380Y-21708690D01*
X40525238Y-21803928D01*
X40620476Y-21899166D01*
X40668095Y-21994404D01*
X41382380Y-20470595D02*
X41382380Y-21042023D01*
X41382380Y-20756309D02*
X40382380Y-20756309D01*
X40525238Y-20851547D01*
X40620476Y-20946785D01*
X40668095Y-21042023D01*
G04 #@! TD*
M02*
