G04 #@! TF.GenerationSoftware,KiCad,Pcbnew,(5.0.1)-4*
G04 #@! TF.CreationDate,2019-08-26T10:27:06+03:00*
G04 #@! TF.ProjectId,CP2102-breakout,4350323130322D627265616B6F75742E,rev?*
G04 #@! TF.SameCoordinates,Original*
G04 #@! TF.FileFunction,Soldermask,Bot*
G04 #@! TF.FilePolarity,Negative*
%FSLAX46Y46*%
G04 Gerber Fmt 4.6, Leading zero omitted, Abs format (unit mm)*
G04 Created by KiCad (PCBNEW (5.0.1)-4) date 26/08/2019 10:27:06*
%MOMM*%
%LPD*%
G01*
G04 APERTURE LIST*
%ADD10C,0.100000*%
G04 APERTURE END LIST*
D10*
G36*
X52245331Y-52508211D02*
X52573092Y-52643974D01*
X52868073Y-52841074D01*
X53118926Y-53091927D01*
X53316026Y-53386908D01*
X53451789Y-53714669D01*
X53521000Y-54062616D01*
X53521000Y-54417384D01*
X53451789Y-54765331D01*
X53316026Y-55093092D01*
X53118926Y-55388073D01*
X52868073Y-55638926D01*
X52573092Y-55836026D01*
X52245331Y-55971789D01*
X51897384Y-56041000D01*
X51542616Y-56041000D01*
X51194669Y-55971789D01*
X50866908Y-55836026D01*
X50571927Y-55638926D01*
X50321074Y-55388073D01*
X50123974Y-55093092D01*
X49988211Y-54765331D01*
X49919000Y-54417384D01*
X49919000Y-54062616D01*
X49988211Y-53714669D01*
X50123974Y-53386908D01*
X50321074Y-53091927D01*
X50571927Y-52841074D01*
X50866908Y-52643974D01*
X51194669Y-52508211D01*
X51542616Y-52439000D01*
X51897384Y-52439000D01*
X52245331Y-52508211D01*
X52245331Y-52508211D01*
G37*
G36*
X40205331Y-52508211D02*
X40533092Y-52643974D01*
X40828073Y-52841074D01*
X41078926Y-53091927D01*
X41276026Y-53386908D01*
X41411789Y-53714669D01*
X41481000Y-54062616D01*
X41481000Y-54417384D01*
X41411789Y-54765331D01*
X41276026Y-55093092D01*
X41078926Y-55388073D01*
X40828073Y-55638926D01*
X40533092Y-55836026D01*
X40205331Y-55971789D01*
X39857384Y-56041000D01*
X39502616Y-56041000D01*
X39154669Y-55971789D01*
X38826908Y-55836026D01*
X38531927Y-55638926D01*
X38281074Y-55388073D01*
X38083974Y-55093092D01*
X37948211Y-54765331D01*
X37879000Y-54417384D01*
X37879000Y-54062616D01*
X37948211Y-53714669D01*
X38083974Y-53386908D01*
X38281074Y-53091927D01*
X38531927Y-52841074D01*
X38826908Y-52643974D01*
X39154669Y-52508211D01*
X39502616Y-52439000D01*
X39857384Y-52439000D01*
X40205331Y-52508211D01*
X40205331Y-52508211D01*
G37*
G36*
X45351000Y-50431000D02*
X44779622Y-50431000D01*
X44755236Y-50433402D01*
X44731787Y-50440515D01*
X44710176Y-50452066D01*
X44691234Y-50467612D01*
X44675688Y-50486554D01*
X44664137Y-50508165D01*
X44657024Y-50531614D01*
X44654622Y-50556000D01*
X44657024Y-50580386D01*
X44664137Y-50603835D01*
X44675688Y-50625446D01*
X44691234Y-50644388D01*
X44710176Y-50659934D01*
X44731777Y-50671480D01*
X44876784Y-50731544D01*
X45024354Y-50830147D01*
X45149853Y-50955646D01*
X45248456Y-51103216D01*
X45316376Y-51267188D01*
X45351000Y-51441259D01*
X45351000Y-51618741D01*
X45316376Y-51792812D01*
X45248456Y-51956784D01*
X45149853Y-52104354D01*
X45024354Y-52229853D01*
X44876784Y-52328456D01*
X44712812Y-52396376D01*
X44538741Y-52431000D01*
X44361259Y-52431000D01*
X44187188Y-52396376D01*
X44023216Y-52328456D01*
X43875646Y-52229853D01*
X43750147Y-52104354D01*
X43651544Y-51956784D01*
X43583624Y-51792812D01*
X43549000Y-51618741D01*
X43549000Y-51441259D01*
X43583624Y-51267188D01*
X43651544Y-51103216D01*
X43750147Y-50955646D01*
X43875646Y-50830147D01*
X44023216Y-50731544D01*
X44168223Y-50671480D01*
X44189824Y-50659934D01*
X44208766Y-50644388D01*
X44224312Y-50625446D01*
X44235863Y-50603835D01*
X44242976Y-50580386D01*
X44245378Y-50556000D01*
X44242976Y-50531614D01*
X44235863Y-50508165D01*
X44224312Y-50486554D01*
X44208766Y-50467612D01*
X44189824Y-50452066D01*
X44168213Y-50440515D01*
X44144764Y-50433402D01*
X44120378Y-50431000D01*
X43549000Y-50431000D01*
X43549000Y-48629000D01*
X45351000Y-48629000D01*
X45351000Y-50431000D01*
X45351000Y-50431000D01*
G37*
G36*
X47212812Y-48663624D02*
X47376784Y-48731544D01*
X47524354Y-48830147D01*
X47649853Y-48955646D01*
X47748456Y-49103216D01*
X47816376Y-49267188D01*
X47851000Y-49441259D01*
X47851000Y-49618741D01*
X47816376Y-49792812D01*
X47748456Y-49956784D01*
X47649853Y-50104354D01*
X47524354Y-50229853D01*
X47376784Y-50328456D01*
X47212812Y-50396376D01*
X47157367Y-50407404D01*
X47133926Y-50414515D01*
X47112315Y-50426067D01*
X47093373Y-50441612D01*
X47077828Y-50460554D01*
X47066277Y-50482165D01*
X47059164Y-50505614D01*
X47056762Y-50530000D01*
X47059164Y-50554387D01*
X47066277Y-50577836D01*
X47077829Y-50599447D01*
X47093374Y-50618389D01*
X47112316Y-50633934D01*
X47133927Y-50645485D01*
X47157367Y-50652596D01*
X47212812Y-50663624D01*
X47376784Y-50731544D01*
X47524354Y-50830147D01*
X47649853Y-50955646D01*
X47748456Y-51103216D01*
X47816376Y-51267188D01*
X47851000Y-51441259D01*
X47851000Y-51618741D01*
X47816376Y-51792812D01*
X47748456Y-51956784D01*
X47649853Y-52104354D01*
X47524354Y-52229853D01*
X47376784Y-52328456D01*
X47212812Y-52396376D01*
X47038741Y-52431000D01*
X46861259Y-52431000D01*
X46687188Y-52396376D01*
X46523216Y-52328456D01*
X46375646Y-52229853D01*
X46250147Y-52104354D01*
X46151544Y-51956784D01*
X46083624Y-51792812D01*
X46049000Y-51618741D01*
X46049000Y-51441259D01*
X46083624Y-51267188D01*
X46151544Y-51103216D01*
X46250147Y-50955646D01*
X46375646Y-50830147D01*
X46523216Y-50731544D01*
X46687188Y-50663624D01*
X46742633Y-50652596D01*
X46766074Y-50645485D01*
X46787685Y-50633933D01*
X46806627Y-50618388D01*
X46822172Y-50599446D01*
X46833723Y-50577835D01*
X46840836Y-50554386D01*
X46843238Y-50530000D01*
X46840836Y-50505613D01*
X46833723Y-50482164D01*
X46822171Y-50460553D01*
X46806626Y-50441611D01*
X46787684Y-50426066D01*
X46766073Y-50414515D01*
X46742633Y-50407404D01*
X46687188Y-50396376D01*
X46523216Y-50328456D01*
X46375646Y-50229853D01*
X46250147Y-50104354D01*
X46151544Y-49956784D01*
X46083624Y-49792812D01*
X46049000Y-49618741D01*
X46049000Y-49441259D01*
X46083624Y-49267188D01*
X46151544Y-49103216D01*
X46250147Y-48955646D01*
X46375646Y-48830147D01*
X46523216Y-48731544D01*
X46687188Y-48663624D01*
X46861259Y-48629000D01*
X47038741Y-48629000D01*
X47212812Y-48663624D01*
X47212812Y-48663624D01*
G37*
G36*
X53450442Y-44825518D02*
X53516627Y-44832037D01*
X53629853Y-44866384D01*
X53686467Y-44883557D01*
X53825087Y-44957652D01*
X53842991Y-44967222D01*
X53878729Y-44996552D01*
X53980186Y-45079814D01*
X54063448Y-45181271D01*
X54092778Y-45217009D01*
X54092779Y-45217011D01*
X54176443Y-45373533D01*
X54176443Y-45373534D01*
X54227963Y-45543373D01*
X54245359Y-45720000D01*
X54227963Y-45896627D01*
X54193616Y-46009853D01*
X54176443Y-46066467D01*
X54102348Y-46205087D01*
X54092778Y-46222991D01*
X54063448Y-46258729D01*
X53980186Y-46360186D01*
X53878729Y-46443448D01*
X53842991Y-46472778D01*
X53842989Y-46472779D01*
X53686467Y-46556443D01*
X53629853Y-46573616D01*
X53516627Y-46607963D01*
X53450442Y-46614482D01*
X53384260Y-46621000D01*
X53295740Y-46621000D01*
X53229558Y-46614482D01*
X53163373Y-46607963D01*
X53050147Y-46573616D01*
X52993533Y-46556443D01*
X52837011Y-46472779D01*
X52837009Y-46472778D01*
X52801271Y-46443448D01*
X52699814Y-46360186D01*
X52616552Y-46258729D01*
X52587222Y-46222991D01*
X52577652Y-46205087D01*
X52503557Y-46066467D01*
X52486384Y-46009853D01*
X52452037Y-45896627D01*
X52434641Y-45720000D01*
X52452037Y-45543373D01*
X52503557Y-45373534D01*
X52503557Y-45373533D01*
X52587221Y-45217011D01*
X52587222Y-45217009D01*
X52616552Y-45181271D01*
X52699814Y-45079814D01*
X52801271Y-44996552D01*
X52837009Y-44967222D01*
X52854913Y-44957652D01*
X52993533Y-44883557D01*
X53050147Y-44866384D01*
X53163373Y-44832037D01*
X53229558Y-44825518D01*
X53295740Y-44819000D01*
X53384260Y-44819000D01*
X53450442Y-44825518D01*
X53450442Y-44825518D01*
G37*
G36*
X39001000Y-46621000D02*
X37199000Y-46621000D01*
X37199000Y-44819000D01*
X39001000Y-44819000D01*
X39001000Y-46621000D01*
X39001000Y-46621000D01*
G37*
G36*
X53450442Y-42285518D02*
X53516627Y-42292037D01*
X53629853Y-42326384D01*
X53686467Y-42343557D01*
X53825087Y-42417652D01*
X53842991Y-42427222D01*
X53878729Y-42456552D01*
X53980186Y-42539814D01*
X54063448Y-42641271D01*
X54092778Y-42677009D01*
X54092779Y-42677011D01*
X54176443Y-42833533D01*
X54176443Y-42833534D01*
X54227963Y-43003373D01*
X54245359Y-43180000D01*
X54227963Y-43356627D01*
X54193616Y-43469853D01*
X54176443Y-43526467D01*
X54102348Y-43665087D01*
X54092778Y-43682991D01*
X54063448Y-43718729D01*
X53980186Y-43820186D01*
X53878729Y-43903448D01*
X53842991Y-43932778D01*
X53842989Y-43932779D01*
X53686467Y-44016443D01*
X53629853Y-44033616D01*
X53516627Y-44067963D01*
X53450443Y-44074481D01*
X53384260Y-44081000D01*
X53295740Y-44081000D01*
X53229557Y-44074481D01*
X53163373Y-44067963D01*
X53050147Y-44033616D01*
X52993533Y-44016443D01*
X52837011Y-43932779D01*
X52837009Y-43932778D01*
X52801271Y-43903448D01*
X52699814Y-43820186D01*
X52616552Y-43718729D01*
X52587222Y-43682991D01*
X52577652Y-43665087D01*
X52503557Y-43526467D01*
X52486384Y-43469853D01*
X52452037Y-43356627D01*
X52434641Y-43180000D01*
X52452037Y-43003373D01*
X52503557Y-42833534D01*
X52503557Y-42833533D01*
X52587221Y-42677011D01*
X52587222Y-42677009D01*
X52616552Y-42641271D01*
X52699814Y-42539814D01*
X52801271Y-42456552D01*
X52837009Y-42427222D01*
X52854913Y-42417652D01*
X52993533Y-42343557D01*
X53050147Y-42326384D01*
X53163373Y-42292037D01*
X53229558Y-42285518D01*
X53295740Y-42279000D01*
X53384260Y-42279000D01*
X53450442Y-42285518D01*
X53450442Y-42285518D01*
G37*
G36*
X38210442Y-42285518D02*
X38276627Y-42292037D01*
X38389853Y-42326384D01*
X38446467Y-42343557D01*
X38585087Y-42417652D01*
X38602991Y-42427222D01*
X38638729Y-42456552D01*
X38740186Y-42539814D01*
X38823448Y-42641271D01*
X38852778Y-42677009D01*
X38852779Y-42677011D01*
X38936443Y-42833533D01*
X38936443Y-42833534D01*
X38987963Y-43003373D01*
X39005359Y-43180000D01*
X38987963Y-43356627D01*
X38953616Y-43469853D01*
X38936443Y-43526467D01*
X38862348Y-43665087D01*
X38852778Y-43682991D01*
X38823448Y-43718729D01*
X38740186Y-43820186D01*
X38638729Y-43903448D01*
X38602991Y-43932778D01*
X38602989Y-43932779D01*
X38446467Y-44016443D01*
X38389853Y-44033616D01*
X38276627Y-44067963D01*
X38210443Y-44074481D01*
X38144260Y-44081000D01*
X38055740Y-44081000D01*
X37989557Y-44074481D01*
X37923373Y-44067963D01*
X37810147Y-44033616D01*
X37753533Y-44016443D01*
X37597011Y-43932779D01*
X37597009Y-43932778D01*
X37561271Y-43903448D01*
X37459814Y-43820186D01*
X37376552Y-43718729D01*
X37347222Y-43682991D01*
X37337652Y-43665087D01*
X37263557Y-43526467D01*
X37246384Y-43469853D01*
X37212037Y-43356627D01*
X37194641Y-43180000D01*
X37212037Y-43003373D01*
X37263557Y-42833534D01*
X37263557Y-42833533D01*
X37347221Y-42677011D01*
X37347222Y-42677009D01*
X37376552Y-42641271D01*
X37459814Y-42539814D01*
X37561271Y-42456552D01*
X37597009Y-42427222D01*
X37614913Y-42417652D01*
X37753533Y-42343557D01*
X37810147Y-42326384D01*
X37923373Y-42292037D01*
X37989558Y-42285518D01*
X38055740Y-42279000D01*
X38144260Y-42279000D01*
X38210442Y-42285518D01*
X38210442Y-42285518D01*
G37*
G36*
X53450442Y-39745518D02*
X53516627Y-39752037D01*
X53629853Y-39786384D01*
X53686467Y-39803557D01*
X53825087Y-39877652D01*
X53842991Y-39887222D01*
X53878729Y-39916552D01*
X53980186Y-39999814D01*
X54063448Y-40101271D01*
X54092778Y-40137009D01*
X54092779Y-40137011D01*
X54176443Y-40293533D01*
X54176443Y-40293534D01*
X54227963Y-40463373D01*
X54245359Y-40640000D01*
X54227963Y-40816627D01*
X54193616Y-40929853D01*
X54176443Y-40986467D01*
X54102348Y-41125087D01*
X54092778Y-41142991D01*
X54063448Y-41178729D01*
X53980186Y-41280186D01*
X53878729Y-41363448D01*
X53842991Y-41392778D01*
X53842989Y-41392779D01*
X53686467Y-41476443D01*
X53629853Y-41493616D01*
X53516627Y-41527963D01*
X53450442Y-41534482D01*
X53384260Y-41541000D01*
X53295740Y-41541000D01*
X53229558Y-41534482D01*
X53163373Y-41527963D01*
X53050147Y-41493616D01*
X52993533Y-41476443D01*
X52837011Y-41392779D01*
X52837009Y-41392778D01*
X52801271Y-41363448D01*
X52699814Y-41280186D01*
X52616552Y-41178729D01*
X52587222Y-41142991D01*
X52577652Y-41125087D01*
X52503557Y-40986467D01*
X52486384Y-40929853D01*
X52452037Y-40816627D01*
X52434641Y-40640000D01*
X52452037Y-40463373D01*
X52503557Y-40293534D01*
X52503557Y-40293533D01*
X52587221Y-40137011D01*
X52587222Y-40137009D01*
X52616552Y-40101271D01*
X52699814Y-39999814D01*
X52801271Y-39916552D01*
X52837009Y-39887222D01*
X52854913Y-39877652D01*
X52993533Y-39803557D01*
X53050147Y-39786384D01*
X53163373Y-39752037D01*
X53229558Y-39745518D01*
X53295740Y-39739000D01*
X53384260Y-39739000D01*
X53450442Y-39745518D01*
X53450442Y-39745518D01*
G37*
G36*
X38210442Y-39745518D02*
X38276627Y-39752037D01*
X38389853Y-39786384D01*
X38446467Y-39803557D01*
X38585087Y-39877652D01*
X38602991Y-39887222D01*
X38638729Y-39916552D01*
X38740186Y-39999814D01*
X38823448Y-40101271D01*
X38852778Y-40137009D01*
X38852779Y-40137011D01*
X38936443Y-40293533D01*
X38936443Y-40293534D01*
X38987963Y-40463373D01*
X39005359Y-40640000D01*
X38987963Y-40816627D01*
X38953616Y-40929853D01*
X38936443Y-40986467D01*
X38862348Y-41125087D01*
X38852778Y-41142991D01*
X38823448Y-41178729D01*
X38740186Y-41280186D01*
X38638729Y-41363448D01*
X38602991Y-41392778D01*
X38602989Y-41392779D01*
X38446467Y-41476443D01*
X38389853Y-41493616D01*
X38276627Y-41527963D01*
X38210442Y-41534482D01*
X38144260Y-41541000D01*
X38055740Y-41541000D01*
X37989558Y-41534482D01*
X37923373Y-41527963D01*
X37810147Y-41493616D01*
X37753533Y-41476443D01*
X37597011Y-41392779D01*
X37597009Y-41392778D01*
X37561271Y-41363448D01*
X37459814Y-41280186D01*
X37376552Y-41178729D01*
X37347222Y-41142991D01*
X37337652Y-41125087D01*
X37263557Y-40986467D01*
X37246384Y-40929853D01*
X37212037Y-40816627D01*
X37194641Y-40640000D01*
X37212037Y-40463373D01*
X37263557Y-40293534D01*
X37263557Y-40293533D01*
X37347221Y-40137011D01*
X37347222Y-40137009D01*
X37376552Y-40101271D01*
X37459814Y-39999814D01*
X37561271Y-39916552D01*
X37597009Y-39887222D01*
X37614913Y-39877652D01*
X37753533Y-39803557D01*
X37810147Y-39786384D01*
X37923373Y-39752037D01*
X37989558Y-39745518D01*
X38055740Y-39739000D01*
X38144260Y-39739000D01*
X38210442Y-39745518D01*
X38210442Y-39745518D01*
G37*
G36*
X38210442Y-37205518D02*
X38276627Y-37212037D01*
X38389853Y-37246384D01*
X38446467Y-37263557D01*
X38585087Y-37337652D01*
X38602991Y-37347222D01*
X38638729Y-37376552D01*
X38740186Y-37459814D01*
X38823448Y-37561271D01*
X38852778Y-37597009D01*
X38852779Y-37597011D01*
X38936443Y-37753533D01*
X38936443Y-37753534D01*
X38987963Y-37923373D01*
X39005359Y-38100000D01*
X38987963Y-38276627D01*
X38953616Y-38389853D01*
X38936443Y-38446467D01*
X38862348Y-38585087D01*
X38852778Y-38602991D01*
X38823448Y-38638729D01*
X38740186Y-38740186D01*
X38638729Y-38823448D01*
X38602991Y-38852778D01*
X38602989Y-38852779D01*
X38446467Y-38936443D01*
X38389853Y-38953616D01*
X38276627Y-38987963D01*
X38210443Y-38994481D01*
X38144260Y-39001000D01*
X38055740Y-39001000D01*
X37989557Y-38994481D01*
X37923373Y-38987963D01*
X37810147Y-38953616D01*
X37753533Y-38936443D01*
X37597011Y-38852779D01*
X37597009Y-38852778D01*
X37561271Y-38823448D01*
X37459814Y-38740186D01*
X37376552Y-38638729D01*
X37347222Y-38602991D01*
X37337652Y-38585087D01*
X37263557Y-38446467D01*
X37246384Y-38389853D01*
X37212037Y-38276627D01*
X37194641Y-38100000D01*
X37212037Y-37923373D01*
X37263557Y-37753534D01*
X37263557Y-37753533D01*
X37347221Y-37597011D01*
X37347222Y-37597009D01*
X37376552Y-37561271D01*
X37459814Y-37459814D01*
X37561271Y-37376552D01*
X37597009Y-37347222D01*
X37614913Y-37337652D01*
X37753533Y-37263557D01*
X37810147Y-37246384D01*
X37923373Y-37212037D01*
X37989558Y-37205518D01*
X38055740Y-37199000D01*
X38144260Y-37199000D01*
X38210442Y-37205518D01*
X38210442Y-37205518D01*
G37*
G36*
X53450442Y-37205518D02*
X53516627Y-37212037D01*
X53629853Y-37246384D01*
X53686467Y-37263557D01*
X53825087Y-37337652D01*
X53842991Y-37347222D01*
X53878729Y-37376552D01*
X53980186Y-37459814D01*
X54063448Y-37561271D01*
X54092778Y-37597009D01*
X54092779Y-37597011D01*
X54176443Y-37753533D01*
X54176443Y-37753534D01*
X54227963Y-37923373D01*
X54245359Y-38100000D01*
X54227963Y-38276627D01*
X54193616Y-38389853D01*
X54176443Y-38446467D01*
X54102348Y-38585087D01*
X54092778Y-38602991D01*
X54063448Y-38638729D01*
X53980186Y-38740186D01*
X53878729Y-38823448D01*
X53842991Y-38852778D01*
X53842989Y-38852779D01*
X53686467Y-38936443D01*
X53629853Y-38953616D01*
X53516627Y-38987963D01*
X53450443Y-38994481D01*
X53384260Y-39001000D01*
X53295740Y-39001000D01*
X53229557Y-38994481D01*
X53163373Y-38987963D01*
X53050147Y-38953616D01*
X52993533Y-38936443D01*
X52837011Y-38852779D01*
X52837009Y-38852778D01*
X52801271Y-38823448D01*
X52699814Y-38740186D01*
X52616552Y-38638729D01*
X52587222Y-38602991D01*
X52577652Y-38585087D01*
X52503557Y-38446467D01*
X52486384Y-38389853D01*
X52452037Y-38276627D01*
X52434641Y-38100000D01*
X52452037Y-37923373D01*
X52503557Y-37753534D01*
X52503557Y-37753533D01*
X52587221Y-37597011D01*
X52587222Y-37597009D01*
X52616552Y-37561271D01*
X52699814Y-37459814D01*
X52801271Y-37376552D01*
X52837009Y-37347222D01*
X52854913Y-37337652D01*
X52993533Y-37263557D01*
X53050147Y-37246384D01*
X53163373Y-37212037D01*
X53229558Y-37205518D01*
X53295740Y-37199000D01*
X53384260Y-37199000D01*
X53450442Y-37205518D01*
X53450442Y-37205518D01*
G37*
G36*
X38210443Y-34665519D02*
X38276627Y-34672037D01*
X38389853Y-34706384D01*
X38446467Y-34723557D01*
X38585087Y-34797652D01*
X38602991Y-34807222D01*
X38638729Y-34836552D01*
X38740186Y-34919814D01*
X38823448Y-35021271D01*
X38852778Y-35057009D01*
X38852779Y-35057011D01*
X38936443Y-35213533D01*
X38936443Y-35213534D01*
X38987963Y-35383373D01*
X39005359Y-35560000D01*
X38987963Y-35736627D01*
X38953616Y-35849853D01*
X38936443Y-35906467D01*
X38862348Y-36045087D01*
X38852778Y-36062991D01*
X38823448Y-36098729D01*
X38740186Y-36200186D01*
X38638729Y-36283448D01*
X38602991Y-36312778D01*
X38602989Y-36312779D01*
X38446467Y-36396443D01*
X38389853Y-36413616D01*
X38276627Y-36447963D01*
X38210442Y-36454482D01*
X38144260Y-36461000D01*
X38055740Y-36461000D01*
X37989558Y-36454482D01*
X37923373Y-36447963D01*
X37810147Y-36413616D01*
X37753533Y-36396443D01*
X37597011Y-36312779D01*
X37597009Y-36312778D01*
X37561271Y-36283448D01*
X37459814Y-36200186D01*
X37376552Y-36098729D01*
X37347222Y-36062991D01*
X37337652Y-36045087D01*
X37263557Y-35906467D01*
X37246384Y-35849853D01*
X37212037Y-35736627D01*
X37194641Y-35560000D01*
X37212037Y-35383373D01*
X37263557Y-35213534D01*
X37263557Y-35213533D01*
X37347221Y-35057011D01*
X37347222Y-35057009D01*
X37376552Y-35021271D01*
X37459814Y-34919814D01*
X37561271Y-34836552D01*
X37597009Y-34807222D01*
X37614913Y-34797652D01*
X37753533Y-34723557D01*
X37810147Y-34706384D01*
X37923373Y-34672037D01*
X37989557Y-34665519D01*
X38055740Y-34659000D01*
X38144260Y-34659000D01*
X38210443Y-34665519D01*
X38210443Y-34665519D01*
G37*
G36*
X53450443Y-34665519D02*
X53516627Y-34672037D01*
X53629853Y-34706384D01*
X53686467Y-34723557D01*
X53825087Y-34797652D01*
X53842991Y-34807222D01*
X53878729Y-34836552D01*
X53980186Y-34919814D01*
X54063448Y-35021271D01*
X54092778Y-35057009D01*
X54092779Y-35057011D01*
X54176443Y-35213533D01*
X54176443Y-35213534D01*
X54227963Y-35383373D01*
X54245359Y-35560000D01*
X54227963Y-35736627D01*
X54193616Y-35849853D01*
X54176443Y-35906467D01*
X54102348Y-36045087D01*
X54092778Y-36062991D01*
X54063448Y-36098729D01*
X53980186Y-36200186D01*
X53878729Y-36283448D01*
X53842991Y-36312778D01*
X53842989Y-36312779D01*
X53686467Y-36396443D01*
X53629853Y-36413616D01*
X53516627Y-36447963D01*
X53450442Y-36454482D01*
X53384260Y-36461000D01*
X53295740Y-36461000D01*
X53229558Y-36454482D01*
X53163373Y-36447963D01*
X53050147Y-36413616D01*
X52993533Y-36396443D01*
X52837011Y-36312779D01*
X52837009Y-36312778D01*
X52801271Y-36283448D01*
X52699814Y-36200186D01*
X52616552Y-36098729D01*
X52587222Y-36062991D01*
X52577652Y-36045087D01*
X52503557Y-35906467D01*
X52486384Y-35849853D01*
X52452037Y-35736627D01*
X52434641Y-35560000D01*
X52452037Y-35383373D01*
X52503557Y-35213534D01*
X52503557Y-35213533D01*
X52587221Y-35057011D01*
X52587222Y-35057009D01*
X52616552Y-35021271D01*
X52699814Y-34919814D01*
X52801271Y-34836552D01*
X52837009Y-34807222D01*
X52854913Y-34797652D01*
X52993533Y-34723557D01*
X53050147Y-34706384D01*
X53163373Y-34672037D01*
X53229557Y-34665519D01*
X53295740Y-34659000D01*
X53384260Y-34659000D01*
X53450443Y-34665519D01*
X53450443Y-34665519D01*
G37*
G36*
X38210443Y-32125519D02*
X38276627Y-32132037D01*
X38389853Y-32166384D01*
X38446467Y-32183557D01*
X38585087Y-32257652D01*
X38602991Y-32267222D01*
X38638729Y-32296552D01*
X38740186Y-32379814D01*
X38823448Y-32481271D01*
X38852778Y-32517009D01*
X38852779Y-32517011D01*
X38936443Y-32673533D01*
X38936443Y-32673534D01*
X38987963Y-32843373D01*
X39005359Y-33020000D01*
X38987963Y-33196627D01*
X38953616Y-33309853D01*
X38936443Y-33366467D01*
X38862348Y-33505087D01*
X38852778Y-33522991D01*
X38823448Y-33558729D01*
X38740186Y-33660186D01*
X38638729Y-33743448D01*
X38602991Y-33772778D01*
X38602989Y-33772779D01*
X38446467Y-33856443D01*
X38389853Y-33873616D01*
X38276627Y-33907963D01*
X38210443Y-33914481D01*
X38144260Y-33921000D01*
X38055740Y-33921000D01*
X37989557Y-33914481D01*
X37923373Y-33907963D01*
X37810147Y-33873616D01*
X37753533Y-33856443D01*
X37597011Y-33772779D01*
X37597009Y-33772778D01*
X37561271Y-33743448D01*
X37459814Y-33660186D01*
X37376552Y-33558729D01*
X37347222Y-33522991D01*
X37337652Y-33505087D01*
X37263557Y-33366467D01*
X37246384Y-33309853D01*
X37212037Y-33196627D01*
X37194641Y-33020000D01*
X37212037Y-32843373D01*
X37263557Y-32673534D01*
X37263557Y-32673533D01*
X37347221Y-32517011D01*
X37347222Y-32517009D01*
X37376552Y-32481271D01*
X37459814Y-32379814D01*
X37561271Y-32296552D01*
X37597009Y-32267222D01*
X37614913Y-32257652D01*
X37753533Y-32183557D01*
X37810147Y-32166384D01*
X37923373Y-32132037D01*
X37989557Y-32125519D01*
X38055740Y-32119000D01*
X38144260Y-32119000D01*
X38210443Y-32125519D01*
X38210443Y-32125519D01*
G37*
G36*
X53450443Y-32125519D02*
X53516627Y-32132037D01*
X53629853Y-32166384D01*
X53686467Y-32183557D01*
X53825087Y-32257652D01*
X53842991Y-32267222D01*
X53878729Y-32296552D01*
X53980186Y-32379814D01*
X54063448Y-32481271D01*
X54092778Y-32517009D01*
X54092779Y-32517011D01*
X54176443Y-32673533D01*
X54176443Y-32673534D01*
X54227963Y-32843373D01*
X54245359Y-33020000D01*
X54227963Y-33196627D01*
X54193616Y-33309853D01*
X54176443Y-33366467D01*
X54102348Y-33505087D01*
X54092778Y-33522991D01*
X54063448Y-33558729D01*
X53980186Y-33660186D01*
X53878729Y-33743448D01*
X53842991Y-33772778D01*
X53842989Y-33772779D01*
X53686467Y-33856443D01*
X53629853Y-33873616D01*
X53516627Y-33907963D01*
X53450443Y-33914481D01*
X53384260Y-33921000D01*
X53295740Y-33921000D01*
X53229557Y-33914481D01*
X53163373Y-33907963D01*
X53050147Y-33873616D01*
X52993533Y-33856443D01*
X52837011Y-33772779D01*
X52837009Y-33772778D01*
X52801271Y-33743448D01*
X52699814Y-33660186D01*
X52616552Y-33558729D01*
X52587222Y-33522991D01*
X52577652Y-33505087D01*
X52503557Y-33366467D01*
X52486384Y-33309853D01*
X52452037Y-33196627D01*
X52434641Y-33020000D01*
X52452037Y-32843373D01*
X52503557Y-32673534D01*
X52503557Y-32673533D01*
X52587221Y-32517011D01*
X52587222Y-32517009D01*
X52616552Y-32481271D01*
X52699814Y-32379814D01*
X52801271Y-32296552D01*
X52837009Y-32267222D01*
X52854913Y-32257652D01*
X52993533Y-32183557D01*
X53050147Y-32166384D01*
X53163373Y-32132037D01*
X53229557Y-32125519D01*
X53295740Y-32119000D01*
X53384260Y-32119000D01*
X53450443Y-32125519D01*
X53450443Y-32125519D01*
G37*
G36*
X53450443Y-29585519D02*
X53516627Y-29592037D01*
X53629853Y-29626384D01*
X53686467Y-29643557D01*
X53825087Y-29717652D01*
X53842991Y-29727222D01*
X53878729Y-29756552D01*
X53980186Y-29839814D01*
X54063448Y-29941271D01*
X54092778Y-29977009D01*
X54092779Y-29977011D01*
X54176443Y-30133533D01*
X54176443Y-30133534D01*
X54227963Y-30303373D01*
X54245359Y-30480000D01*
X54227963Y-30656627D01*
X54193616Y-30769853D01*
X54176443Y-30826467D01*
X54102348Y-30965087D01*
X54092778Y-30982991D01*
X54063448Y-31018729D01*
X53980186Y-31120186D01*
X53878729Y-31203448D01*
X53842991Y-31232778D01*
X53842989Y-31232779D01*
X53686467Y-31316443D01*
X53629853Y-31333616D01*
X53516627Y-31367963D01*
X53450443Y-31374481D01*
X53384260Y-31381000D01*
X53295740Y-31381000D01*
X53229557Y-31374481D01*
X53163373Y-31367963D01*
X53050147Y-31333616D01*
X52993533Y-31316443D01*
X52837011Y-31232779D01*
X52837009Y-31232778D01*
X52801271Y-31203448D01*
X52699814Y-31120186D01*
X52616552Y-31018729D01*
X52587222Y-30982991D01*
X52577652Y-30965087D01*
X52503557Y-30826467D01*
X52486384Y-30769853D01*
X52452037Y-30656627D01*
X52434641Y-30480000D01*
X52452037Y-30303373D01*
X52503557Y-30133534D01*
X52503557Y-30133533D01*
X52587221Y-29977011D01*
X52587222Y-29977009D01*
X52616552Y-29941271D01*
X52699814Y-29839814D01*
X52801271Y-29756552D01*
X52837009Y-29727222D01*
X52854913Y-29717652D01*
X52993533Y-29643557D01*
X53050147Y-29626384D01*
X53163373Y-29592037D01*
X53229557Y-29585519D01*
X53295740Y-29579000D01*
X53384260Y-29579000D01*
X53450443Y-29585519D01*
X53450443Y-29585519D01*
G37*
G36*
X38210443Y-29585519D02*
X38276627Y-29592037D01*
X38389853Y-29626384D01*
X38446467Y-29643557D01*
X38585087Y-29717652D01*
X38602991Y-29727222D01*
X38638729Y-29756552D01*
X38740186Y-29839814D01*
X38823448Y-29941271D01*
X38852778Y-29977009D01*
X38852779Y-29977011D01*
X38936443Y-30133533D01*
X38936443Y-30133534D01*
X38987963Y-30303373D01*
X39005359Y-30480000D01*
X38987963Y-30656627D01*
X38953616Y-30769853D01*
X38936443Y-30826467D01*
X38862348Y-30965087D01*
X38852778Y-30982991D01*
X38823448Y-31018729D01*
X38740186Y-31120186D01*
X38638729Y-31203448D01*
X38602991Y-31232778D01*
X38602989Y-31232779D01*
X38446467Y-31316443D01*
X38389853Y-31333616D01*
X38276627Y-31367963D01*
X38210443Y-31374481D01*
X38144260Y-31381000D01*
X38055740Y-31381000D01*
X37989557Y-31374481D01*
X37923373Y-31367963D01*
X37810147Y-31333616D01*
X37753533Y-31316443D01*
X37597011Y-31232779D01*
X37597009Y-31232778D01*
X37561271Y-31203448D01*
X37459814Y-31120186D01*
X37376552Y-31018729D01*
X37347222Y-30982991D01*
X37337652Y-30965087D01*
X37263557Y-30826467D01*
X37246384Y-30769853D01*
X37212037Y-30656627D01*
X37194641Y-30480000D01*
X37212037Y-30303373D01*
X37263557Y-30133534D01*
X37263557Y-30133533D01*
X37347221Y-29977011D01*
X37347222Y-29977009D01*
X37376552Y-29941271D01*
X37459814Y-29839814D01*
X37561271Y-29756552D01*
X37597009Y-29727222D01*
X37614913Y-29717652D01*
X37753533Y-29643557D01*
X37810147Y-29626384D01*
X37923373Y-29592037D01*
X37989557Y-29585519D01*
X38055740Y-29579000D01*
X38144260Y-29579000D01*
X38210443Y-29585519D01*
X38210443Y-29585519D01*
G37*
G36*
X38210443Y-27045519D02*
X38276627Y-27052037D01*
X38389853Y-27086384D01*
X38446467Y-27103557D01*
X38585087Y-27177652D01*
X38602991Y-27187222D01*
X38638729Y-27216552D01*
X38740186Y-27299814D01*
X38823448Y-27401271D01*
X38852778Y-27437009D01*
X38852779Y-27437011D01*
X38936443Y-27593533D01*
X38936443Y-27593534D01*
X38987963Y-27763373D01*
X39005359Y-27940000D01*
X38987963Y-28116627D01*
X38953616Y-28229853D01*
X38936443Y-28286467D01*
X38862348Y-28425087D01*
X38852778Y-28442991D01*
X38823448Y-28478729D01*
X38740186Y-28580186D01*
X38638729Y-28663448D01*
X38602991Y-28692778D01*
X38602989Y-28692779D01*
X38446467Y-28776443D01*
X38389853Y-28793616D01*
X38276627Y-28827963D01*
X38210442Y-28834482D01*
X38144260Y-28841000D01*
X38055740Y-28841000D01*
X37989558Y-28834482D01*
X37923373Y-28827963D01*
X37810147Y-28793616D01*
X37753533Y-28776443D01*
X37597011Y-28692779D01*
X37597009Y-28692778D01*
X37561271Y-28663448D01*
X37459814Y-28580186D01*
X37376552Y-28478729D01*
X37347222Y-28442991D01*
X37337652Y-28425087D01*
X37263557Y-28286467D01*
X37246384Y-28229853D01*
X37212037Y-28116627D01*
X37194641Y-27940000D01*
X37212037Y-27763373D01*
X37263557Y-27593534D01*
X37263557Y-27593533D01*
X37347221Y-27437011D01*
X37347222Y-27437009D01*
X37376552Y-27401271D01*
X37459814Y-27299814D01*
X37561271Y-27216552D01*
X37597009Y-27187222D01*
X37614913Y-27177652D01*
X37753533Y-27103557D01*
X37810147Y-27086384D01*
X37923373Y-27052037D01*
X37989557Y-27045519D01*
X38055740Y-27039000D01*
X38144260Y-27039000D01*
X38210443Y-27045519D01*
X38210443Y-27045519D01*
G37*
G36*
X54241000Y-28841000D02*
X52439000Y-28841000D01*
X52439000Y-27039000D01*
X54241000Y-27039000D01*
X54241000Y-28841000D01*
X54241000Y-28841000D01*
G37*
G36*
X38210442Y-24505518D02*
X38276627Y-24512037D01*
X38389853Y-24546384D01*
X38446467Y-24563557D01*
X38531083Y-24608786D01*
X38602991Y-24647222D01*
X38638729Y-24676552D01*
X38740186Y-24759814D01*
X38817158Y-24853606D01*
X38852778Y-24897009D01*
X38852779Y-24897011D01*
X38936443Y-25053533D01*
X38936443Y-25053534D01*
X38987963Y-25223373D01*
X39005359Y-25400000D01*
X38987963Y-25576627D01*
X38953616Y-25689853D01*
X38936443Y-25746467D01*
X38862348Y-25885087D01*
X38852778Y-25902991D01*
X38823448Y-25938729D01*
X38740186Y-26040186D01*
X38638729Y-26123448D01*
X38602991Y-26152778D01*
X38602989Y-26152779D01*
X38446467Y-26236443D01*
X38389853Y-26253616D01*
X38276627Y-26287963D01*
X38210443Y-26294481D01*
X38144260Y-26301000D01*
X38055740Y-26301000D01*
X37989557Y-26294481D01*
X37923373Y-26287963D01*
X37810147Y-26253616D01*
X37753533Y-26236443D01*
X37597011Y-26152779D01*
X37597009Y-26152778D01*
X37561271Y-26123448D01*
X37459814Y-26040186D01*
X37376552Y-25938729D01*
X37347222Y-25902991D01*
X37337652Y-25885087D01*
X37263557Y-25746467D01*
X37246384Y-25689853D01*
X37212037Y-25576627D01*
X37194641Y-25400000D01*
X37212037Y-25223373D01*
X37263557Y-25053534D01*
X37263557Y-25053533D01*
X37347221Y-24897011D01*
X37347222Y-24897009D01*
X37382842Y-24853606D01*
X37459814Y-24759814D01*
X37561271Y-24676552D01*
X37597009Y-24647222D01*
X37668917Y-24608786D01*
X37753533Y-24563557D01*
X37810147Y-24546384D01*
X37923373Y-24512037D01*
X37989557Y-24505519D01*
X38055740Y-24499000D01*
X38144260Y-24499000D01*
X38210442Y-24505518D01*
X38210442Y-24505518D01*
G37*
G36*
X44108600Y-23579867D02*
X44199059Y-23597860D01*
X44335732Y-23654472D01*
X44392715Y-23692547D01*
X44458738Y-23736662D01*
X44563338Y-23841262D01*
X44563340Y-23841265D01*
X44645528Y-23964268D01*
X44702140Y-24100941D01*
X44731000Y-24246033D01*
X44731000Y-24393967D01*
X44702140Y-24539059D01*
X44645528Y-24675732D01*
X44564446Y-24797079D01*
X44563338Y-24798738D01*
X44458738Y-24903338D01*
X44458735Y-24903340D01*
X44335732Y-24985528D01*
X44199059Y-25042140D01*
X44112004Y-25059456D01*
X44053969Y-25071000D01*
X43906031Y-25071000D01*
X43847996Y-25059456D01*
X43760941Y-25042140D01*
X43624268Y-24985528D01*
X43501265Y-24903340D01*
X43501262Y-24903338D01*
X43396662Y-24798738D01*
X43395554Y-24797079D01*
X43314472Y-24675732D01*
X43257860Y-24539059D01*
X43229000Y-24393967D01*
X43229000Y-24246033D01*
X43257860Y-24100941D01*
X43314472Y-23964268D01*
X43396660Y-23841265D01*
X43396662Y-23841262D01*
X43501262Y-23736662D01*
X43567285Y-23692547D01*
X43624268Y-23654472D01*
X43760941Y-23597860D01*
X43851400Y-23579867D01*
X43906031Y-23569000D01*
X44053969Y-23569000D01*
X44108600Y-23579867D01*
X44108600Y-23579867D01*
G37*
G36*
X51673665Y-23572622D02*
X51747222Y-23579867D01*
X51888786Y-23622810D01*
X52019252Y-23692546D01*
X52133606Y-23786394D01*
X52227454Y-23900748D01*
X52297190Y-24031214D01*
X52340133Y-24172778D01*
X52354633Y-24320000D01*
X52340133Y-24467222D01*
X52297190Y-24608786D01*
X52227454Y-24739252D01*
X52133606Y-24853606D01*
X52019252Y-24947454D01*
X51888786Y-25017190D01*
X51747222Y-25060133D01*
X51673665Y-25067378D01*
X51636888Y-25071000D01*
X51563112Y-25071000D01*
X51526335Y-25067378D01*
X51452778Y-25060133D01*
X51311214Y-25017190D01*
X51180748Y-24947454D01*
X51066394Y-24853606D01*
X50972546Y-24739252D01*
X50902810Y-24608786D01*
X50859867Y-24467222D01*
X50845367Y-24320000D01*
X50859867Y-24172778D01*
X50902810Y-24031214D01*
X50972546Y-23900748D01*
X51066394Y-23786394D01*
X51180748Y-23692546D01*
X51311214Y-23622810D01*
X51452778Y-23579867D01*
X51526335Y-23572622D01*
X51563112Y-23569000D01*
X51636888Y-23569000D01*
X51673665Y-23572622D01*
X51673665Y-23572622D01*
G37*
G36*
X51673665Y-21032622D02*
X51747222Y-21039867D01*
X51888786Y-21082810D01*
X52019252Y-21152546D01*
X52133606Y-21246394D01*
X52227454Y-21360748D01*
X52297190Y-21491214D01*
X52340133Y-21632778D01*
X52354633Y-21780000D01*
X52340133Y-21927222D01*
X52297190Y-22068786D01*
X52227454Y-22199252D01*
X52133606Y-22313606D01*
X52019252Y-22407454D01*
X51888786Y-22477190D01*
X51747222Y-22520133D01*
X51673665Y-22527378D01*
X51636888Y-22531000D01*
X51563112Y-22531000D01*
X51526335Y-22527378D01*
X51452778Y-22520133D01*
X51311214Y-22477190D01*
X51180748Y-22407454D01*
X51066394Y-22313606D01*
X50972546Y-22199252D01*
X50902810Y-22068786D01*
X50859867Y-21927222D01*
X50845367Y-21780000D01*
X50859867Y-21632778D01*
X50902810Y-21491214D01*
X50972546Y-21360748D01*
X51066394Y-21246394D01*
X51180748Y-21152546D01*
X51311214Y-21082810D01*
X51452778Y-21039867D01*
X51526335Y-21032622D01*
X51563112Y-21029000D01*
X51636888Y-21029000D01*
X51673665Y-21032622D01*
X51673665Y-21032622D01*
G37*
G36*
X44108600Y-21039867D02*
X44199059Y-21057860D01*
X44335732Y-21114472D01*
X44392715Y-21152547D01*
X44458738Y-21196662D01*
X44563338Y-21301262D01*
X44563340Y-21301265D01*
X44645528Y-21424268D01*
X44702140Y-21560941D01*
X44731000Y-21706033D01*
X44731000Y-21853967D01*
X44702140Y-21999059D01*
X44645528Y-22135732D01*
X44564446Y-22257079D01*
X44563338Y-22258738D01*
X44458738Y-22363338D01*
X44458735Y-22363340D01*
X44335732Y-22445528D01*
X44199059Y-22502140D01*
X44112004Y-22519456D01*
X44053969Y-22531000D01*
X43906031Y-22531000D01*
X43847996Y-22519456D01*
X43760941Y-22502140D01*
X43624268Y-22445528D01*
X43501265Y-22363340D01*
X43501262Y-22363338D01*
X43396662Y-22258738D01*
X43395554Y-22257079D01*
X43314472Y-22135732D01*
X43257860Y-21999059D01*
X43229000Y-21853967D01*
X43229000Y-21706033D01*
X43257860Y-21560941D01*
X43314472Y-21424268D01*
X43396660Y-21301265D01*
X43396662Y-21301262D01*
X43501262Y-21196662D01*
X43567285Y-21152547D01*
X43624268Y-21114472D01*
X43760941Y-21057860D01*
X43851400Y-21039867D01*
X43906031Y-21029000D01*
X44053969Y-21029000D01*
X44108600Y-21039867D01*
X44108600Y-21039867D01*
G37*
G36*
X45830442Y-15615518D02*
X45896627Y-15622037D01*
X46009853Y-15656384D01*
X46066467Y-15673557D01*
X46205087Y-15747652D01*
X46222991Y-15757222D01*
X46258729Y-15786552D01*
X46360186Y-15869814D01*
X46443448Y-15971271D01*
X46472778Y-16007009D01*
X46472779Y-16007011D01*
X46556443Y-16163533D01*
X46556443Y-16163534D01*
X46607963Y-16333373D01*
X46625359Y-16510000D01*
X46607963Y-16686627D01*
X46573616Y-16799853D01*
X46556443Y-16856467D01*
X46482348Y-16995087D01*
X46472778Y-17012991D01*
X46443448Y-17048729D01*
X46360186Y-17150186D01*
X46258729Y-17233448D01*
X46222991Y-17262778D01*
X46222989Y-17262779D01*
X46066467Y-17346443D01*
X46009853Y-17363616D01*
X45896627Y-17397963D01*
X45830442Y-17404482D01*
X45764260Y-17411000D01*
X45675740Y-17411000D01*
X45609558Y-17404482D01*
X45543373Y-17397963D01*
X45430147Y-17363616D01*
X45373533Y-17346443D01*
X45217011Y-17262779D01*
X45217009Y-17262778D01*
X45181271Y-17233448D01*
X45079814Y-17150186D01*
X44996552Y-17048729D01*
X44967222Y-17012991D01*
X44957652Y-16995087D01*
X44883557Y-16856467D01*
X44866384Y-16799853D01*
X44832037Y-16686627D01*
X44814641Y-16510000D01*
X44832037Y-16333373D01*
X44883557Y-16163534D01*
X44883557Y-16163533D01*
X44967221Y-16007011D01*
X44967222Y-16007009D01*
X44996552Y-15971271D01*
X45079814Y-15869814D01*
X45181271Y-15786552D01*
X45217009Y-15757222D01*
X45234913Y-15747652D01*
X45373533Y-15673557D01*
X45430147Y-15656384D01*
X45543373Y-15622037D01*
X45609558Y-15615518D01*
X45675740Y-15609000D01*
X45764260Y-15609000D01*
X45830442Y-15615518D01*
X45830442Y-15615518D01*
G37*
G36*
X39001000Y-17411000D02*
X37199000Y-17411000D01*
X37199000Y-15609000D01*
X39001000Y-15609000D01*
X39001000Y-17411000D01*
X39001000Y-17411000D01*
G37*
G36*
X48370442Y-15615518D02*
X48436627Y-15622037D01*
X48549853Y-15656384D01*
X48606467Y-15673557D01*
X48745087Y-15747652D01*
X48762991Y-15757222D01*
X48798729Y-15786552D01*
X48900186Y-15869814D01*
X48983448Y-15971271D01*
X49012778Y-16007009D01*
X49012779Y-16007011D01*
X49096443Y-16163533D01*
X49096443Y-16163534D01*
X49147963Y-16333373D01*
X49165359Y-16510000D01*
X49147963Y-16686627D01*
X49113616Y-16799853D01*
X49096443Y-16856467D01*
X49022348Y-16995087D01*
X49012778Y-17012991D01*
X48983448Y-17048729D01*
X48900186Y-17150186D01*
X48798729Y-17233448D01*
X48762991Y-17262778D01*
X48762989Y-17262779D01*
X48606467Y-17346443D01*
X48549853Y-17363616D01*
X48436627Y-17397963D01*
X48370442Y-17404482D01*
X48304260Y-17411000D01*
X48215740Y-17411000D01*
X48149558Y-17404482D01*
X48083373Y-17397963D01*
X47970147Y-17363616D01*
X47913533Y-17346443D01*
X47757011Y-17262779D01*
X47757009Y-17262778D01*
X47721271Y-17233448D01*
X47619814Y-17150186D01*
X47536552Y-17048729D01*
X47507222Y-17012991D01*
X47497652Y-16995087D01*
X47423557Y-16856467D01*
X47406384Y-16799853D01*
X47372037Y-16686627D01*
X47354641Y-16510000D01*
X47372037Y-16333373D01*
X47423557Y-16163534D01*
X47423557Y-16163533D01*
X47507221Y-16007011D01*
X47507222Y-16007009D01*
X47536552Y-15971271D01*
X47619814Y-15869814D01*
X47721271Y-15786552D01*
X47757009Y-15757222D01*
X47774913Y-15747652D01*
X47913533Y-15673557D01*
X47970147Y-15656384D01*
X48083373Y-15622037D01*
X48149558Y-15615518D01*
X48215740Y-15609000D01*
X48304260Y-15609000D01*
X48370442Y-15615518D01*
X48370442Y-15615518D01*
G37*
G36*
X43290442Y-15615518D02*
X43356627Y-15622037D01*
X43469853Y-15656384D01*
X43526467Y-15673557D01*
X43665087Y-15747652D01*
X43682991Y-15757222D01*
X43718729Y-15786552D01*
X43820186Y-15869814D01*
X43903448Y-15971271D01*
X43932778Y-16007009D01*
X43932779Y-16007011D01*
X44016443Y-16163533D01*
X44016443Y-16163534D01*
X44067963Y-16333373D01*
X44085359Y-16510000D01*
X44067963Y-16686627D01*
X44033616Y-16799853D01*
X44016443Y-16856467D01*
X43942348Y-16995087D01*
X43932778Y-17012991D01*
X43903448Y-17048729D01*
X43820186Y-17150186D01*
X43718729Y-17233448D01*
X43682991Y-17262778D01*
X43682989Y-17262779D01*
X43526467Y-17346443D01*
X43469853Y-17363616D01*
X43356627Y-17397963D01*
X43290442Y-17404482D01*
X43224260Y-17411000D01*
X43135740Y-17411000D01*
X43069558Y-17404482D01*
X43003373Y-17397963D01*
X42890147Y-17363616D01*
X42833533Y-17346443D01*
X42677011Y-17262779D01*
X42677009Y-17262778D01*
X42641271Y-17233448D01*
X42539814Y-17150186D01*
X42456552Y-17048729D01*
X42427222Y-17012991D01*
X42417652Y-16995087D01*
X42343557Y-16856467D01*
X42326384Y-16799853D01*
X42292037Y-16686627D01*
X42274641Y-16510000D01*
X42292037Y-16333373D01*
X42343557Y-16163534D01*
X42343557Y-16163533D01*
X42427221Y-16007011D01*
X42427222Y-16007009D01*
X42456552Y-15971271D01*
X42539814Y-15869814D01*
X42641271Y-15786552D01*
X42677009Y-15757222D01*
X42694913Y-15747652D01*
X42833533Y-15673557D01*
X42890147Y-15656384D01*
X43003373Y-15622037D01*
X43069558Y-15615518D01*
X43135740Y-15609000D01*
X43224260Y-15609000D01*
X43290442Y-15615518D01*
X43290442Y-15615518D01*
G37*
G36*
X50910442Y-15615518D02*
X50976627Y-15622037D01*
X51089853Y-15656384D01*
X51146467Y-15673557D01*
X51285087Y-15747652D01*
X51302991Y-15757222D01*
X51338729Y-15786552D01*
X51440186Y-15869814D01*
X51523448Y-15971271D01*
X51552778Y-16007009D01*
X51552779Y-16007011D01*
X51636443Y-16163533D01*
X51636443Y-16163534D01*
X51687963Y-16333373D01*
X51705359Y-16510000D01*
X51687963Y-16686627D01*
X51653616Y-16799853D01*
X51636443Y-16856467D01*
X51562348Y-16995087D01*
X51552778Y-17012991D01*
X51523448Y-17048729D01*
X51440186Y-17150186D01*
X51338729Y-17233448D01*
X51302991Y-17262778D01*
X51302989Y-17262779D01*
X51146467Y-17346443D01*
X51089853Y-17363616D01*
X50976627Y-17397963D01*
X50910442Y-17404482D01*
X50844260Y-17411000D01*
X50755740Y-17411000D01*
X50689558Y-17404482D01*
X50623373Y-17397963D01*
X50510147Y-17363616D01*
X50453533Y-17346443D01*
X50297011Y-17262779D01*
X50297009Y-17262778D01*
X50261271Y-17233448D01*
X50159814Y-17150186D01*
X50076552Y-17048729D01*
X50047222Y-17012991D01*
X50037652Y-16995087D01*
X49963557Y-16856467D01*
X49946384Y-16799853D01*
X49912037Y-16686627D01*
X49894641Y-16510000D01*
X49912037Y-16333373D01*
X49963557Y-16163534D01*
X49963557Y-16163533D01*
X50047221Y-16007011D01*
X50047222Y-16007009D01*
X50076552Y-15971271D01*
X50159814Y-15869814D01*
X50261271Y-15786552D01*
X50297009Y-15757222D01*
X50314913Y-15747652D01*
X50453533Y-15673557D01*
X50510147Y-15656384D01*
X50623373Y-15622037D01*
X50689558Y-15615518D01*
X50755740Y-15609000D01*
X50844260Y-15609000D01*
X50910442Y-15615518D01*
X50910442Y-15615518D01*
G37*
G36*
X40750442Y-15615518D02*
X40816627Y-15622037D01*
X40929853Y-15656384D01*
X40986467Y-15673557D01*
X41125087Y-15747652D01*
X41142991Y-15757222D01*
X41178729Y-15786552D01*
X41280186Y-15869814D01*
X41363448Y-15971271D01*
X41392778Y-16007009D01*
X41392779Y-16007011D01*
X41476443Y-16163533D01*
X41476443Y-16163534D01*
X41527963Y-16333373D01*
X41545359Y-16510000D01*
X41527963Y-16686627D01*
X41493616Y-16799853D01*
X41476443Y-16856467D01*
X41402348Y-16995087D01*
X41392778Y-17012991D01*
X41363448Y-17048729D01*
X41280186Y-17150186D01*
X41178729Y-17233448D01*
X41142991Y-17262778D01*
X41142989Y-17262779D01*
X40986467Y-17346443D01*
X40929853Y-17363616D01*
X40816627Y-17397963D01*
X40750442Y-17404482D01*
X40684260Y-17411000D01*
X40595740Y-17411000D01*
X40529558Y-17404482D01*
X40463373Y-17397963D01*
X40350147Y-17363616D01*
X40293533Y-17346443D01*
X40137011Y-17262779D01*
X40137009Y-17262778D01*
X40101271Y-17233448D01*
X39999814Y-17150186D01*
X39916552Y-17048729D01*
X39887222Y-17012991D01*
X39877652Y-16995087D01*
X39803557Y-16856467D01*
X39786384Y-16799853D01*
X39752037Y-16686627D01*
X39734641Y-16510000D01*
X39752037Y-16333373D01*
X39803557Y-16163534D01*
X39803557Y-16163533D01*
X39887221Y-16007011D01*
X39887222Y-16007009D01*
X39916552Y-15971271D01*
X39999814Y-15869814D01*
X40101271Y-15786552D01*
X40137009Y-15757222D01*
X40154913Y-15747652D01*
X40293533Y-15673557D01*
X40350147Y-15656384D01*
X40463373Y-15622037D01*
X40529558Y-15615518D01*
X40595740Y-15609000D01*
X40684260Y-15609000D01*
X40750442Y-15615518D01*
X40750442Y-15615518D01*
G37*
G36*
X51701000Y-13601000D02*
X49899000Y-13601000D01*
X49899000Y-11799000D01*
X51701000Y-11799000D01*
X51701000Y-13601000D01*
X51701000Y-13601000D01*
G37*
G36*
X48370443Y-11805519D02*
X48436627Y-11812037D01*
X48549853Y-11846384D01*
X48606467Y-11863557D01*
X48745087Y-11937652D01*
X48762991Y-11947222D01*
X48798729Y-11976552D01*
X48900186Y-12059814D01*
X48983448Y-12161271D01*
X49012778Y-12197009D01*
X49012779Y-12197011D01*
X49096443Y-12353533D01*
X49096443Y-12353534D01*
X49147963Y-12523373D01*
X49165359Y-12700000D01*
X49147963Y-12876627D01*
X49113616Y-12989853D01*
X49096443Y-13046467D01*
X49022348Y-13185087D01*
X49012778Y-13202991D01*
X48983448Y-13238729D01*
X48900186Y-13340186D01*
X48798729Y-13423448D01*
X48762991Y-13452778D01*
X48762989Y-13452779D01*
X48606467Y-13536443D01*
X48549853Y-13553616D01*
X48436627Y-13587963D01*
X48370443Y-13594481D01*
X48304260Y-13601000D01*
X48215740Y-13601000D01*
X48149557Y-13594481D01*
X48083373Y-13587963D01*
X47970147Y-13553616D01*
X47913533Y-13536443D01*
X47757011Y-13452779D01*
X47757009Y-13452778D01*
X47721271Y-13423448D01*
X47619814Y-13340186D01*
X47536552Y-13238729D01*
X47507222Y-13202991D01*
X47497652Y-13185087D01*
X47423557Y-13046467D01*
X47406384Y-12989853D01*
X47372037Y-12876627D01*
X47354641Y-12700000D01*
X47372037Y-12523373D01*
X47423557Y-12353534D01*
X47423557Y-12353533D01*
X47507221Y-12197011D01*
X47507222Y-12197009D01*
X47536552Y-12161271D01*
X47619814Y-12059814D01*
X47721271Y-11976552D01*
X47757009Y-11947222D01*
X47774913Y-11937652D01*
X47913533Y-11863557D01*
X47970147Y-11846384D01*
X48083373Y-11812037D01*
X48149557Y-11805519D01*
X48215740Y-11799000D01*
X48304260Y-11799000D01*
X48370443Y-11805519D01*
X48370443Y-11805519D01*
G37*
G36*
X45830443Y-11805519D02*
X45896627Y-11812037D01*
X46009853Y-11846384D01*
X46066467Y-11863557D01*
X46205087Y-11937652D01*
X46222991Y-11947222D01*
X46258729Y-11976552D01*
X46360186Y-12059814D01*
X46443448Y-12161271D01*
X46472778Y-12197009D01*
X46472779Y-12197011D01*
X46556443Y-12353533D01*
X46556443Y-12353534D01*
X46607963Y-12523373D01*
X46625359Y-12700000D01*
X46607963Y-12876627D01*
X46573616Y-12989853D01*
X46556443Y-13046467D01*
X46482348Y-13185087D01*
X46472778Y-13202991D01*
X46443448Y-13238729D01*
X46360186Y-13340186D01*
X46258729Y-13423448D01*
X46222991Y-13452778D01*
X46222989Y-13452779D01*
X46066467Y-13536443D01*
X46009853Y-13553616D01*
X45896627Y-13587963D01*
X45830443Y-13594481D01*
X45764260Y-13601000D01*
X45675740Y-13601000D01*
X45609557Y-13594481D01*
X45543373Y-13587963D01*
X45430147Y-13553616D01*
X45373533Y-13536443D01*
X45217011Y-13452779D01*
X45217009Y-13452778D01*
X45181271Y-13423448D01*
X45079814Y-13340186D01*
X44996552Y-13238729D01*
X44967222Y-13202991D01*
X44957652Y-13185087D01*
X44883557Y-13046467D01*
X44866384Y-12989853D01*
X44832037Y-12876627D01*
X44814641Y-12700000D01*
X44832037Y-12523373D01*
X44883557Y-12353534D01*
X44883557Y-12353533D01*
X44967221Y-12197011D01*
X44967222Y-12197009D01*
X44996552Y-12161271D01*
X45079814Y-12059814D01*
X45181271Y-11976552D01*
X45217009Y-11947222D01*
X45234913Y-11937652D01*
X45373533Y-11863557D01*
X45430147Y-11846384D01*
X45543373Y-11812037D01*
X45609557Y-11805519D01*
X45675740Y-11799000D01*
X45764260Y-11799000D01*
X45830443Y-11805519D01*
X45830443Y-11805519D01*
G37*
G36*
X43290443Y-11805519D02*
X43356627Y-11812037D01*
X43469853Y-11846384D01*
X43526467Y-11863557D01*
X43665087Y-11937652D01*
X43682991Y-11947222D01*
X43718729Y-11976552D01*
X43820186Y-12059814D01*
X43903448Y-12161271D01*
X43932778Y-12197009D01*
X43932779Y-12197011D01*
X44016443Y-12353533D01*
X44016443Y-12353534D01*
X44067963Y-12523373D01*
X44085359Y-12700000D01*
X44067963Y-12876627D01*
X44033616Y-12989853D01*
X44016443Y-13046467D01*
X43942348Y-13185087D01*
X43932778Y-13202991D01*
X43903448Y-13238729D01*
X43820186Y-13340186D01*
X43718729Y-13423448D01*
X43682991Y-13452778D01*
X43682989Y-13452779D01*
X43526467Y-13536443D01*
X43469853Y-13553616D01*
X43356627Y-13587963D01*
X43290443Y-13594481D01*
X43224260Y-13601000D01*
X43135740Y-13601000D01*
X43069557Y-13594481D01*
X43003373Y-13587963D01*
X42890147Y-13553616D01*
X42833533Y-13536443D01*
X42677011Y-13452779D01*
X42677009Y-13452778D01*
X42641271Y-13423448D01*
X42539814Y-13340186D01*
X42456552Y-13238729D01*
X42427222Y-13202991D01*
X42417652Y-13185087D01*
X42343557Y-13046467D01*
X42326384Y-12989853D01*
X42292037Y-12876627D01*
X42274641Y-12700000D01*
X42292037Y-12523373D01*
X42343557Y-12353534D01*
X42343557Y-12353533D01*
X42427221Y-12197011D01*
X42427222Y-12197009D01*
X42456552Y-12161271D01*
X42539814Y-12059814D01*
X42641271Y-11976552D01*
X42677009Y-11947222D01*
X42694913Y-11937652D01*
X42833533Y-11863557D01*
X42890147Y-11846384D01*
X43003373Y-11812037D01*
X43069557Y-11805519D01*
X43135740Y-11799000D01*
X43224260Y-11799000D01*
X43290443Y-11805519D01*
X43290443Y-11805519D01*
G37*
G36*
X40750443Y-11805519D02*
X40816627Y-11812037D01*
X40929853Y-11846384D01*
X40986467Y-11863557D01*
X41125087Y-11937652D01*
X41142991Y-11947222D01*
X41178729Y-11976552D01*
X41280186Y-12059814D01*
X41363448Y-12161271D01*
X41392778Y-12197009D01*
X41392779Y-12197011D01*
X41476443Y-12353533D01*
X41476443Y-12353534D01*
X41527963Y-12523373D01*
X41545359Y-12700000D01*
X41527963Y-12876627D01*
X41493616Y-12989853D01*
X41476443Y-13046467D01*
X41402348Y-13185087D01*
X41392778Y-13202991D01*
X41363448Y-13238729D01*
X41280186Y-13340186D01*
X41178729Y-13423448D01*
X41142991Y-13452778D01*
X41142989Y-13452779D01*
X40986467Y-13536443D01*
X40929853Y-13553616D01*
X40816627Y-13587963D01*
X40750443Y-13594481D01*
X40684260Y-13601000D01*
X40595740Y-13601000D01*
X40529557Y-13594481D01*
X40463373Y-13587963D01*
X40350147Y-13553616D01*
X40293533Y-13536443D01*
X40137011Y-13452779D01*
X40137009Y-13452778D01*
X40101271Y-13423448D01*
X39999814Y-13340186D01*
X39916552Y-13238729D01*
X39887222Y-13202991D01*
X39877652Y-13185087D01*
X39803557Y-13046467D01*
X39786384Y-12989853D01*
X39752037Y-12876627D01*
X39734641Y-12700000D01*
X39752037Y-12523373D01*
X39803557Y-12353534D01*
X39803557Y-12353533D01*
X39887221Y-12197011D01*
X39887222Y-12197009D01*
X39916552Y-12161271D01*
X39999814Y-12059814D01*
X40101271Y-11976552D01*
X40137009Y-11947222D01*
X40154913Y-11937652D01*
X40293533Y-11863557D01*
X40350147Y-11846384D01*
X40463373Y-11812037D01*
X40529557Y-11805519D01*
X40595740Y-11799000D01*
X40684260Y-11799000D01*
X40750443Y-11805519D01*
X40750443Y-11805519D01*
G37*
G36*
X39001000Y-13601000D02*
X37199000Y-13601000D01*
X37199000Y-11799000D01*
X39001000Y-11799000D01*
X39001000Y-13601000D01*
X39001000Y-13601000D01*
G37*
M02*
