G04 #@! TF.GenerationSoftware,KiCad,Pcbnew,(5.0.1)-4*
G04 #@! TF.CreationDate,2019-08-26T10:27:06+03:00*
G04 #@! TF.ProjectId,CP2102-breakout,4350323130322D627265616B6F75742E,rev?*
G04 #@! TF.SameCoordinates,Original*
G04 #@! TF.FileFunction,Other,User*
%FSLAX46Y46*%
G04 Gerber Fmt 4.6, Leading zero omitted, Abs format (unit mm)*
G04 Created by KiCad (PCBNEW (5.0.1)-4) date 26/08/2019 10:27:06*
%MOMM*%
%LPD*%
G01*
G04 APERTURE LIST*
%ADD10C,0.050000*%
G04 APERTURE END LIST*
D10*
G04 #@! TO.C,J12*
X37430000Y-47540000D02*
X53970000Y-47540000D01*
X53970000Y-47540000D02*
X53970000Y-65040000D01*
X53970000Y-65040000D02*
X37430000Y-65040000D01*
X37430000Y-65040000D02*
X37430000Y-47540000D01*
G04 #@! TO.C,J4*
X36300000Y-10900000D02*
X42450000Y-10900000D01*
X42450000Y-10900000D02*
X42450000Y-14500000D01*
X42450000Y-14500000D02*
X36300000Y-14500000D01*
X36300000Y-14500000D02*
X36300000Y-10900000D01*
G04 #@! TO.C,J19*
X36300000Y-18310000D02*
X36300000Y-14710000D01*
X52600000Y-18310000D02*
X36300000Y-18310000D01*
X52600000Y-14710000D02*
X52600000Y-18310000D01*
X36300000Y-14710000D02*
X52600000Y-14710000D01*
G04 #@! TO.C,R13*
X52550000Y-22830000D02*
X43030000Y-22830000D01*
X52550000Y-20730000D02*
X52550000Y-22830000D01*
X43030000Y-20730000D02*
X52550000Y-20730000D01*
X43030000Y-22830000D02*
X43030000Y-20730000D01*
G04 #@! TO.C,R12*
X52550000Y-25370000D02*
X43030000Y-25370000D01*
X52550000Y-23270000D02*
X52550000Y-25370000D01*
X43030000Y-23270000D02*
X52550000Y-23270000D01*
X43030000Y-25370000D02*
X43030000Y-23270000D01*
G04 #@! TD*
M02*
