G04 #@! TF.GenerationSoftware,KiCad,Pcbnew,(5.0.1)-4*
G04 #@! TF.CreationDate,2019-08-26T10:27:06+03:00*
G04 #@! TF.ProjectId,CP2102-breakout,4350323130322D627265616B6F75742E,rev?*
G04 #@! TF.SameCoordinates,Original*
G04 #@! TF.FileFunction,Other,User*
%FSLAX46Y46*%
G04 Gerber Fmt 4.6, Leading zero omitted, Abs format (unit mm)*
G04 Created by KiCad (PCBNEW (5.0.1)-4) date 26/08/2019 10:27:06*
%MOMM*%
%LPD*%
G01*
G04 APERTURE LIST*
%ADD10C,0.050000*%
G04 APERTURE END LIST*
D10*
G04 #@! TO.C,J2*
X39900000Y-47520000D02*
X39900000Y-23620000D01*
X39900000Y-23620000D02*
X36300000Y-23620000D01*
X36300000Y-23620000D02*
X36300000Y-47520000D01*
X36300000Y-47520000D02*
X39900000Y-47520000D01*
G04 #@! TO.C,J1*
X55140000Y-26140000D02*
X51540000Y-26140000D01*
X55140000Y-47490000D02*
X55140000Y-26140000D01*
X51540000Y-47490000D02*
X55140000Y-47490000D01*
X51540000Y-26140000D02*
X51540000Y-47490000D01*
G04 #@! TO.C,D1*
X51220000Y-18970000D02*
X54520000Y-18970000D01*
X51220000Y-20430000D02*
X51220000Y-18970000D01*
X54520000Y-20430000D02*
X51220000Y-20430000D01*
X54520000Y-18970000D02*
X54520000Y-20430000D01*
G04 #@! TO.C,D2*
X36950000Y-20430000D02*
X36950000Y-18970000D01*
X36950000Y-18970000D02*
X40250000Y-18970000D01*
X40250000Y-18970000D02*
X40250000Y-20430000D01*
X40250000Y-20430000D02*
X36950000Y-20430000D01*
G04 #@! TO.C,D3*
X45865000Y-53495000D02*
X45865000Y-56995000D01*
X45865000Y-53495000D02*
X41765000Y-53495000D01*
X41765000Y-56995000D02*
X45865000Y-56995000D01*
X41765000Y-56995000D02*
X41765000Y-53495000D01*
G04 #@! TO.C,U5*
X53605000Y-51865000D02*
X49265000Y-51865000D01*
X53605000Y-51865000D02*
X53605000Y-48465000D01*
X49265000Y-48465000D02*
X49265000Y-51865000D01*
X49265000Y-48465000D02*
X53605000Y-48465000D01*
G04 #@! TO.C,U4*
X42985000Y-51425000D02*
X38645000Y-51425000D01*
X42985000Y-51425000D02*
X42985000Y-48025000D01*
X38645000Y-48025000D02*
X38645000Y-51425000D01*
X38645000Y-48025000D02*
X42985000Y-48025000D01*
G04 #@! TO.C,U3*
X42900000Y-31500000D02*
X42900000Y-37700000D01*
X49100000Y-31500000D02*
X42900000Y-31500000D01*
X49100000Y-37700000D02*
X49100000Y-31500000D01*
X42900000Y-37700000D02*
X49100000Y-37700000D01*
G04 #@! TO.C,D4*
X42550000Y-20750000D02*
X40250000Y-20750000D01*
X40250000Y-25450000D02*
X40250000Y-20750000D01*
X42550000Y-25450000D02*
X40250000Y-25450000D01*
X42550000Y-20750000D02*
X42550000Y-25450000D01*
G04 #@! TO.C,Q1*
X43300000Y-47350000D02*
X39900000Y-47350000D01*
X39900000Y-47350000D02*
X39900000Y-43850000D01*
X39900000Y-43850000D02*
X43300000Y-43850000D01*
X43300000Y-43850000D02*
X43300000Y-47350000D01*
G04 #@! TO.C,Q2*
X43300000Y-37250000D02*
X43300000Y-40750000D01*
X39900000Y-37250000D02*
X43300000Y-37250000D01*
X39900000Y-40750000D02*
X39900000Y-37250000D01*
X43300000Y-40750000D02*
X39900000Y-40750000D01*
G04 #@! TO.C,C2*
X39970000Y-36550000D02*
X39970000Y-33250000D01*
X41430000Y-36550000D02*
X39970000Y-36550000D01*
X41430000Y-33250000D02*
X41430000Y-36550000D01*
X39970000Y-33250000D02*
X41430000Y-33250000D01*
G04 #@! TO.C,C3*
X47190000Y-24925000D02*
X47190000Y-21625000D01*
X48650000Y-24925000D02*
X47190000Y-24925000D01*
X48650000Y-21625000D02*
X48650000Y-24925000D01*
X47190000Y-21625000D02*
X48650000Y-21625000D01*
G04 #@! TO.C,C4*
X48690000Y-21625000D02*
X50150000Y-21625000D01*
X50150000Y-21625000D02*
X50150000Y-24925000D01*
X50150000Y-24925000D02*
X48690000Y-24925000D01*
X48690000Y-24925000D02*
X48690000Y-21625000D01*
G04 #@! TO.C,C5*
X47150000Y-24925000D02*
X45690000Y-24925000D01*
X45690000Y-24925000D02*
X45690000Y-21625000D01*
X45690000Y-21625000D02*
X47150000Y-21625000D01*
X47150000Y-21625000D02*
X47150000Y-24925000D01*
G04 #@! TO.C,R1*
X48190000Y-18970000D02*
X51150000Y-18970000D01*
X48190000Y-20430000D02*
X48190000Y-18970000D01*
X51150000Y-20430000D02*
X48190000Y-20430000D01*
X51150000Y-18970000D02*
X51150000Y-20430000D01*
G04 #@! TO.C,R2*
X40320000Y-20430000D02*
X40320000Y-18970000D01*
X40320000Y-18970000D02*
X43280000Y-18970000D01*
X43280000Y-18970000D02*
X43280000Y-20430000D01*
X43280000Y-20430000D02*
X40320000Y-20430000D01*
G04 #@! TO.C,R7*
X38430000Y-48470000D02*
X38430000Y-51430000D01*
X36970000Y-48470000D02*
X38430000Y-48470000D01*
X36970000Y-51430000D02*
X36970000Y-48470000D01*
X38430000Y-51430000D02*
X36970000Y-51430000D01*
G04 #@! TO.C,R8*
X37020000Y-23580000D02*
X37020000Y-20620000D01*
X38480000Y-23580000D02*
X37020000Y-23580000D01*
X38480000Y-20620000D02*
X38480000Y-23580000D01*
X37020000Y-20620000D02*
X38480000Y-20620000D01*
G04 #@! TO.C,R9*
X41430000Y-43767500D02*
X39970000Y-43767500D01*
X39970000Y-43767500D02*
X39970000Y-40807500D01*
X39970000Y-40807500D02*
X41430000Y-40807500D01*
X41430000Y-40807500D02*
X41430000Y-43767500D01*
G04 #@! TO.C,R10*
X41870000Y-40820000D02*
X43330000Y-40820000D01*
X43330000Y-40820000D02*
X43330000Y-43780000D01*
X43330000Y-43780000D02*
X41870000Y-43780000D01*
X41870000Y-43780000D02*
X41870000Y-40820000D01*
G04 #@! TO.C,R11*
X38620000Y-20570000D02*
X40080000Y-20570000D01*
X40080000Y-20570000D02*
X40080000Y-23530000D01*
X40080000Y-23530000D02*
X38620000Y-23530000D01*
X38620000Y-23530000D02*
X38620000Y-20570000D01*
G04 #@! TD*
M02*
